<svg id="black" xmlns="http://www.w3.org/2000/svg" xmlns:xlink="http://www.w3.org/1999/xlink" width="141.924" height="121.544" viewBox="0 0 141.924 121.544">
  <defs>
    <linearGradient id="linear-gradient" x1="0.49" y1="0.635" x2="1.085" y2="-0.208" gradientUnits="objectBoundingBox">
      <stop offset="0" stop-color="#ed6928"/>
      <stop offset="1" stop-color="#ed6928" stop-opacity="0"/>
    </linearGradient>
    <linearGradient id="linear-gradient-2" x1="0.327" y1="0.903" x2="0.641" y2="0.003" xlink:href="#linear-gradient"/>
    <linearGradient id="linear-gradient-3" x1="0.739" y1="0.384" x2="2.718" y2="-0.472" xlink:href="#linear-gradient"/>
    <linearGradient id="linear-gradient-4" x1="1.901" y1="-0.208" x2="4.453" y2="-1.526" xlink:href="#linear-gradient"/>
    <linearGradient id="linear-gradient-5" x1="-1.852" y1="-2.117" x2="1.272" y2="1.292" gradientUnits="objectBoundingBox">
      <stop offset="0" stop-color="#fff"/>
      <stop offset="1" stop-color="#fff" stop-opacity="0"/>
    </linearGradient>
    <linearGradient id="linear-gradient-6" x1="0.574" y1="-0.603" x2="0.63" y2="-1.446" gradientUnits="objectBoundingBox">
      <stop offset="0" stop-color="#de5512"/>
      <stop offset="1" stop-color="#de5512" stop-opacity="0"/>
    </linearGradient>
    <linearGradient id="linear-gradient-7" x1="-0.139" y1="-1.106" x2="1.007" y2="1.775" xlink:href="#linear-gradient-5"/>
    <linearGradient id="linear-gradient-8" x1="0.44" y1="-2.354" x2="0.422" y2="-3.301" xlink:href="#linear-gradient-6"/>
    <linearGradient id="linear-gradient-9" x1="-0.033" y1="-0.716" x2="0.552" y2="0.362" xlink:href="#linear-gradient-5"/>
    <linearGradient id="linear-gradient-10" x1="0.429" y1="-1.074" x2="0.56" y2="1.335" xlink:href="#linear-gradient-5"/>
    <linearGradient id="linear-gradient-11" x1="-0.567" y1="-0.781" x2="0.93" y2="1.016" xlink:href="#linear-gradient-5"/>
    <linearGradient id="linear-gradient-12" x1="-27.251" y1="-0.191" x2="-26.098" y2="1.668" xlink:href="#linear-gradient"/>
    <linearGradient id="linear-gradient-13" x1="-72.807" y1="-0.966" x2="-72.716" y2="0.891" xlink:href="#linear-gradient-6"/>
    <linearGradient id="linear-gradient-14" x1="-88.978" y1="2.538" x2="-87.885" y2="3.91" xlink:href="#linear-gradient-6"/>
    <linearGradient id="linear-gradient-15" x1="-1.06" y1="-0.564" x2="0.928" y2="0.706" xlink:href="#linear-gradient-5"/>
    <linearGradient id="linear-gradient-16" x1="0.433" y1="-1.438" x2="0.523" y2="1.155" xlink:href="#linear-gradient-6"/>
  </defs>
  <g id="Group_73" data-name="Group 73">
    <g id="Group_69" data-name="Group 69" transform="translate(101.962 12.726)">
      <g id="Group_63" data-name="Group 63">
        <g id="Group_62" data-name="Group 62">
          <path id="Path_755" data-name="Path 755" d="M666.448,347.554c6.568-8,18.481-5.236,18.929,5.652.2,4.943-2.433,9.48-5.953,12.771-3.99,3.729-11.67,8.66-17.31,6.165-5.234-2.315-9.806,5.416-4.529,7.749,16.547,7.319,38.058-10.509,36.7-27.881a19.166,19.166,0,0,0-34.178-10.8c-3.638,4.429,2.676,10.814,6.346,6.346Z" transform="translate(-655.243 -333.896)" fill="#fa8e4e"/>
        </g>
      </g>
      <g id="Group_65" data-name="Group 65" transform="translate(3.83 4.864)">
        <g id="Group_64" data-name="Group 64">
          <path id="Path_756" data-name="Path 756" d="M682.458,342.615c-6.139-6.643-17.869-3.92-23.385,2.263.537,3.368,4.671,5.968,7.375,2.676,6.568-8,18.481-5.236,18.929,5.652a13.665,13.665,0,0,1-.64,4.664A13.367,13.367,0,0,0,682.458,342.615Z" transform="translate(-659.073 -338.76)" fill="url(#linear-gradient)"/>
        </g>
      </g>
      <g id="Group_67" data-name="Group 67" transform="translate(0.004 26.139)">
        <g id="Group_66" data-name="Group 66">
          <path id="Path_757" data-name="Path 757" d="M684.072,370.191a42.164,42.164,0,0,1-15.707,6.261c-4.324.834-8.967.978-13.017-.768a3.538,3.538,0,0,0,2.237,4.207c13.979,6.183,31.5-5.581,35.779-19.856A31.562,31.562,0,0,1,684.072,370.191Z" transform="translate(-655.247 -360.035)" fill="url(#linear-gradient-2)"/>
        </g>
      </g>
      <g id="Group_68" data-name="Group 68" transform="translate(0 0.005)">
        <path id="Path_758" data-name="Path 758" d="M666.448,347.554a11.76,11.76,0,0,1,9.829-4.573q.879-4.425,1.843-8.835a19.078,19.078,0,0,0-18.018,7.062C656.464,345.637,662.778,352.022,666.448,347.554Z" transform="translate(-655.243 -333.901)" fill="url(#linear-gradient-3)"/>
        <path id="Path_759" data-name="Path 759" d="M666.86,381.537c1.149-3.179,2.236-6.377,3.2-9.612-2.722.985-5.521,1.289-7.945.217-5.234-2.315-9.806,5.416-4.529,7.749A20.112,20.112,0,0,0,666.86,381.537Z" transform="translate(-655.243 -333.901)" fill="url(#linear-gradient-4)"/>
      </g>
      <path id="Path_760" data-name="Path 760" d="M689.555,341.9c-1.569-2.317-4.017-3.863-6.393-5.341a3.7,3.7,0,0,0-2.215-.748c-.086,1.46-.2,2.917-.355,4.369a31.593,31.593,0,0,1,9.263,9.565C691.576,347.535,691.124,344.215,689.555,341.9Z" transform="translate(-655.243 -333.896)" fill="url(#linear-gradient-5)"/>
    </g>
    <g id="Group_70" data-name="Group 70" transform="translate(0 59.983)">
      <ellipse id="Ellipse_29" data-name="Ellipse 29" cx="55.95" cy="10.907" rx="55.95" ry="10.907" transform="translate(15.012 8.759)" fill="#ed6928"/>
      <ellipse id="Ellipse_30" data-name="Ellipse 30" cx="55.95" cy="10.907" rx="55.95" ry="10.907" transform="translate(15.012 7.392)" fill="url(#linear-gradient-6)"/>
      <ellipse id="Ellipse_31" data-name="Ellipse 31" cx="70.962" cy="12.619" rx="70.962" ry="12.619" fill="#ffb174"/>
      <ellipse id="Ellipse_32" data-name="Ellipse 32" cx="70.962" cy="12.619" rx="70.962" ry="12.619" fill="url(#linear-gradient-7)"/>
      <ellipse id="Ellipse_33" data-name="Ellipse 33" cx="67.696" cy="10.907" rx="67.696" ry="10.907" transform="translate(3.266 1.712)" fill="#fa8e4e"/>
      <path id="Path_761" data-name="Path 761" d="M624.243,382.865c-37.388,0-67.7,4.883-67.7,10.907,0,1.253,1.328,2.456,3.741,3.576a3.033,3.033,0,0,1-1.54-2.26c0-5.768,29.019-10.443,64.816-10.443s64.815,4.675,64.815,10.443c0,1.386-1.69,2.707-4.733,3.917,5.284-1.553,8.293-3.336,8.293-5.233C691.939,387.748,661.63,382.865,624.243,382.865Z" transform="translate(-553.28 -381.153)" fill="url(#linear-gradient-8)"/>
      <ellipse id="Ellipse_34" data-name="Ellipse 34" cx="36.769" cy="5.924" rx="36.769" ry="5.924" transform="translate(34.193 9.536)" fill="#ed6928"/>
    </g>
    <g id="Group_71" data-name="Group 71" transform="translate(20.008)">
      <path id="Path_762" data-name="Path 762" d="M628.449,400.809H618.3a39.79,39.79,0,0,1-39.319-33.689L573.3,330.5H673.449l-5.681,36.619A39.79,39.79,0,0,1,628.449,400.809Z" transform="translate(-573.288 -321.17)" fill="#fa8e4e"/>
      <path id="Path_763" data-name="Path 763" d="M618.314,400.809h10.145a39.789,39.789,0,0,0,39.319-33.689l5.681-36.619H573.313l5.681,36.619A39.79,39.79,0,0,0,618.314,400.809Z" transform="translate(-573.288 -321.17)" fill="url(#linear-gradient-9)"/>
      <path id="Path_764" data-name="Path 764" d="M582.746,361.691a4.218,4.218,0,0,0,.291.557c2.6,4.181,9.768,3.785,13.949,3.919,2.891.093,5.322-.122,5.5-3.569l.735-14.1a6.436,6.436,0,0,0-.186-2.438c-.481-1.393-1.834-1.8-3.15-1.932l-14.459-1.482c-2.858-.293-4.048.831-4.181,3.624-.194,4.059.571,8.351.913,12.413A9.575,9.575,0,0,0,582.746,361.691Z" transform="translate(-573.288 -321.17)" fill="url(#linear-gradient-10)"/>
      <path id="Path_765" data-name="Path 765" d="M673.474,330.352c0,5.071-22.427,9.182-50.093,9.182s-50.093-4.111-50.093-9.182,22.428-9.182,50.093-9.182S673.474,325.281,673.474,330.352Z" transform="translate(-573.288 -321.17)" fill="#ffb174"/>
      <path id="Path_766" data-name="Path 766" d="M573.288,330.352c0,5.071,22.428,9.182,50.093,9.182s50.093-4.111,50.093-9.182-22.427-9.182-50.093-9.182S573.288,325.281,573.288,330.352Z" transform="translate(-573.288 -321.17)" fill="url(#linear-gradient-11)"/>
      <path id="Path_767" data-name="Path 767" d="M597.1,391.881a34.808,34.808,0,0,0,34.659-35.445V340.965c17.3-.5,31.66-2.619,38.3-5.486l-5.4,30.685a43.091,43.091,0,0,1-26.6,33.41,39.781,39.781,0,0,1-9.823,1.235H618.081a39.669,39.669,0,0,1-24.26-8.272C594.93,392.367,596.023,392.144,597.1,391.881Z" transform="translate(-573.288 -321.17)" fill="url(#linear-gradient-12)"/>
      <path id="Path_768" data-name="Path 768" d="M639.473,347.192a4,4,0,0,1,.483-1.6c1.2-2.057,3.942-2.055,5.8-2.107a93.943,93.943,0,0,0,18.635-2.681c1.156-.282,3.494-1.409,4.028.385.439,1.478-1.83,13.349-2.506,17.318-.5,2.931-1.37,6.211-3.947,8.1a14.062,14.062,0,0,1-5.891,2.131A92.526,92.526,0,0,1,645,370.008c-2.519.158-5.777.949-6.063-2.571C638.856,366.452,639.419,347.7,639.473,347.192Z" transform="translate(-573.288 -321.17)" fill="url(#linear-gradient-13)"/>
      <path id="Path_769" data-name="Path 769" d="M658.24,371.483c2.043-.181,4.058-.143,4.1.793.1,2.255-1.359,4.669-2.267,6.647a34.419,34.419,0,0,1-5.958,8.851,35.056,35.056,0,0,1-6.63,5.631,33.948,33.948,0,0,1-3.788,2.146,21.076,21.076,0,0,1-4.127,1.687c.505-.1-1.283-21.3.232-23.36a3.284,3.284,0,0,1,2.5-.949L654.141,372C654.7,371.957,656.48,371.639,658.24,371.483Z" transform="translate(-573.288 -321.17)" fill="url(#linear-gradient-14)"/>
      <path id="Path_770" data-name="Path 770" d="M615.326,342.64s-28.465,1.731-38.851-5.577L582.63,371.3s4.039,11.155,9.039,14.425c0,0-6.539-19.041-4.423-36.928C587.246,348.8,613.595,344.179,615.326,342.64Z" transform="translate(-573.288 -321.17)" fill="url(#linear-gradient-15)"/>
      <path id="Path_771" data-name="Path 771" d="M573.431,330.5l5.681,36.619a39.752,39.752,0,0,0,17.747,27.336" transform="translate(-573.288 -321.17)" fill="none" stroke="#ffefe3" stroke-miterlimit="10" stroke-width="0.997"/>
      <path id="Path_772" data-name="Path 772" d="M589.164,323.646c-9.77,1.676-15.876,4.06-15.876,6.706,0,5.071,22.428,9.182,50.093,9.182" transform="translate(-573.288 -321.17)" fill="none" stroke="#ffefe3" stroke-miterlimit="10" stroke-width="0.997"/>
      <path id="Path_773" data-name="Path 773" d="M661.584,337.948l-4.969,28.216a43.092,43.092,0,0,1-26.6,33.41,39.787,39.787,0,0,1-9.823,1.235h8.036a39.781,39.781,0,0,0,9.823-1.235,43.091,43.091,0,0,0,26.6-33.41l5.4-30.685A45.894,45.894,0,0,1,661.584,337.948Z" transform="translate(-573.288 -321.17)" fill="url(#linear-gradient-16)"/>
    </g>
    <g id="Group_72" data-name="Group 72" transform="translate(24.846 1.898)">
      <ellipse id="Ellipse_35" data-name="Ellipse 35" cx="45.255" cy="7.284" rx="45.255" ry="7.284" fill="#8c3215"/>
      <path id="Path_774" data-name="Path 774" d="M651.807,330.352c0,2.527-12.726,4.575-28.426,4.575s-28.426-2.048-28.426-4.575,12.727-4.575,28.426-4.575S651.807,327.825,651.807,330.352Z" transform="translate(-578.126 -323.068)" fill="#782b12"/>
      <path id="Path_775" data-name="Path 775" d="M609.445,333.49c-1.6-.279-3.211-.452-4.81-.724l-.15-.025a10.56,10.56,0,0,1-4.381-1.391,2.258,2.258,0,0,1-.086-3.922,11.091,11.091,0,0,1,4.487-1.413,1.714,1.714,0,0,0,1.095-.4c.354-.434-.2-.89-.64-.86-14.374,1-24.309,3.129-24.309,5.6,0,3.023,14.888,5.538,34.592,6.09C614.234,334.412,611.461,333.842,609.445,333.49Z" transform="translate(-578.126 -323.068)" fill="#d06440"/>
      <path id="Path_776" data-name="Path 776" d="M634.218,324.348c16.607.851,28.511,3.15,28.511,5.853,0,3.343-18.214,6.068-41.018,6.2.01.051.025.1.032.152.545,0,1.089.006,1.638.006,23.6,0,42.73-2.779,42.73-6.206C666.111,327.469,652.568,325.045,634.218,324.348Z" transform="translate(-578.126 -323.068)" fill="#d06440"/>
      <path id="Path_777" data-name="Path 777" d="M585.267,330.352c0,.317-.693.573-1.547.573s-1.547-.256-1.547-.573.692-.573,1.547-.573S585.267,330.035,585.267,330.352Z" transform="translate(-578.126 -323.068)" fill="#f99064"/>
      <path id="Path_778" data-name="Path 778" d="M587.72,331.384c0,.239-.522.433-1.167.433s-1.166-.194-1.166-.433.522-.432,1.166-.432S587.72,331.145,587.72,331.384Z" transform="translate(-578.126 -323.068)" fill="#f99064"/>
      <path id="Path_779" data-name="Path 779" d="M589.947,328.862c0,.278-1.042.5-2.327.5s-2.327-.225-2.327-.5,1.042-.5,2.327-.5S589.947,328.584,589.947,328.862Z" transform="translate(-578.126 -323.068)" fill="#f99064"/>
    </g>
  </g>
  <text id="BLACK-2" data-name="BLACK" transform="translate(49.995 117.544)" fill="#fff" font-size="14" font-family="MyriadPro-Regular, Myriad Pro"><tspan x="0" y="0">BLACK</tspan></text>
</svg>
