<svg id="capuccino" xmlns="http://www.w3.org/2000/svg" xmlns:xlink="http://www.w3.org/1999/xlink" width="155.547" height="140.402" viewBox="0 0 155.547 140.402">
  <defs>
    <linearGradient id="linear-gradient" x1="0.49" y1="0.635" x2="1.085" y2="-0.208" gradientUnits="objectBoundingBox">
      <stop offset="0" stop-color="#a8694a"/>
      <stop offset="1" stop-color="#a8694a" stop-opacity="0"/>
    </linearGradient>
    <linearGradient id="linear-gradient-2" x1="0.327" y1="0.903" x2="0.641" y2="0.003" xlink:href="#linear-gradient"/>
    <linearGradient id="linear-gradient-3" x1="0.739" y1="0.384" x2="2.718" y2="-0.472" xlink:href="#linear-gradient"/>
    <linearGradient id="linear-gradient-4" x1="1.901" y1="-0.208" x2="4.453" y2="-1.526" xlink:href="#linear-gradient"/>
    <linearGradient id="linear-gradient-5" x1="-1.852" y1="-2.117" x2="1.272" y2="1.292" gradientUnits="objectBoundingBox">
      <stop offset="0" stop-color="#fff"/>
      <stop offset="1" stop-color="#fff" stop-opacity="0"/>
    </linearGradient>
    <linearGradient id="linear-gradient-6" x1="0.574" y1="-0.603" x2="0.63" y2="-1.446" gradientUnits="objectBoundingBox">
      <stop offset="0" stop-color="#99593a"/>
      <stop offset="1" stop-color="#99593a" stop-opacity="0"/>
    </linearGradient>
    <linearGradient id="linear-gradient-7" x1="-0.139" y1="-1.106" x2="1.007" y2="1.775" xlink:href="#linear-gradient-5"/>
    <linearGradient id="linear-gradient-8" x1="0.44" y1="-2.354" x2="0.422" y2="-3.301" xlink:href="#linear-gradient-6"/>
    <linearGradient id="linear-gradient-9" x1="-0.033" y1="-0.716" x2="0.552" y2="0.362" xlink:href="#linear-gradient-5"/>
    <linearGradient id="linear-gradient-10" x1="0.429" y1="-1.074" x2="0.56" y2="1.335" xlink:href="#linear-gradient-5"/>
    <linearGradient id="linear-gradient-11" x1="-0.567" y1="-0.781" x2="0.93" y2="1.016" xlink:href="#linear-gradient-5"/>
    <linearGradient id="linear-gradient-12" x1="-21.842" y1="-0.191" x2="-20.689" y2="1.668" xlink:href="#linear-gradient"/>
    <linearGradient id="linear-gradient-13" x1="-58.261" y1="-0.828" x2="-58.17" y2="1.029" xlink:href="#linear-gradient-6"/>
    <linearGradient id="linear-gradient-14" x1="-72.175" y1="1.942" x2="-71.082" y2="3.315" xlink:href="#linear-gradient-6"/>
    <linearGradient id="linear-gradient-15" x1="-1.06" y1="-0.564" x2="0.928" y2="0.706" xlink:href="#linear-gradient-5"/>
    <linearGradient id="linear-gradient-16" x1="0.433" y1="-1.438" x2="0.523" y2="1.155" xlink:href="#linear-gradient-6"/>
  </defs>
  <g id="Group_37" data-name="Group 37" transform="translate(0 0)">
    <g id="Group_31" data-name="Group 31" transform="translate(107.091 15.772)">
      <g id="Group_25" data-name="Group 25">
        <g id="Group_24" data-name="Group 24">
          <path id="Path_532" data-name="Path 532" d="M667.447,146.31c8.14-9.909,22.9-6.489,23.459,7.005.252,6.126-3.015,11.748-7.378,15.827-4.944,4.621-14.462,10.732-21.452,7.641-6.487-2.869-12.153,6.711-5.614,9.6,20.508,9.07,47.167-13.025,45.478-34.554a23.752,23.752,0,0,0-42.358-13.387c-4.508,5.488,3.317,13.4,7.865,7.864Z" transform="translate(-653.56 -129.384)" fill="#b58061"/>
        </g>
      </g>
      <g id="Group_27" data-name="Group 27" transform="translate(4.747 6.027)">
        <g id="Group_26" data-name="Group 26">
          <path id="Path_533" data-name="Path 533" d="M687.288,140.189c-7.608-8.233-22.145-4.858-28.981,2.8.665,4.174,5.789,7.4,9.14,3.317,8.14-9.909,22.9-6.489,23.459,7.005a16.927,16.927,0,0,1-.793,5.78A16.566,16.566,0,0,0,687.288,140.189Z" transform="translate(-658.307 -135.411)" fill="url(#linear-gradient)"/>
        </g>
      </g>
      <g id="Group_29" data-name="Group 29" transform="translate(0.004 32.394)">
        <g id="Group_28" data-name="Group 28">
          <path id="Path_534" data-name="Path 534" d="M689.288,174.364a52.234,52.234,0,0,1-19.465,7.76c-5.36,1.034-11.114,1.213-16.133-.952a4.387,4.387,0,0,0,2.772,5.215c17.325,7.662,39.039-6.918,44.343-24.609A39.092,39.092,0,0,1,689.288,174.364Z" transform="translate(-653.564 -161.778)" fill="url(#linear-gradient-2)"/>
        </g>
      </g>
      <g id="Group_30" data-name="Group 30" transform="translate(0 0.006)">
        <path id="Path_535" data-name="Path 535" d="M667.447,146.31a14.573,14.573,0,0,1,12.181-5.667q1.089-5.484,2.284-10.95a23.643,23.643,0,0,0-22.33,8.753C655.074,143.934,662.9,151.847,667.447,146.31Z" transform="translate(-653.56 -129.39)" fill="url(#linear-gradient-3)"/>
        <path id="Path_536" data-name="Path 536" d="M667.957,188.426c1.424-3.939,2.771-7.9,3.965-11.913-3.374,1.222-6.843,1.6-9.846.27-6.487-2.869-12.153,6.711-5.614,9.6A24.938,24.938,0,0,0,667.957,188.426Z" transform="translate(-653.56 -129.39)" fill="url(#linear-gradient-4)"/>
      </g>
      <path id="Path_537" data-name="Path 537" d="M696.084,139.3c-1.945-2.872-4.978-4.787-7.923-6.62a4.589,4.589,0,0,0-2.746-.926c-.106,1.81-.24,3.615-.439,5.415a39.154,39.154,0,0,1,11.48,11.853C698.589,146.286,698.029,142.172,696.084,139.3Z" transform="translate(-653.56 -129.384)" fill="url(#linear-gradient-5)"/>
    </g>
    <g id="Group_32" data-name="Group 32" transform="translate(0 79.043)">
      <ellipse id="Ellipse_7" data-name="Ellipse 7" cx="55.95" cy="10.907" rx="55.95" ry="10.907" transform="translate(15.012 8.759)" fill="#a8694a"/>
      <ellipse id="Ellipse_8" data-name="Ellipse 8" cx="55.95" cy="10.907" rx="55.95" ry="10.907" transform="translate(15.012 7.392)" fill="url(#linear-gradient-6)"/>
      <ellipse id="Ellipse_9" data-name="Ellipse 9" cx="70.962" cy="12.619" rx="70.962" ry="12.619" fill="#ba9476"/>
      <ellipse id="Ellipse_10" data-name="Ellipse 10" cx="70.962" cy="12.619" rx="70.962" ry="12.619" fill="url(#linear-gradient-7)"/>
      <ellipse id="Ellipse_11" data-name="Ellipse 11" cx="67.696" cy="10.907" rx="67.696" ry="10.907" transform="translate(3.266 1.712)" fill="#b58061"/>
      <path id="Path_538" data-name="Path 538" d="M617.431,194.367c-37.387,0-67.7,4.883-67.7,10.907,0,1.253,1.328,2.455,3.742,3.576a3.033,3.033,0,0,1-1.54-2.26c0-5.768,29.019-10.444,64.816-10.444s64.815,4.676,64.815,10.444c0,1.385-1.69,2.707-4.733,3.917,5.284-1.554,8.293-3.337,8.293-5.233C685.128,199.25,654.819,194.367,617.431,194.367Z" transform="translate(-546.469 -192.655)" fill="url(#linear-gradient-8)"/>
      <ellipse id="Ellipse_12" data-name="Ellipse 12" cx="36.769" cy="5.924" rx="36.769" ry="5.924" transform="translate(34.194 9.536)" fill="#a8694a"/>
    </g>
    <g id="Group_33" data-name="Group 33" transform="translate(5.523)">
      <path id="Path_539" data-name="Path 539" d="M620.353,212.311H607.78a49.313,49.313,0,0,1-48.73-41.752l-7.041-45.383H676.124l-7.041,45.383A49.313,49.313,0,0,1,620.353,212.311Z" transform="translate(-551.992 -113.612)" fill="#b58061"/>
      <path id="Path_540" data-name="Path 540" d="M607.793,212.311h12.573a49.312,49.312,0,0,0,48.729-41.752l7.041-45.383H552.022l7.041,45.383A49.313,49.313,0,0,0,607.793,212.311Z" transform="translate(-551.992 -113.612)" fill="url(#linear-gradient-9)"/>
      <path id="Path_541" data-name="Path 541" d="M563.712,163.83a5.29,5.29,0,0,0,.361.691c3.223,5.181,12.106,4.69,17.288,4.857,3.582.115,6.6-.151,6.818-4.424q.456-8.737.911-17.476a7.943,7.943,0,0,0-.231-3.022c-.6-1.727-2.272-2.228-3.9-2.395l-17.921-1.836c-3.541-.363-5.017,1.03-5.182,4.492-.239,5.03.709,10.348,1.132,15.383A11.892,11.892,0,0,0,563.712,163.83Z" transform="translate(-551.992 -113.612)" fill="url(#linear-gradient-10)"/>
      <ellipse id="Ellipse_13" data-name="Ellipse 13" cx="62.081" cy="11.379" rx="62.081" ry="11.379" fill="#ba9476"/>
      <ellipse id="Ellipse_14" data-name="Ellipse 14" cx="62.081" cy="11.379" rx="62.081" ry="11.379" fill="url(#linear-gradient-11)"/>
      <path id="Path_542" data-name="Path 542" d="M581.5,201.246a43.74,43.74,0,0,0,21.944-6.1c13.239-7.846,21.009-22.433,21.009-37.823V138.144c21.439-.617,39.237-3.245,47.461-6.8l-6.7,38.029a53.406,53.406,0,0,1-32.968,41.405,49.313,49.313,0,0,1-12.174,1.532H607.505a49.159,49.159,0,0,1-30.067-10.253C578.813,201.848,580.167,201.572,581.5,201.246Z" transform="translate(-551.992 -113.612)" fill="url(#linear-gradient-12)"/>
      <path id="Path_543" data-name="Path 543" d="M634.016,145.861a4.974,4.974,0,0,1,.6-1.984c1.481-2.549,4.886-2.547,7.192-2.611a116.447,116.447,0,0,0,23.094-3.323c1.433-.35,4.33-1.746,4.992.478.544,1.832-2.268,16.543-3.106,21.463-.619,3.632-1.7,7.7-4.892,10.043a17.406,17.406,0,0,1-7.3,2.641,114.5,114.5,0,0,1-13.729,1.57c-3.122.2-7.161,1.176-7.514-3.186C633.252,169.731,633.948,146.49,634.016,145.861Z" transform="translate(-551.992 -113.612)" fill="url(#linear-gradient-13)"/>
      <path id="Path_544" data-name="Path 544" d="M657.275,175.966c2.531-.224,5.028-.178,5.081.983.129,2.794-1.683,5.786-2.809,8.237a42.662,42.662,0,0,1-7.384,10.97,43.469,43.469,0,0,1-8.216,6.979,42.036,42.036,0,0,1-4.7,2.658,26.154,26.154,0,0,1-5.115,2.092c.626-.129-1.59-26.4.288-28.951.677-.921,1.962-1.087,3.1-1.177l14.668-1.149C652.886,176.553,655.093,176.159,657.275,175.966Z" transform="translate(-551.992 -113.612)" fill="url(#linear-gradient-14)"/>
      <path id="Path_545" data-name="Path 545" d="M604.09,140.22s-35.278,2.145-48.149-6.912l7.627,42.428s5.006,13.826,11.2,17.878c0,0-8.1-23.6-5.482-45.766C569.289,147.848,601.945,142.127,604.09,140.22Z" transform="translate(-551.992 -113.612)" fill="url(#linear-gradient-15)"/>
      <path id="Path_546" data-name="Path 546" d="M552.168,125.176l7.041,45.383A49.263,49.263,0,0,0,581.2,204.437" transform="translate(-551.992 -113.612)" fill="none" stroke="#fff" stroke-miterlimit="10" stroke-width="1.236"/>
      <path id="Path_547" data-name="Path 547" d="M571.666,116.68c-12.107,2.077-19.674,5.032-19.674,8.311,0,6.285,27.794,11.38,62.081,11.38" transform="translate(-551.992 -113.612)" fill="none" stroke="#fff" stroke-miterlimit="10" stroke-width="1.236"/>
      <path id="Path_548" data-name="Path 548" d="M661.418,134.4l-6.158,34.969a53.4,53.4,0,0,1-32.969,41.405,49.3,49.3,0,0,1-12.173,1.532h9.96a49.307,49.307,0,0,0,12.174-1.532,53.406,53.406,0,0,0,32.968-41.405l6.7-38.029A56.88,56.88,0,0,1,661.418,134.4Z" transform="translate(-551.992 -113.612)" fill="url(#linear-gradient-16)"/>
    </g>
    <g id="Group_34" data-name="Group 34" transform="translate(11.518 2.352)">
      <ellipse id="Ellipse_15" data-name="Ellipse 15" cx="56.085" cy="9.027" rx="56.085" ry="9.027" fill="#8c3215"/>
      <ellipse id="Ellipse_16" data-name="Ellipse 16" cx="35.229" cy="5.67" rx="35.229" ry="5.67" transform="translate(20.856 3.357)" fill="#782b12"/>
    </g>
    <g id="Group_35" data-name="Group 35" transform="translate(15.403 5.926)" opacity="0.9">
      <path id="Path_549" data-name="Path 549" d="M660.385,121.976a13.324,13.324,0,0,0-1.829-.631,34.831,34.831,0,0,0-3.61-.732,126.943,126.943,0,0,0-14.413-1.075l-.022.3c4.755.6,9.529,1.192,14.156,2.246a33.453,33.453,0,0,1,3.39.909,11.443,11.443,0,0,1,1.533.635,2.074,2.074,0,0,1,.951.767c.068.2.08.29-.148.641a4.343,4.343,0,0,1-1.053.939,15.229,15.229,0,0,1-2.982,1.475,40.317,40.317,0,0,1-6.734,1.809l-1.061.2a20.624,20.624,0,0,0,2.306-1.252,9.541,9.541,0,0,0,1.367-1.062,3.883,3.883,0,0,0,1.122-1.654,2.1,2.1,0,0,0-.011-1.274,2.312,2.312,0,0,0-.664-.986,5.429,5.429,0,0,0-1.595-.889,29.472,29.472,0,0,0-6.259-1.234c-2.078-.241-4.158-.376-6.237-.474l-.03.3c2.051.329,4.1.672,6.122,1.087a28.62,28.62,0,0,1,5.823,1.7,4.056,4.056,0,0,1,1.076.684c.221.268.2.344.138.557a2.326,2.326,0,0,1-.71.82,7.659,7.659,0,0,1-1.151.763,26.047,26.047,0,0,1-5.585,2.078c-1.612.43-3.263.747-4.923,1.019a16.7,16.7,0,0,0,3.748-2.175,5.2,5.2,0,0,0,1.046-1.137,2.169,2.169,0,0,0,.352-1.8,2.312,2.312,0,0,0-1.182-1.261,7.235,7.235,0,0,0-1.324-.551,27.737,27.737,0,0,0-5.335-.987l-.05.295a31.943,31.943,0,0,1,5.056,1.554,6.26,6.26,0,0,1,1.091.594c.318.218.578.505.576.67.081.382-.469,1.012-1.142,1.437a17.978,17.978,0,0,1-4.659,2.026,48.961,48.961,0,0,1-5.1,1.238c-.952.189-1.91.336-2.872.468.4-.162.805-.314,1.2-.492a17.045,17.045,0,0,0,4.13-2.514,5.857,5.857,0,0,0,.841-.95,2.389,2.389,0,0,0,.507-1.233,1.7,1.7,0,0,0-.464-1.271,3.247,3.247,0,0,0-1.016-.71l-.146.262c.631.4,1.157,1.034,1,1.64a1.762,1.762,0,0,1-.5.839,5.083,5.083,0,0,1-.8.7,15.978,15.978,0,0,1-4.1,1.842,52.9,52.9,0,0,1-8.954,2.009c-2.995.474-6.047.515-9.035,1.056-2.989-.541-6.04-.582-9.035-1.056a52.873,52.873,0,0,1-8.954-2.009,15.978,15.978,0,0,1-4.1-1.842,5.135,5.135,0,0,1-.8-.7,1.767,1.767,0,0,1-.5-.839c-.16-.606.365-1.242,1-1.64l-.145-.262a3.247,3.247,0,0,0-1.016.71,1.7,1.7,0,0,0-.464,1.271,2.39,2.39,0,0,0,.507,1.233,5.854,5.854,0,0,0,.841.95,17.045,17.045,0,0,0,4.13,2.514c.4.178.8.33,1.2.492-.961-.132-1.92-.279-2.871-.468a48.957,48.957,0,0,1-5.1-1.238,18,18,0,0,1-4.66-2.026c-.672-.425-1.222-1.055-1.141-1.437,0-.165.258-.452.576-.67a6.26,6.26,0,0,1,1.091-.594,31.941,31.941,0,0,1,5.056-1.554l-.05-.295a27.723,27.723,0,0,0-5.335.987,7.236,7.236,0,0,0-1.324.551,2.312,2.312,0,0,0-1.182,1.261,2.169,2.169,0,0,0,.352,1.8,5.2,5.2,0,0,0,1.046,1.137,16.7,16.7,0,0,0,3.748,2.175c-1.66-.272-3.311-.589-4.923-1.019a26.027,26.027,0,0,1-5.585-2.078,7.659,7.659,0,0,1-1.151-.763,2.326,2.326,0,0,1-.71-.82c-.062-.213-.083-.289.138-.557a4.056,4.056,0,0,1,1.076-.684,28.619,28.619,0,0,1,5.823-1.7c2.023-.415,4.071-.758,6.122-1.087l-.03-.3c-2.079.1-4.159.233-6.238.474a29.474,29.474,0,0,0-6.258,1.234,5.428,5.428,0,0,0-1.595.889,2.312,2.312,0,0,0-.664.986,2.093,2.093,0,0,0-.011,1.274,3.875,3.875,0,0,0,1.122,1.654,9.538,9.538,0,0,0,1.367,1.062,20.533,20.533,0,0,0,2.306,1.252l-1.061-.2a40.317,40.317,0,0,1-6.734-1.809,15.228,15.228,0,0,1-2.982-1.475,4.343,4.343,0,0,1-1.053-.939c-.228-.351-.216-.439-.148-.641a2.074,2.074,0,0,1,.951-.767,11.44,11.44,0,0,1,1.533-.635,33.384,33.384,0,0,1,3.39-.909c4.627-1.054,9.4-1.647,14.156-2.246l-.022-.3a126.942,126.942,0,0,0-14.413,1.075,34.827,34.827,0,0,0-3.61.732,13.381,13.381,0,0,0-1.83.631,3.855,3.855,0,0,0-1.829,1.428,2.367,2.367,0,0,0-.351,1.46,3.1,3.1,0,0,0,.158.706c.087.2.183.395.286.579a6.194,6.194,0,0,0,1.5,1.572,17.259,17.259,0,0,0,3.335,1.932c.506.223,1.015.433,1.525.638,10.2,2.258,26.722,3.727,45.389,3.727a270.867,270.867,0,0,0,37.937-2.38,51.348,51.348,0,0,0,5.281-1.985,17.257,17.257,0,0,0,3.335-1.932,6.194,6.194,0,0,0,1.5-1.572c.1-.184.2-.38.286-.579a3.05,3.05,0,0,0,.157-.706,2.366,2.366,0,0,0-.35-1.46A3.853,3.853,0,0,0,660.385,121.976Z" transform="translate(-561.872 -119.538)" fill="#ffe5ac"/>
      <path id="Path_550" data-name="Path 550" d="M624.628,123.487c0-1.178-5.938-2.134-13.262-2.134s-13.261.956-13.261,2.134,5.937,2.135,13.261,2.135S624.628,124.666,624.628,123.487Z" transform="translate(-561.872 -119.538)" fill="#ffe5ac"/>
      <ellipse id="Ellipse_17" data-name="Ellipse 17" cx="9.884" cy="1.591" rx="9.884" ry="1.591" transform="translate(39.61 6.742)" fill="#ffe5ac"/>
    </g>
    <g id="Group_36" data-name="Group 36" transform="translate(14.647 3.939)">
      <path id="Path_551" data-name="Path 551" d="M596.8,128.88c-1.98-.346-3.98-.56-5.961-.9l-.186-.032a13.043,13.043,0,0,1-5.43-1.724c-1.862-1.324-2.011-3.565-.107-4.86a13.768,13.768,0,0,1,5.562-1.751,2.118,2.118,0,0,0,1.356-.5c.439-.537-.249-1.1-.793-1.065-17.814,1.238-30.127,3.877-30.127,6.937,0,3.746,18.451,6.863,42.871,7.547C602.737,130.022,599.3,129.316,596.8,128.88Z" transform="translate(-561.116 -117.551)" fill="#fff"/>
      <path id="Path_552" data-name="Path 552" d="M627.5,117.551c20.581,1.054,35.335,3.9,35.335,7.252,0,4.145-22.573,7.521-50.835,7.683.012.063.031.124.04.188.675,0,1.349.008,2.03.008,29.247,0,52.956-3.443,52.956-7.691C667.029,121.418,650.246,118.414,627.5,117.551Z" transform="translate(-561.116 -117.551)" fill="#fff"/>
      <path id="Path_553" data-name="Path 553" d="M566.837,124.991c0,.393-.859.711-1.917.711s-1.918-.318-1.918-.711.859-.711,1.918-.711S566.837,124.6,566.837,124.991Z" transform="translate(-561.116 -117.551)" fill="#fff"/>
      <path id="Path_554" data-name="Path 554" d="M569.877,126.27c0,.3-.647.536-1.446.536s-1.446-.24-1.446-.536.648-.536,1.446-.536S569.877,125.974,569.877,126.27Z" transform="translate(-561.116 -117.551)" fill="#fff"/>
      <path id="Path_555" data-name="Path 555" d="M572.637,123.145c0,.344-1.291.623-2.884.623s-2.884-.279-2.884-.623,1.291-.624,2.884-.624S572.637,122.8,572.637,123.145Z" transform="translate(-561.116 -117.551)" fill="#fff"/>
    </g>
  </g>
  <text id="CAPPUCCINO" transform="translate(28.757 136.402)" fill="#fff" font-size="14" font-family="MyriadPro-Regular, Myriad Pro"><tspan x="0" y="0">CAPPUCCINO</tspan></text>
</svg>
