<svg xmlns="http://www.w3.org/2000/svg" width="52.8" height="40.316" viewBox="0 0 52.8 40.316">
  <g id="Component_18_1" data-name="Component 18 – 1" transform="translate(0 0)">
    <path id="Path_1377" data-name="Path 1377" d="M95.631,176.039c.441-1.047-.272-1.687-.193-2.8.1-1.465,1.665-1.836,1.668-3.342.005-2.913-5.061-4.245-6.6-5.794-.954-1.019-2-2.377-3.243-2.83-1.335-.453-3.052.113-4.387.227-8.011,1.132-14.973,4.641-22.316,8.15a39.609,39.609,0,0,0-6.39,4.075l-7.248,4.924c-.763.566-2.217,1.67-2.265,2.038,1.335,3.622,4.554,6.735,7.129,9,5.15,0,9.441-2.377,14.114-4.641.171-.087.291-.064.465-.141,1.139,2.541.572,1.91,7.725,1.274,3.021-.269,6.058.139,9.08-.15a9.326,9.326,0,0,0,3.606-.664c1.288-.759,2.244-2.991,3.152-4.257a15.513,15.513,0,0,1,3.683-3.311c.584-.43,1.483-.787,1.886-1.484A2.429,2.429,0,0,0,95.631,176.039Z" transform="translate(-44.305 -149.369)" fill="#f2b24d"/>
    <g id="Group_113" data-name="Group 113">
      <g id="Group_109" data-name="Group 109" transform="translate(23.097 21.043)">
        <path id="Path_1378" data-name="Path 1378" d="M130.672,195.854c.1,1.358-.238,9.735,0,10.018s3.1.169,5.674-.17a37.11,37.11,0,0,1,7.915-.057c1.43.227,5.055-.4,5.2-.679.239-1.7-.715-4.924-.906-5.49s-1.669-4.924-2.337-6.961-13.447-1.924-14.114-1.585S130.672,195.854,130.672,195.854Z" transform="translate(-130.584 -190.736)" fill="#754f42"/>
        <path id="Path_1379" data-name="Path 1379" d="M146.462,198.764l-.341.1s.859,3.509.43,3.792-4.625.452-6.008.566-5.674.962-6.008.962-2.146-2.943-2.432-3.792l-1.329.395c-.064.347-.1.567-.1.567.1,1.358-.238,9.735,0,10.018s3.1.169,5.674-.17a37.109,37.109,0,0,1,7.915-.057c1.43.227,5.055-.4,5.2-.679.239-1.7-.715-4.924-.906-5.49C148.383,204.477,147.192,200.966,146.462,198.764Z" transform="translate(-130.584 -196.242)" fill="#5e382a"/>
        <path id="Path_1380" data-name="Path 1380" d="M141.877,221.587c-.525-.057-5.865.34-7.153,1.132s-2.193,3.622-3.195,3.566l-.232.792a21.853,21.853,0,0,0,5.573-.226,38.2,38.2,0,0,1,5.3-.231c.292-.48.542-.933.711-1.241.524-.962,1.924-2.36,2.42-3.538C145.477,221.418,142.4,221.644,141.877,221.587Z" transform="translate(-131.108 -211.886)" fill="#4a2c20"/>
        <path id="Path_1381" data-name="Path 1381" d="M131.482,206.3l-.81.251c.09,1.423-.238,9.712,0,9.994a.252.252,0,0,0,.022.014c.7-1.584,1.724-3.866,2.028-4.372C132.054,211.282,131.434,207.377,131.482,206.3Z" transform="translate(-130.583 -201.41)" fill="#4a2c20"/>
        <path id="Path_1382" data-name="Path 1382" d="M140.578,218.278a3.955,3.955,0,0,0-.93,2.037" transform="translate(-137.248 -209.624)" fill="none"/>
        <path id="Path_1383" data-name="Path 1383" d="M133.133,225.3a16.127,16.127,0,0,0-1.86,4.33" transform="translate(-131.09 -214.441)" fill="none"/>
        <path id="Path_1384" data-name="Path 1384" d="M144.114,226.043a10.864,10.864,0,0,0-2.11,2.335" transform="translate(-138.981 -214.949)" fill="none"/>
        <path id="Path_1385" data-name="Path 1385" d="M143.574,226.583a4.163,4.163,0,0,0-.894.764" transform="translate(-139.478 -215.319)" fill="none"/>
        <path id="Path_1386" data-name="Path 1386" d="M189.289,222.692c-.429.17-.536.891-.68,1.358a6.063,6.063,0,0,1-1.859,2.5" transform="translate(-171.881 -212.651)" fill="none"/>
        <path id="Path_1387" data-name="Path 1387" d="M190.409,223.1a2.71,2.71,0,0,0-.822.934" transform="translate(-173.967 -212.928)" fill="none"/>
        <path id="Path_1388" data-name="Path 1388" d="M172.565,208.48c.859,0,1.717-.042,2.539-.085.787-.042,1.967.212,1.681-1.1" transform="translate(-161.451 -202.09)" fill="none"/>
        <path id="Path_1389" data-name="Path 1389" d="M187.83,204.455c.036.17.071.382.107.552" transform="translate(-172.675 -200.144)" fill="none"/>
        <path id="Path_1390" data-name="Path 1390" d="M146.414,192.515c-.115-.349-.586-.636-1.291-.869a5.268,5.268,0,0,1-.759-.15c-.208-.059-.413-.124-.617-.19a49.543,49.543,0,0,0-11.328-.411c-.072.068-.145.133-.215.206s-.128.138-.192.208a25.329,25.329,0,0,0-1.143,4.547c.034.481.014,1.845-.016,3.418,1.813-1.473,3.5-1.334,5.69-1.493a12.41,12.41,0,0,0,2.908-.283c.668-.227,1.24-.792,1.86-1.019.668-.227,1.383-.34,2.05-.509a35.3,35.3,0,0,1,3.863-1.014C146.918,194.037,146.626,193.159,146.414,192.515Z" transform="translate(-130.782 -190.736)" fill="#29150e"/>
      </g>
      <g id="Group_110" data-name="Group 110" transform="translate(19.421 9.595)">
        <path id="Path_1391" data-name="Path 1391" d="M129.949,144.024c2,1.3,5.96,5.546,7.1,6.226s1.86.962,2.1,1.415,1.144.792,1.287,1.245.334,2.377.954,3.056,1.24,1.7,1.144,1.981-3.385,1.981-5.865,3.4-8.011,4.3-8.488,4.245a49.982,49.982,0,0,1-8.3-6.509c-1.383-1.7-3.529-11.15-3.147-11.6S127.327,142.779,129.949,144.024Z" transform="translate(-116.696 -143.796)" fill="#754f42"/>
        <path id="Path_1392" data-name="Path 1392" d="M141.626,166.508c-.62-.679-.811-2.6-.954-3.056s-1.049-.792-1.287-1.245a2.634,2.634,0,0,0-1.081-.836c-1.48,1.473-5.323,3.552-6.644,4.232-1.431.736-2.1,1.075-2.479.849s-3.624-2.83-5.627-4.018a66.391,66.391,0,0,0-6.541-3.265c.38,2.665,1.992,9.082,3.108,10.452a49.983,49.983,0,0,0,8.3,6.509c.477.057,6.008-2.83,8.488-4.245s5.769-3.113,5.865-3.4S142.245,167.187,141.626,166.508Z" transform="translate(-116.928 -154.338)" fill="#5e382a"/>
        <path id="Path_1393" data-name="Path 1393" d="M150.077,174.625c.1-.283-.525-1.3-1.144-1.981s-.811-2.6-.954-3.056a.755.755,0,0,0-.2-.293c-1.02.393-2.39.989-3,1.312-.954.509-2.575,1.755-3.386,2.264a23.88,23.88,0,0,1-3.671,1.528c-.429.113-1.169-.849-1.169-.849s-1.025,2.264-1.216,1.868-1.383-.849-2.861-1.924-4.387-4.471-5.532-5.377l.783,7.982a52.828,52.828,0,0,0,7.991,6.167c.477.057,6.008-2.83,8.488-4.245S149.981,174.908,150.077,174.625Z" transform="translate(-124.235 -160.474)" fill="#4a2c20"/>
        <path id="Path_1394" data-name="Path 1394" d="M173.014,175.217c-.62-.679-.811-2.6-.954-3.056a.755.755,0,0,0-.2-.293c-1.02.393-2.39.989-3,1.312-.954.509-2.575,1.755-3.386,2.264a23.88,23.88,0,0,1-3.671,1.528.288.288,0,0,1-.07.008,12.527,12.527,0,0,0-1.891,4.75,13.159,13.159,0,0,0-.084,3.1.248.248,0,0,0,.043.013c.477.057,6.008-2.83,8.488-4.245s5.769-3.113,5.865-3.4S173.634,175.9,173.014,175.217Z" transform="translate(-148.317 -163.047)" fill="#29150e"/>
        <path id="Path_1395" data-name="Path 1395" d="M145,169.372c.477.283,4.673,2.6,4.959,2.886s4.2-1.528,6.151-2.434c.525-.057-1.335,1.019-2.813,1.868s-3.338,1.415-3.576,1.245S144.286,169.259,145,169.372Z" transform="translate(-137.458 -161.334)" fill="#a3725d"/>
        <path id="Path_1396" data-name="Path 1396" d="M160.008,197.114c-.715.679-.941,3.934-.656,4.783" transform="translate(-147.971 -180.36)" fill="none"/>
        <path id="Path_1397" data-name="Path 1397" d="M164.6,183.787c.644.255.858.637,1.681.467" transform="translate(-151.914 -171.221)" fill="none"/>
        <path id="Path_1398" data-name="Path 1398" d="M172.565,183.721a6.227,6.227,0,0,0,.787-.34" transform="translate(-157.774 -170.942)" fill="none"/>
        <path id="Path_1399" data-name="Path 1399" d="M173.264,187.569c-.751.212-1.43,1.443-1.645,2.25" transform="translate(-157.079 -173.814)" fill="none"/>
        <path id="Path_1400" data-name="Path 1400" d="M170.3,189.055c-.25.042-.429.3-.572.509" transform="translate(-155.688 -174.834)" fill="none"/>
        <path id="Path_1401" data-name="Path 1401" d="M188.506,168.9a1.6,1.6,0,0,0,.679-.382" transform="translate(-169.495 -160.752)" fill="none"/>
        <path id="Path_1402" data-name="Path 1402" d="M124.229,164.118a32.071,32.071,0,0,1-3.377-2.018q-.364-.252-.726-.507a30.206,30.206,0,0,1-2.959-1.557c.1.606.243,1.362.425,2.189a18.536,18.536,0,0,0,.973,2.5c1.144,2.66,2.05,5.32,3.91,7.414l1.383-.792c-.048-1.132.1-2.321.143-3.453,0-.906-.286-3,.191-3.736C124.2,164.145,124.217,164.133,124.229,164.118Z" transform="translate(-117.042 -154.933)" fill="#29150e"/>
        <path id="Path_1403" data-name="Path 1403" d="M137.273,147.639c-.365-.122-.729-.237-1.093-.338a33.373,33.373,0,0,0-6.957-.955,51.971,51.971,0,0,0-5.674,2.01,110.249,110.249,0,0,0,12.485,6.011,6.741,6.741,0,0,0,.718-.049c1.383-.227,2.718-1.7,3.91-2.491.206-.139.436-.274.675-.412C140.318,150.539,138.73,148.96,137.273,147.639Z" transform="translate(-121.735 -145.545)" fill="#29150e"/>
      </g>
      <g id="Group_111" data-name="Group 111" transform="translate(14.514)">
        <path id="Path_1404" data-name="Path 1404" d="M98.3,109.342c-.477,1.132.381,1.358,1.43,3.339s1.669,4.755,2.1,4.867,5.484,1.981,7.439,2.943a47.264,47.264,0,0,0,4.577,1.755c1.239.509,4.148,1.3,4.578.906s4.434-8.716,4.959-9.339a5.738,5.738,0,0,0,.715-3.4c-.1-1.132.906-2.83.572-3.453s-1.526-1.075-2.813-1.471-7.629-1.925-9.775-2.717-5.245-2.207-5.626-1.924-.954.113-1.288.34A94.133,94.133,0,0,0,98.3,109.342Z" transform="translate(-98.162 -100.816)" fill="#754f42"/>
        <path id="Path_1405" data-name="Path 1405" d="M124.666,119.017a1.784,1.784,0,0,0-.685-.627,6.268,6.268,0,0,0-1.556,2.268,10.106,10.106,0,0,1-1.621,2.547c-.715.792-.572,1.132-.954,1.415s-.858-.34-1.716-.566-5.722-1.019-8.631-1.528-5.293-2.377-6.581-2.547c-1.118-.147-3.348.984-4.572,1.322-.02.033-.039.066-.053.093-.477,1.132.381,1.358,1.43,3.339s1.669,4.755,2.1,4.867,5.484,1.981,7.439,2.943a47.273,47.273,0,0,0,4.577,1.755c1.239.509,4.148,1.3,4.578.906s4.434-8.716,4.959-9.339a5.739,5.739,0,0,0,.715-3.4C124,121.337,125,119.64,124.666,119.017Z" transform="translate(-98.162 -112.868)" fill="#5e382a"/>
        <path id="Path_1406" data-name="Path 1406" d="M126.082,129.111a3.333,3.333,0,0,1,.123-1.036c-.714.937-2.89,4.746-3.222,5.337a1.514,1.514,0,0,1-1.526.792c-.62,0-7.057-1.981-7.868-2.321a55.957,55.957,0,0,0-7.105-1.641c-1.955-.283-5.007-1.528-5.531-1.528s1.478,3.962,1.812,4.924l-.07.03c.492,1.343.845,2.5,1.119,2.573.429.113,5.484,1.981,7.439,2.943a47.263,47.263,0,0,0,4.577,1.755c1.239.509,4.148,1.3,4.578.906s4.434-8.716,4.959-9.339A5.739,5.739,0,0,0,126.082,129.111Z" transform="translate(-100.15 -119.509)" fill="#4a2c20"/>
        <path id="Path_1407" data-name="Path 1407" d="M176.618,141c1.206-2.213,4.013-7.978,4.447-8.492a5.739,5.739,0,0,0,.715-3.4,3.334,3.334,0,0,1,.123-1.036c-.212.278-.552.808-.934,1.433-1.188,2.325-2.466,4.839-2.837,5.352A19.84,19.84,0,0,0,176.618,141Z" transform="translate(-155.848 -119.509)" fill="#29150e"/>
        <path id="Path_1408" data-name="Path 1408" d="M112.521,109.938c-.572.623-3.076,3.113-2.456,3.113a13.356,13.356,0,0,1,2.79,1.132,36.568,36.568,0,0,0,4.625,1.755c1.192.227,6.533,1.189,7.2,1.189s2.432.679,2.861.4a22.4,22.4,0,0,0,2.1-2.377c.429-.509,1.049-1.754,1-1.415a16.12,16.12,0,0,1-1.574,2.773c-.572.849-1.1,2.094-1.382,2.094a18.056,18.056,0,0,0-3.243-.962c-1.192-.057-5.96-1.019-6.723-1.189s-4.673-1.7-5.007-1.868-.572-.283-.572-.283-2.622-.736-2.909-.849S111.185,110.674,112.521,109.938Z" transform="translate(-106.282 -107.072)" fill="#a3725d"/>
        <path id="Path_1409" data-name="Path 1409" d="M176.272,149.112c-1,1.358-.858,4.839-1.5,6.622" transform="translate(-154.489 -133.936)" fill="none"/>
        <path id="Path_1410" data-name="Path 1410" d="M169.7,149.2a2.06,2.06,0,0,0-.644.764,24.422,24.422,0,0,1-1.9,2.929" transform="translate(-148.895 -133.999)" fill="none"/>
        <path id="Path_1411" data-name="Path 1411" d="M164.937,147.988a16.428,16.428,0,0,0-1.288,1.188" transform="translate(-146.312 -133.165)" fill="none"/>
        <path id="Path_1412" data-name="Path 1412" d="M155.139,144.746c.5.127,1.037.255,1.538.382" transform="translate(-140.055 -130.942)" fill="none"/>
        <path id="Path_1413" data-name="Path 1413" d="M122.852,106.925a3.762,3.762,0,0,0,.716-.679" transform="translate(-116.316 -104.54)" fill="none"/>
        <path id="Path_1414" data-name="Path 1414" d="M185.669,116.918c.214.085.787.212.93.425.214.425-.537,1.231-.751,1.656" transform="translate(-162.503 -111.858)" fill="none"/>
      </g>
      <g id="Group_112" data-name="Group 112" transform="translate(0 8.927)">
        <path id="Path_1415" data-name="Path 1415" d="M44.33,170.811c-.179-1.274-1.395-3.863-.751-4.8s3.862-3.056,5.15-4.669,7.582-8.32,9.8-8.575,4.077-.594,4.077-.594c1,1.188,7.081,12.565,7.152,13.329s-1.931,4.415-5.221,6.537a29.722,29.722,0,0,0-7.367,6.367,23.079,23.079,0,0,1-5.436,4.33c-1.359-.34-3.862-5.773-5.15-7.3A17.58,17.58,0,0,1,44.33,170.811Z" transform="translate(-43.378 -152.176)" fill="#754f42"/>
        <path id="Path_1416" data-name="Path 1416" d="M44.392,203.435a17.58,17.58,0,0,0,2.253,4.627c.775.919,1.989,3.252,3.131,5.039a35.462,35.462,0,0,0-1.128-3.808c-.393-.934-1.609-2.674-2.754-4.839-1.1-2.084-1.674-3.186-2.417-4.7C43.6,200.921,44.263,202.518,44.392,203.435Z" transform="translate(-43.44 -184.8)" fill="#5e382a"/>
        <path id="Path_1417" data-name="Path 1417" d="M84.972,165.5c-.071-.764-6.151-12.14-7.152-13.329,0,0-.815.148-2.008.323-.8.453-1.017.931-.245,2.267.858,1.485,3,5.73,3.362,6.41a3.3,3.3,0,0,1,.429,1.953c-.143.255-2.217,1.953-3.255,3.141s-4.756,5.009-5.615,5.773-4.578,3.651-5.185,4.16-1.18.934-1.216,1.486a11.423,11.423,0,0,0,.349,1.994c.927,1.532,1.854,2.892,2.512,3.057a23.079,23.079,0,0,0,5.436-4.33,29.722,29.722,0,0,1,7.367-6.367C83.041,169.919,85.043,166.269,84.972,165.5Z" transform="translate(-58.593 -152.176)" fill="#5e382a"/>
        <path id="Path_1418" data-name="Path 1418" d="M85.566,183.957c-.62.17-2.05,1.811-2.957,2.6a32.177,32.177,0,0,0-4.434,4.358,27.619,27.619,0,0,1-3.767,4.018c-.954.849-3.147.962-4.291,2.773a9.047,9.047,0,0,1-2.908,2.773c-.31.263,1.069,2.629,1.8,3.961a.884.884,0,0,0,.2.086,23.08,23.08,0,0,0,5.436-4.33,29.722,29.722,0,0,1,7.367-6.367c3.29-2.122,5.293-5.773,5.221-6.537a25.767,25.767,0,0,0-1.561-3.33A.19.19,0,0,0,85.566,183.957Z" transform="translate(-60.855 -173.968)" fill="#4a2c20"/>
        <path id="Path_1419" data-name="Path 1419" d="M43.347,184.711c.763,1.7,4.387,9.169,4.912,9.9a4.481,4.481,0,0,1,.572,1.811c.715-.566,1.144-.509,1.717-1.924s3.528-2.037,5.912-4.584,5.388-6.282,6.008-6.849a15.128,15.128,0,0,0,1.741-1.768c.047-.17-1.359-3.269-1.323-2.589.041.787.918,2.207.441,2.66a52.841,52.841,0,0,0-3.958,4.245c-.715,1.019-5.2,4.641-6.1,5.433s-3.481,2.717-3.91,3-3.29-4.754-4.005-6.226S43.2,184.145,43.347,184.711Z" transform="translate(-43.337 -170.307)" fill="#a3725d"/>
        <path id="Path_1420" data-name="Path 1420" d="M116.054,152.355a56.606,56.606,0,0,1,4.268,7.273c1.015,2.162,1.979,3.933,3.051,6.055" transform="translate(-96.803 -152.299)" fill="none"/>
        <path id="Path_1421" data-name="Path 1421" d="M122.9,181.534a2.055,2.055,0,0,0,2.5.594" transform="translate(-101.835 -172.309)" fill="none"/>
        <path id="Path_1422" data-name="Path 1422" d="M119.476,175.816a1.957,1.957,0,0,0,1,1.316" transform="translate(-99.319 -168.388)" fill="none"/>
        <path id="Path_1423" data-name="Path 1423" d="M127.31,181.22a1.238,1.238,0,0,0,.68.128" transform="translate(-105.079 -172.094)" fill="none"/>
        <path id="Path_1424" data-name="Path 1424" d="M119.3,189.46a3.263,3.263,0,0,0-1.18,1.061" transform="translate(-98.326 -177.744)" fill="none"/>
        <path id="Path_1425" data-name="Path 1425" d="M110.274,198.241a9.445,9.445,0,0,0-.929,1.188" transform="translate(-91.87 -183.766)" fill="none"/>
        <path id="Path_1426" data-name="Path 1426" d="M105.209,206.076a.914.914,0,0,1-.322.509" transform="translate(-88.593 -189.139)" fill="none"/>
        <path id="Path_1427" data-name="Path 1427" d="M76.546,229.716c-.394,1.146-.036,2.547-.036,3.736" transform="translate(-67.618 -205.351)" fill="none"/>
        <path id="Path_1428" data-name="Path 1428" d="M86.463,223.367c-.429,1.316-.072,2.844-.107,4.2" transform="translate(-74.889 -200.997)" fill="none"/>
        <path id="Path_1429" data-name="Path 1429" d="M82.462,231.743v.509" transform="translate(-72.104 -206.741)" fill="none"/>
        <path id="Path_1430" data-name="Path 1430" d="M120.969,208.862c.358-.721.465-2.5-.143-3.056" transform="translate(-100.312 -188.954)" fill="none"/>
        <path id="Path_1431" data-name="Path 1431" d="M124.248,205.5a2.9,2.9,0,0,0-.179-.509" transform="translate(-102.696 -188.398)" fill="none"/>
        <path id="Path_1432" data-name="Path 1432" d="M79.428,228.77a4.339,4.339,0,0,0-.143,2.335" transform="translate(-69.678 -204.702)" fill="none"/>
        <path id="Path_1433" data-name="Path 1433" d="M108.425,156.665c-.286-.806,1.073-.934,1.466-.976" transform="translate(-91.165 -154.585)" fill="none"/>
        <path id="Path_1434" data-name="Path 1434" d="M105.02,162.172a6.216,6.216,0,0,0,1.288,1.953,7.057,7.057,0,0,1,1.287,2.717" transform="translate(-88.69 -159.031)" fill="none"/>
      </g>
    </g>
  </g>
</svg>
