<svg id="frappe" xmlns="http://www.w3.org/2000/svg" xmlns:xlink="http://www.w3.org/1999/xlink" width="81.811" height="179.508" viewBox="0 0 81.811 179.508">
  <defs>
    <linearGradient id="linear-gradient" x1="1.323" y1="0.411" x2="1.323" y2="1.582" gradientUnits="objectBoundingBox">
      <stop offset="0" stop-color="#fff"/>
      <stop offset="1" stop-color="#fff" stop-opacity="0"/>
    </linearGradient>
    <linearGradient id="linear-gradient-2" x1="0.517" y1="-0.521" x2="0.487" y2="1.408" xlink:href="#linear-gradient"/>
    <linearGradient id="linear-gradient-3" x1="0.553" y1="-1.03" x2="0.485" y2="0.846" xlink:href="#linear-gradient"/>
    <linearGradient id="linear-gradient-4" x1="-0.31" y1="1.142" x2="0.903" y2="0.181" xlink:href="#linear-gradient"/>
    <linearGradient id="linear-gradient-5" x1="-0.304" y1="1.148" x2="0.785" y2="0.187" xlink:href="#linear-gradient"/>
    <linearGradient id="linear-gradient-6" x1="0.493" y1="-0.327" x2="0.508" y2="0.57" xlink:href="#linear-gradient"/>
    <linearGradient id="linear-gradient-7" x1="0.487" y1="-0.331" x2="0.501" y2="0.567" xlink:href="#linear-gradient"/>
    <linearGradient id="linear-gradient-8" x1="0.483" y1="1.424" x2="0.495" y2="0.437" xlink:href="#linear-gradient"/>
    <linearGradient id="linear-gradient-9" x1="0.492" y1="-1.258" x2="0.517" y2="2.538" xlink:href="#linear-gradient"/>
    <linearGradient id="linear-gradient-10" x1="0.44" y1="-4.636" x2="0.525" y2="2.891" xlink:href="#linear-gradient"/>
    <linearGradient id="linear-gradient-11" x1="0.493" y1="-0.964" x2="0.51" y2="1.651" xlink:href="#linear-gradient"/>
    <linearGradient id="linear-gradient-12" x1="-187.008" y1="-0.964" x2="-186.99" y2="1.651" xlink:href="#linear-gradient"/>
    <linearGradient id="linear-gradient-13" y1="0.5" x2="1" y2="0.5" gradientUnits="objectBoundingBox">
      <stop offset="0" stop-color="#b3b3b3"/>
      <stop offset="1" stop-color="#b3b3b3" stop-opacity="0"/>
    </linearGradient>
    <linearGradient id="linear-gradient-14" x1="-94.624" y1="0.5" x2="-93.624" y2="0.5" xlink:href="#linear-gradient"/>
    <linearGradient id="linear-gradient-15" x1="0.399" y1="-0.399" x2="0.566" y2="1.088" xlink:href="#linear-gradient"/>
    <linearGradient id="linear-gradient-16" x1="0.342" y1="-0.4" x2="0.603" y2="1.088" xlink:href="#linear-gradient"/>
    <linearGradient id="linear-gradient-17" x1="0.5" y1="-0.083" x2="0.517" y2="2.904" xlink:href="#linear-gradient-13"/>
    <linearGradient id="linear-gradient-18" x1="0.589" y1="3.061" x2="0.436" y2="-0.793" gradientUnits="objectBoundingBox">
      <stop offset="0" stop-color="#c35528"/>
      <stop offset="1" stop-color="#c35528" stop-opacity="0"/>
    </linearGradient>
    <linearGradient id="linear-gradient-19" x1="0.655" y1="3.163" x2="0.46" y2="-0.816" xlink:href="#linear-gradient-18"/>
    <linearGradient id="linear-gradient-20" x1="0.577" y1="3.209" x2="0.448" y2="-0.836" xlink:href="#linear-gradient-18"/>
    <linearGradient id="linear-gradient-21" x1="0.156" y1="-0.315" x2="0.763" y2="0.999" xlink:href="#linear-gradient-13"/>
  </defs>
  <g id="Group_12" data-name="Group 12" transform="translate(0 0)">
    <g id="Group_8" data-name="Group 8" transform="translate(0 21.789)">
      <path id="Path_31" data-name="Path 31" d="M146.451,144.794l2.814-40.945h-81.8l2.814,40.945h0l4.877,70.965,17.884,7.186.7.283h29.243l.14-.056.571-.229v0l17.884-7.186,4.22-61.412-.007.006.657-9.56Z" transform="translate(-67.459 -96.295)" fill="#ccc"/>
      <path id="Path_32" data-name="Path 32" d="M144.844,145.585l2.7-39.217H69.19l2.7,39.217h0l4.671,67.97,17.13,6.883.674.271h28.009l.134-.054.547-.22v0l17.13-6.883,4.042-58.82-.007.006.629-9.156Z" transform="translate(-67.459 -96.295)" fill="#999"/>
      <path id="Path_33" data-name="Path 33" d="M121.868,110.118H70.949l7.035,102.374,16.36,6.574.644.259H121.74l.128-.052,16.876-6.781,7.035-102.374Z" transform="translate(-67.459 -96.295)" fill="#c35528"/>
      <path id="Path_34" data-name="Path 34" d="M70.083,103.52l3.44,44.054c1.056,3.363,16.248,6.031,34.841,6.031s33.786-2.668,34.842-6.031l3.44-44.054Z" transform="translate(-67.459 -96.295)" fill="#ffaf78"/>
      <g id="Group_3" data-name="Group 3" transform="translate(29.468 21.13)">
        <g id="Group_2" data-name="Group 2">
          <g id="Group_1" data-name="Group 1">
            <path id="Path_35" data-name="Path 35" d="M143.169,118.882c-.487-1.568-1.928-1.549-3.5-1.384-5.627.591-11.256,1.279-16.888,1.773-1.627.143-3.408.114-4.285,2.009-.61,1.318-.742,15.865-.825,18.206-.072,2.053-.238,3.852,2.269,4.243,1.513.236,12.169-1.025,17.96-1.743a4.737,4.737,0,0,0,4.1-4.228C142.589,131.8,143.6,120.663,143.169,118.882Z" transform="translate(-96.927 -117.424)" fill="url(#linear-gradient)"/>
            <path id="Path_36" data-name="Path 36" d="M112.28,131.24a3.5,3.5,0,0,1,1.5.246c1.557.7,1.145,3.145,1.183,4.512l.174,6.382c.029,1.075-.007,2.3-.826,3a3.652,3.652,0,0,1-2.258.608c-2.194.1-10.613.138-12.49-.109a3.012,3.012,0,0,1-2.146-1.2,4.5,4.5,0,0,1-.48-2.609c.061-3.151-.078-6.385.1-9.516.12-2.111,3.569-1.384,5.133-1.411C105.594,131.086,112.04,131.244,112.28,131.24Z" transform="translate(-96.927 -117.424)" fill="url(#linear-gradient-2)"/>
          </g>
        </g>
      </g>
      <path id="Path_37" data-name="Path 37" d="M122.512,153.055c-4.325.352-9.11.55-14.148.55-5.069,0-9.883-.2-14.229-.557l.21,66.018.644.259H121.74l.128-.051.522-.21Z" transform="translate(-67.459 -96.295)" fill="url(#linear-gradient-3)"/>
      <path id="Path_38" data-name="Path 38" d="M94.935,153.1c-.263-.02-.54-.035-.8-.057l.21,66.018.59.237Z" transform="translate(-67.459 -96.295)" fill="url(#linear-gradient-4)"/>
      <path id="Path_39" data-name="Path 39" d="M121.621,153.118v66.207h.119l.128-.051.522-.21.122-66.009C122.222,153.078,121.915,153.1,121.621,153.118Z" transform="translate(-67.459 -96.295)" fill="url(#linear-gradient-5)"/>
      <path id="Path_40" data-name="Path 40" d="M74.123,156.313l3.861,56.179,16.361,6.574V168.039a7.921,7.921,0,0,0-6.861-7.834C80.694,159.273,75.817,157.9,74.123,156.313Z" transform="translate(-67.459 -96.295)" fill="url(#linear-gradient-6)"/>
      <path id="Path_41" data-name="Path 41" d="M142.612,156.313l-3.861,56.179-16.361,6.574V168.039a7.92,7.92,0,0,1,6.861-7.834C136.041,159.273,140.918,157.9,142.612,156.313Z" transform="translate(-67.459 -96.295)" fill="url(#linear-gradient-7)"/>
      <path id="Path_42" data-name="Path 42" d="M143.212,147.771l3.1-39.69H70.417l3.1,39.69c3.085,3,17.5,5.278,34.848,5.278S140.128,150.774,143.212,147.771Z" transform="translate(-67.459 -96.295)" fill="url(#linear-gradient-8)"/>
      <g id="Group_4" data-name="Group 4" transform="translate(3.759 10.199)" opacity="0.3">
        <path id="Path_43" data-name="Path 43" d="M76.8,109.922a1.021,1.021,0,0,0,0,2.041A1.021,1.021,0,0,0,76.8,109.922Z" transform="translate(-71.218 -106.493)" fill="#ba4d20"/>
        <path id="Path_44" data-name="Path 44" d="M80.663,115.477a.794.794,0,0,0,0,1.587A.794.794,0,0,0,80.663,115.477Z" transform="translate(-71.218 -106.493)" fill="#ba4d20"/>
        <path id="Path_45" data-name="Path 45" d="M84.266,111.775l-.146-.065a1.026,1.026,0,1,0,0,1.771l.146-.065A.955.955,0,0,0,84.266,111.775Z" transform="translate(-71.218 -106.493)" fill="#ba4d20"/>
        <path id="Path_46" data-name="Path 46" d="M93.707,115.731a.908.908,0,0,0,0,1.814A.908.908,0,0,0,93.707,115.731Z" transform="translate(-71.218 -106.493)" fill="#ba4d20"/>
        <path id="Path_47" data-name="Path 47" d="M121.688,115c-.439-.607-1.516-.271-1.281.54C120.705,116.565,122.267,115.8,121.688,115Z" transform="translate(-71.218 -106.493)" fill="#ba4d20"/>
        <path id="Path_48" data-name="Path 48" d="M130.636,114.721a.815.815,0,0,0,0,1.629A.815.815,0,0,0,130.636,114.721Z" transform="translate(-71.218 -106.493)" fill="#ba4d20"/>
        <path id="Path_49" data-name="Path 49" d="M135.413,111.981a.8.8,0,0,0,0,1.6A.8.8,0,0,0,135.413,111.981Z" transform="translate(-71.218 -106.493)" fill="#ba4d20"/>
        <path id="Path_50" data-name="Path 50" d="M142.4,110.645a.665.665,0,0,0,0,1.33A.665.665,0,0,0,142.4,110.645Z" transform="translate(-71.218 -106.493)" fill="#ba4d20"/>
        <path id="Path_51" data-name="Path 51" d="M129.534,112.53a.066.066,0,0,0,0,.132A.066.066,0,0,0,129.534,112.53Z" transform="translate(-71.218 -106.493)" fill="#ba4d20"/>
        <path id="Path_52" data-name="Path 52" d="M142.027,119.463a.325.325,0,0,0,0,.65A.325.325,0,0,0,142.027,119.463Z" transform="translate(-71.218 -106.493)" fill="#ba4d20"/>
        <path id="Path_53" data-name="Path 53" d="M131.947,113.893a.414.414,0,0,0-.5.648C131.866,114.967,132.475,114.193,131.947,113.893Z" transform="translate(-71.218 -106.493)" fill="#ba4d20"/>
        <path id="Path_54" data-name="Path 54" d="M130.576,125.912a.314.314,0,0,0,.571.241C131.375,125.77,130.717,125.466,130.576,125.912Z" transform="translate(-71.218 -106.493)" fill="#ba4d20"/>
        <path id="Path_55" data-name="Path 55" d="M134.042,130.36a.313.313,0,0,0,0,.625A.313.313,0,0,0,134.042,130.36Z" transform="translate(-71.218 -106.493)" fill="#ba4d20"/>
        <path id="Path_56" data-name="Path 56" d="M134.042,125.457a.263.263,0,0,0,0,.525A.263.263,0,0,0,134.042,125.457Z" transform="translate(-71.218 -106.493)" fill="#ba4d20"/>
        <path id="Path_57" data-name="Path 57" d="M77.539,117.1a.485.485,0,0,0,0,.969A.485.485,0,0,0,77.539,117.1Z" transform="translate(-71.218 -106.493)" fill="#ba4d20"/>
        <path id="Path_58" data-name="Path 58" d="M88.7,121.519a.348.348,0,0,0,0,.695A.348.348,0,0,0,88.7,121.519Z" transform="translate(-71.218 -106.493)" fill="#ba4d20"/>
        <path id="Path_59" data-name="Path 59" d="M93.79,122.23a.049.049,0,0,0,0,.1A.049.049,0,0,0,93.79,122.23Z" transform="translate(-71.218 -106.493)" fill="#ba4d20"/>
        <path id="Path_60" data-name="Path 60" d="M99.219,119.722a.066.066,0,0,0,0,.132A.066.066,0,0,0,99.219,119.722Z" transform="translate(-71.218 -106.493)" fill="#ba4d20"/>
        <path id="Path_61" data-name="Path 61" d="M104.363,116.993a.2.2,0,0,0,0,.392A.2.2,0,0,0,104.363,116.993Z" transform="translate(-71.218 -106.493)" fill="#ba4d20"/>
        <path id="Path_62" data-name="Path 62" d="M99.954,113.987a.263.263,0,0,0,0,.525A.263.263,0,0,0,99.954,113.987Z" transform="translate(-71.218 -106.493)" fill="#ba4d20"/>
        <path id="Path_63" data-name="Path 63" d="M104.915,119.494a.294.294,0,0,0,0,.588A.294.294,0,0,0,104.915,119.494Z" transform="translate(-71.218 -106.493)" fill="#ba4d20"/>
        <path id="Path_64" data-name="Path 64" d="M108.038,117.292a.449.449,0,0,0,0,.9A.449.449,0,0,0,108.038,117.292Z" transform="translate(-71.218 -106.493)" fill="#ba4d20"/>
        <path id="Path_65" data-name="Path 65" d="M110.059,115.8a.475.475,0,0,0,0,.949A.475.475,0,0,0,110.059,115.8Z" transform="translate(-71.218 -106.493)" fill="#ba4d20"/>
        <path id="Path_66" data-name="Path 66" d="M114.652,116.389a.433.433,0,0,0,0,.866A.433.433,0,0,0,114.652,116.389Z" transform="translate(-71.218 -106.493)" fill="#ba4d20"/>
        <path id="Path_67" data-name="Path 67" d="M105.65,115.209a.51.51,0,0,0,0,1.02A.51.51,0,0,0,105.65,115.209Z" transform="translate(-71.218 -106.493)" fill="#ba4d20"/>
        <path id="Path_68" data-name="Path 68" d="M99.171,128.484,99,128.451a.183.183,0,0,0-.223.223l.033.166C98.941,129.467,99.8,128.61,99.171,128.484Z" transform="translate(-71.218 -106.493)" fill="#ba4d20"/>
        <path id="Path_69" data-name="Path 69" d="M88.163,113.145l-.144.067a.351.351,0,0,0,0,.605l.144.067C88.97,114.256,88.97,112.773,88.163,113.145Z" transform="translate(-71.218 -106.493)" fill="#ba4d20"/>
        <path id="Path_70" data-name="Path 70" d="M94.075,112.766a.382.382,0,0,0,0,.763A.382.382,0,0,0,94.075,112.766Z" transform="translate(-71.218 -106.493)" fill="#ba4d20"/>
        <path id="Path_71" data-name="Path 71" d="M89.482,111.763a.1.1,0,0,0,0,.2A.1.1,0,0,0,89.482,111.763Z" transform="translate(-71.218 -106.493)" fill="#ba4d20"/>
        <path id="Path_72" data-name="Path 72" d="M93.462,121.68a.328.328,0,0,0,0,.656A.328.328,0,0,0,93.462,121.68Z" transform="translate(-71.218 -106.493)" fill="#ba4d20"/>
        <path id="Path_73" data-name="Path 73" d="M80.177,110.331a.586.586,0,0,0-.472.3.257.257,0,0,0,0,.26.568.568,0,0,0,.472.3A.439.439,0,1,0,80.177,110.331Z" transform="translate(-71.218 -106.493)" fill="#ba4d20"/>
        <path id="Path_74" data-name="Path 74" d="M72.395,108.384a.17.17,0,0,0,0,.34A.17.17,0,0,0,72.395,108.384Z" transform="translate(-71.218 -106.493)" fill="#ba4d20"/>
        <path id="Path_75" data-name="Path 75" d="M72.088,114.07c-.172.345.255.735.558.431C73.023,114.124,72.315,113.613,72.088,114.07Z" transform="translate(-71.218 -106.493)" fill="#ba4d20"/>
        <path id="Path_76" data-name="Path 76" d="M71.769,111.051c-.376.376.309.911.575.443A.367.367,0,0,0,71.769,111.051Z" transform="translate(-71.218 -106.493)" fill="#ba4d20"/>
        <path id="Path_77" data-name="Path 77" d="M71.447,106.5l-.205.162c-.074.058.044.175.1.1l.162-.206A.041.041,0,0,0,71.447,106.5Z" transform="translate(-71.218 -106.493)" fill="#ba4d20"/>
        <path id="Path_78" data-name="Path 78" d="M75.7,108.061a.309.309,0,0,0,0,.618A.309.309,0,0,0,75.7,108.061Z" transform="translate(-71.218 -106.493)" fill="#ba4d20"/>
        <path id="Path_79" data-name="Path 79" d="M83.6,117.755a.536.536,0,0,0,0,1.072A.536.536,0,0,0,83.6,117.755Z" transform="translate(-71.218 -106.493)" fill="#ba4d20"/>
        <path id="Path_80" data-name="Path 80" d="M81.765,110.082a.309.309,0,0,0,0,.618A.309.309,0,0,0,81.765,110.082Z" transform="translate(-71.218 -106.493)" fill="#ba4d20"/>
        <path id="Path_81" data-name="Path 81" d="M77.172,114.847l-.184.007a.32.32,0,0,0-.314.314l-.007.184a.5.5,0,1,0,.5-.5Z" transform="translate(-71.218 -106.493)" fill="#ba4d20"/>
        <path id="Path_82" data-name="Path 82" d="M125.492,113a.335.335,0,0,0,0,.67A.335.335,0,0,0,125.492,113Z" transform="translate(-71.218 -106.493)" fill="#ba4d20"/>
        <path id="Path_83" data-name="Path 83" d="M138.72,109.422a.418.418,0,0,0,0,.835A.418.418,0,0,0,138.72,109.422Z" transform="translate(-71.218 -106.493)" fill="#ba4d20"/>
        <path id="Path_84" data-name="Path 84" d="M145.518,107.87a.5.5,0,0,0,0,1A.5.5,0,0,0,145.518,107.87Z" transform="translate(-71.218 -106.493)" fill="#ba4d20"/>
        <path id="Path_85" data-name="Path 85" d="M144.416,115.4a.134.134,0,0,0,0,.268A.134.134,0,0,0,144.416,115.4Z" transform="translate(-71.218 -106.493)" fill="#ba4d20"/>
        <path id="Path_86" data-name="Path 86" d="M138.9,115.839a.248.248,0,0,0,0,.5A.248.248,0,0,0,138.9,115.839Z" transform="translate(-71.218 -106.493)" fill="#ba4d20"/>
        <path id="Path_87" data-name="Path 87" d="M134.311,119.825a.33.33,0,0,0,0,.66A.33.33,0,0,0,134.311,119.825Z" transform="translate(-71.218 -106.493)" fill="#ba4d20"/>
        <path id="Path_88" data-name="Path 88" d="M105.793,122.853a.286.286,0,0,0,0,.571A.286.286,0,0,0,105.793,122.853Z" transform="translate(-71.218 -106.493)" fill="#ba4d20"/>
        <path id="Path_89" data-name="Path 89" d="M116.43,124.982a.05.05,0,0,0,0,.1A.05.05,0,0,0,116.43,124.982Z" transform="translate(-71.218 -106.493)" fill="#ba4d20"/>
        <path id="Path_90" data-name="Path 90" d="M115.2,119.6a.186.186,0,0,0,0,.372A.186.186,0,0,0,115.2,119.6Z" transform="translate(-71.218 -106.493)" fill="#ba4d20"/>
        <path id="Path_91" data-name="Path 91" d="M120.558,127.522a.124.124,0,0,0,0,.247A.124.124,0,0,0,120.558,127.522Z" transform="translate(-71.218 -106.493)" fill="#ba4d20"/>
        <path id="Path_92" data-name="Path 92" d="M124.206,118.472a.4.4,0,0,0,0,.794A.4.4,0,0,0,124.206,118.472Z" transform="translate(-71.218 -106.493)" fill="#ba4d20"/>
        <path id="Path_93" data-name="Path 93" d="M111.615,127.122l-.275.007a.38.38,0,0,0,0,.759l.275.006A.386.386,0,0,0,111.615,127.122Z" transform="translate(-71.218 -106.493)" fill="#ba4d20"/>
        <path id="Path_94" data-name="Path 94" d="M116.9,123.97a.435.435,0,0,0,.333.791C117.84,124.593,117.443,123.639,116.9,123.97Z" transform="translate(-71.218 -106.493)" fill="#ba4d20"/>
        <path id="Path_95" data-name="Path 95" d="M99.369,124.785a.247.247,0,0,0,0,.494A.247.247,0,0,0,99.369,124.785Z" transform="translate(-71.218 -106.493)" fill="#ba4d20"/>
        <path id="Path_96" data-name="Path 96" d="M110.448,123.537l-.037.058a.119.119,0,0,0,0,.121l.037.059a.236.236,0,1,0,0-.238Z" transform="translate(-71.218 -106.493)" fill="#ba4d20"/>
        <path id="Path_97" data-name="Path 97" d="M98.117,120.009a.33.33,0,0,0,0,.66A.33.33,0,0,0,98.117,120.009Z" transform="translate(-71.218 -106.493)" fill="#ba4d20"/>
        <path id="Path_98" data-name="Path 98" d="M91.254,120.982l-.069.068a.184.184,0,0,0,0,.257l.069.068a.278.278,0,1,0,0-.393Z" transform="translate(-71.218 -106.493)" fill="#ba4d20"/>
        <path id="Path_99" data-name="Path 99" d="M92.6,125.819a.825.825,0,0,0-.306.113.234.234,0,0,0,0,.4.841.841,0,0,0,.306.112A.321.321,0,1,0,92.6,125.819Z" transform="translate(-71.218 -106.493)" fill="#ba4d20"/>
        <path id="Path_100" data-name="Path 100" d="M83.195,124.4a.216.216,0,0,0,0,.432A.216.216,0,0,0,83.195,124.4Z" transform="translate(-71.218 -106.493)" fill="#ba4d20"/>
        <path id="Path_101" data-name="Path 101" d="M85.744,122.569l-.162-.048a.179.179,0,0,0-.219.218l.049.162C85.575,123.449,86.292,122.732,85.744,122.569Z" transform="translate(-71.218 -106.493)" fill="#ba4d20"/>
        <path id="Path_102" data-name="Path 102" d="M74.232,117.411a.356.356,0,0,0,0,.712A.356.356,0,0,0,74.232,117.411Z" transform="translate(-71.218 -106.493)" fill="#ba4d20"/>
        <path id="Path_103" data-name="Path 103" d="M88.563,118.989a.248.248,0,0,0,0,.5A.248.248,0,0,0,88.563,118.989Z" transform="translate(-71.218 -106.493)" fill="#ba4d20"/>
        <path id="Path_104" data-name="Path 104" d="M95.909,127.313a.248.248,0,0,0,0,.5A.248.248,0,0,0,95.909,127.313Z" transform="translate(-71.218 -106.493)" fill="#ba4d20"/>
        <path id="Path_105" data-name="Path 105" d="M98.956,131.286a.374.374,0,0,0,0,.747A.374.374,0,0,0,98.956,131.286Z" transform="translate(-71.218 -106.493)" fill="#ba4d20"/>
        <path id="Path_106" data-name="Path 106" d="M101.725,125.461a.415.415,0,0,0,0,.829A.415.415,0,0,0,101.725,125.461Z" transform="translate(-71.218 -106.493)" fill="#ba4d20"/>
        <path id="Path_107" data-name="Path 107" d="M88.826,131.842l-.056-.072a.3.3,0,0,0-.518,0l-.056.072c-.174.228.064.549.315.549S89,132.07,88.826,131.842Z" transform="translate(-71.218 -106.493)" fill="#ba4d20"/>
        <path id="Path_108" data-name="Path 108" d="M79.917,120.42a.257.257,0,0,0,0,.514A.257.257,0,0,0,79.917,120.42Z" transform="translate(-71.218 -106.493)" fill="#ba4d20"/>
        <path id="Path_109" data-name="Path 109" d="M81.724,124.167a.453.453,0,0,0,0,.9A.453.453,0,0,0,81.724,124.167Z" transform="translate(-71.218 -106.493)" fill="#ba4d20"/>
        <path id="Path_110" data-name="Path 110" d="M72.2,118.346a.367.367,0,0,0,0,.733A.367.367,0,0,0,72.2,118.346Z" transform="translate(-71.218 -106.493)" fill="#ba4d20"/>
        <path id="Path_111" data-name="Path 111" d="M84.308,121.306a.318.318,0,0,0,0,.636A.318.318,0,0,0,84.308,121.306Z" transform="translate(-71.218 -106.493)" fill="#ba4d20"/>
        <path id="Path_112" data-name="Path 112" d="M83.783,129.519a.3.3,0,0,0,0,.6A.3.3,0,0,0,83.783,129.519Z" transform="translate(-71.218 -106.493)" fill="#ba4d20"/>
        <path id="Path_113" data-name="Path 113" d="M88.2,126.965a.228.228,0,0,0,0,.456A.228.228,0,0,0,88.2,126.965Z" transform="translate(-71.218 -106.493)" fill="#ba4d20"/>
        <path id="Path_114" data-name="Path 114" d="M91.553,128.831a.7.7,0,0,0-.481-.038.279.279,0,0,0-.165.407.776.776,0,0,0,.462.3C91.787,129.65,91.982,128.965,91.553,128.831Z" transform="translate(-71.218 -106.493)" fill="#ba4d20"/>
        <path id="Path_115" data-name="Path 115" d="M85.073,125.687l-.053-.074a.22.22,0,0,0-.373,0l-.053.074a.277.277,0,1,0,.479,0Z" transform="translate(-71.218 -106.493)" fill="#ba4d20"/>
        <path id="Path_116" data-name="Path 116" d="M85.464,131.464a.037.037,0,0,0,0,.074A.037.037,0,0,0,85.464,131.464Z" transform="translate(-71.218 -106.493)" fill="#ba4d20"/>
        <path id="Path_117" data-name="Path 117" d="M90.192,123.72a.426.426,0,0,0,0,.852A.426.426,0,0,0,90.192,123.72Z" transform="translate(-71.218 -106.493)" fill="#ba4d20"/>
        <path id="Path_118" data-name="Path 118" d="M99.582,135.358a.412.412,0,1,0,.319.757A.412.412,0,0,0,99.582,135.358Z" transform="translate(-71.218 -106.493)" fill="#ba4d20"/>
        <path id="Path_119" data-name="Path 119" d="M96.225,132.261a.449.449,0,0,0,0,.9A.449.449,0,0,0,96.225,132.261Z" transform="translate(-71.218 -106.493)" fill="#ba4d20"/>
        <path id="Path_120" data-name="Path 120" d="M93.97,123.989a.425.425,0,0,0-.215-.215c-.227-.133-.429.246-.2.343a.51.51,0,0,0,.343.052A.124.124,0,0,0,93.97,123.989Z" transform="translate(-71.218 -106.493)" fill="#ba4d20"/>
        <path id="Path_121" data-name="Path 121" d="M77.119,120.188a.348.348,0,0,0,.148.679A.348.348,0,0,0,77.119,120.188Z" transform="translate(-71.218 -106.493)" fill="#ba4d20"/>
        <path id="Path_122" data-name="Path 122" d="M81.849,123.558a.833.833,0,0,0-.275.175.233.233,0,0,0,.085.391.838.838,0,0,0,.323.045A.321.321,0,1,0,81.849,123.558Z" transform="translate(-71.218 -106.493)" fill="#ba4d20"/>
        <path id="Path_123" data-name="Path 123" d="M72.355,124.176a.217.217,0,0,0,.092.423A.217.217,0,0,0,72.355,124.176Z" transform="translate(-71.218 -106.493)" fill="#ba4d20"/>
        <path id="Path_124" data-name="Path 124" d="M74.455,121.843l-.169-.013a.179.179,0,0,0-.167.26l.082.148C74.477,122.739,75.025,121.885,74.455,121.843Z" transform="translate(-71.218 -106.493)" fill="#ba4d20"/>
        <path id="Path_125" data-name="Path 125" d="M79.44,130.247l-.069-.059a.307.307,0,0,0-.507.111l-.039.082c-.122.26.179.523.424.47A.368.368,0,0,0,79.44,130.247Z" transform="translate(-71.218 -106.493)" fill="#ba4d20"/>
        <path id="Path_126" data-name="Path 126" d="M72.783,120.914a.319.319,0,0,0,.136.622A.319.319,0,0,0,72.783,120.914Z" transform="translate(-71.218 -106.493)" fill="#ba4d20"/>
        <path id="Path_127" data-name="Path 127" d="M74.018,129.051a.3.3,0,0,0,.128.587A.3.3,0,0,0,74.018,129.051Z" transform="translate(-71.218 -106.493)" fill="#ba4d20"/>
        <path id="Path_128" data-name="Path 128" d="M77.786,125.616a.228.228,0,0,0,.1.445A.228.228,0,0,0,77.786,125.616Z" transform="translate(-71.218 -106.493)" fill="#ba4d20"/>
        <path id="Path_129" data-name="Path 129" d="M81.464,126.725a.7.7,0,0,0-.478.065.28.28,0,0,0-.075.433.787.787,0,0,0,.515.195C81.867,127.475,81.911,126.764,81.464,126.725Z" transform="translate(-71.218 -106.493)" fill="#ba4d20"/>
        <path id="Path_130" data-name="Path 130" d="M74.463,125.032l-.068-.061a.219.219,0,0,0-.364.079l-.036.084a.277.277,0,1,0,.468-.1Z" transform="translate(-71.218 -106.493)" fill="#ba4d20"/>
        <path id="Path_131" data-name="Path 131" d="M76.075,130.593a.037.037,0,0,0,.016.073A.037.037,0,0,0,76.075,130.593Z" transform="translate(-71.218 -106.493)" fill="#ba4d20"/>
        <path id="Path_132" data-name="Path 132" d="M79.046,122.02a.427.427,0,0,0,.182.833A.427.427,0,0,0,79.046,122.02Z" transform="translate(-71.218 -106.493)" fill="#ba4d20"/>
        <path id="Path_133" data-name="Path 133" d="M96.33,124.167a.347.347,0,0,0,0,.694A.347.347,0,0,0,96.33,124.167Z" transform="translate(-71.218 -106.493)" fill="#ba4d20"/>
        <path id="Path_134" data-name="Path 134" d="M109.884,133.717a.359.359,0,0,0,0,.718A.359.359,0,0,0,109.884,133.717Z" transform="translate(-71.218 -106.493)" fill="#ba4d20"/>
        <path id="Path_135" data-name="Path 135" d="M104.667,130.318a.286.286,0,0,0,0,.572A.286.286,0,0,0,104.667,130.318Z" transform="translate(-71.218 -106.493)" fill="#ba4d20"/>
        <path id="Path_136" data-name="Path 136" d="M103.2,127.2a.038.038,0,0,0,0,.075A.038.038,0,0,0,103.2,127.2Z" transform="translate(-71.218 -106.493)" fill="#ba4d20"/>
        <path id="Path_137" data-name="Path 137" d="M102.356,121.906a.292.292,0,0,0,0,.584A.292.292,0,0,0,102.356,121.906Z" transform="translate(-71.218 -106.493)" fill="#ba4d20"/>
        <path id="Path_138" data-name="Path 138" d="M107.714,127.046a.3.3,0,0,0,0,.6A.3.3,0,0,0,107.714,127.046Z" transform="translate(-71.218 -106.493)" fill="#ba4d20"/>
        <path id="Path_139" data-name="Path 139" d="M118.5,132.342a.263.263,0,0,0,0,.525A.263.263,0,0,0,118.5,132.342Z" transform="translate(-71.218 -106.493)" fill="#ba4d20"/>
        <path id="Path_140" data-name="Path 140" d="M115.243,128.814a.219.219,0,0,0,0,.437A.219.219,0,0,0,115.243,128.814Z" transform="translate(-71.218 -106.493)" fill="#ba4d20"/>
        <path id="Path_141" data-name="Path 141" d="M123.018,126.336a.28.28,0,0,0,0,.56A.28.28,0,0,0,123.018,126.336Z" transform="translate(-71.218 -106.493)" fill="#ba4d20"/>
        <path id="Path_142" data-name="Path 142" d="M117.659,118.023a.269.269,0,0,0,0,.537A.269.269,0,0,0,117.659,118.023Z" transform="translate(-71.218 -106.493)" fill="#ba4d20"/>
        <path id="Path_143" data-name="Path 143" d="M123.989,132.646c-.239.41.444.731.614.258C124.73,132.548,124.18,132.32,123.989,132.646Z" transform="translate(-71.218 -106.493)" fill="#ba4d20"/>
        <path id="Path_144" data-name="Path 144" d="M128.8,126.727a.309.309,0,0,0,0,.618A.309.309,0,0,0,128.8,126.727Z" transform="translate(-71.218 -106.493)" fill="#ba4d20"/>
        <path id="Path_145" data-name="Path 145" d="M124.594,124.582a.038.038,0,0,0,0,.075A.038.038,0,0,0,124.594,124.582Z" transform="translate(-71.218 -106.493)" fill="#ba4d20"/>
        <path id="Path_146" data-name="Path 146" d="M127.536,129.643a.336.336,0,0,0,0,.671A.336.336,0,0,0,127.536,129.643Z" transform="translate(-71.218 -106.493)" fill="#ba4d20"/>
        <path id="Path_147" data-name="Path 147" d="M122.073,129.508a.26.26,0,0,0,0,.52A.26.26,0,0,0,122.073,129.508Z" transform="translate(-71.218 -106.493)" fill="#ba4d20"/>
        <path id="Path_148" data-name="Path 148" d="M129.007,134.123a.373.373,0,0,0,0,.746A.373.373,0,0,0,129.007,134.123Z" transform="translate(-71.218 -106.493)" fill="#ba4d20"/>
        <path id="Path_149" data-name="Path 149" d="M125.33,125.084a.376.376,0,0,0,0,.752A.376.376,0,0,0,125.33,125.084Z" transform="translate(-71.218 -106.493)" fill="#ba4d20"/>
        <path id="Path_150" data-name="Path 150" d="M123.208,123.12a.283.283,0,0,0-.5.078.333.333,0,0,0,.092.354C123.107,123.849,123.481,123.354,123.208,123.12Z" transform="translate(-71.218 -106.493)" fill="#ba4d20"/>
        <path id="Path_151" data-name="Path 151" d="M138.284,118.366a.347.347,0,0,0,0,.693A.347.347,0,0,0,138.284,118.366Z" transform="translate(-71.218 -106.493)" fill="#ba4d20"/>
        <path id="Path_152" data-name="Path 152" d="M144.42,117.207l-.069-.071a.449.449,0,0,0-.628,0l-.069.071a.542.542,0,1,0,.766,0Z" transform="translate(-71.218 -106.493)" fill="#ba4d20"/>
        <path id="Path_153" data-name="Path 153" d="M133.5,136.189c-.134.375.446.614.646.272C134.4,136.029,133.678,135.691,133.5,136.189Z" transform="translate(-71.218 -106.493)" fill="#ba4d20"/>
        <path id="Path_154" data-name="Path 154" d="M131.186,131.386l-.051-.075a.277.277,0,0,0-.473,0l-.05.075a.333.333,0,1,0,.574,0Z" transform="translate(-71.218 -106.493)" fill="#ba4d20"/>
        <path id="Path_155" data-name="Path 155" d="M130.373,128.723a.2.2,0,0,0,0,.409A.2.2,0,0,0,130.373,128.723Z" transform="translate(-71.218 -106.493)" fill="#ba4d20"/>
        <path id="Path_156" data-name="Path 156" d="M128.556,118.294a.314.314,0,0,0,.571.241C129.355,118.152,128.7,117.848,128.556,118.294Z" transform="translate(-71.218 -106.493)" fill="#ba4d20"/>
        <path id="Path_157" data-name="Path 157" d="M126.777,119.109a.309.309,0,0,0,0,.618A.309.309,0,0,0,126.777,119.109Z" transform="translate(-71.218 -106.493)" fill="#ba4d20"/>
        <path id="Path_158" data-name="Path 158" d="M129.166,123.768l-.051-.075a.277.277,0,0,0-.473,0l-.051.075a.333.333,0,1,0,.575,0Z" transform="translate(-71.218 -106.493)" fill="#ba4d20"/>
        <path id="Path_159" data-name="Path 159" d="M128.353,121.105a.2.2,0,0,0,0,.409A.2.2,0,0,0,128.353,121.105Z" transform="translate(-71.218 -106.493)" fill="#ba4d20"/>
        <path id="Path_160" data-name="Path 160" d="M134.471,127.658a.324.324,0,0,0,0,.648A.324.324,0,0,0,134.471,127.658Z" transform="translate(-71.218 -106.493)" fill="#ba4d20"/>
        <path id="Path_161" data-name="Path 161" d="M138.732,122.347a.315.315,0,0,0,.572.241C139.532,122.205,138.873,121.9,138.732,122.347Z" transform="translate(-71.218 -106.493)" fill="#ba4d20"/>
        <path id="Path_162" data-name="Path 162" d="M142.2,126.795a.313.313,0,0,0,0,.626A.313.313,0,0,0,142.2,126.795Z" transform="translate(-71.218 -106.493)" fill="#ba4d20"/>
        <path id="Path_163" data-name="Path 163" d="M142.2,121.892a.263.263,0,0,0,0,.525A.263.263,0,0,0,142.2,121.892Z" transform="translate(-71.218 -106.493)" fill="#ba4d20"/>
        <path id="Path_164" data-name="Path 164" d="M136.953,123.162a.309.309,0,0,0,0,.618A.309.309,0,0,0,136.953,123.162Z" transform="translate(-71.218 -106.493)" fill="#ba4d20"/>
        <path id="Path_165" data-name="Path 165" d="M135.693,126.078a.336.336,0,0,0,0,.671A.336.336,0,0,0,135.693,126.078Z" transform="translate(-71.218 -106.493)" fill="#ba4d20"/>
        <path id="Path_166" data-name="Path 166" d="M137.164,130.558a.374.374,0,0,0,0,.747A.374.374,0,0,0,137.164,130.558Z" transform="translate(-71.218 -106.493)" fill="#ba4d20"/>
        <path id="Path_167" data-name="Path 167" d="M133.486,121.519a.376.376,0,0,0,0,.752A.376.376,0,0,0,133.486,121.519Z" transform="translate(-71.218 -106.493)" fill="#ba4d20"/>
        <path id="Path_168" data-name="Path 168" d="M141.657,132.624c-.135.375.445.614.645.272C142.554,132.465,141.835,132.127,141.657,132.624Z" transform="translate(-71.218 -106.493)" fill="#ba4d20"/>
        <path id="Path_169" data-name="Path 169" d="M139.342,127.822l-.05-.076a.279.279,0,0,0-.474,0l-.05.076a.332.332,0,1,0,.574,0Z" transform="translate(-71.218 -106.493)" fill="#ba4d20"/>
        <path id="Path_170" data-name="Path 170" d="M138.53,125.158a.2.2,0,0,0,0,.409A.2.2,0,0,0,138.53,125.158Z" transform="translate(-71.218 -106.493)" fill="#ba4d20"/>
        <path id="Path_171" data-name="Path 171" d="M142.627,124.093a.324.324,0,0,0,0,.648A.324.324,0,0,0,142.627,124.093Z" transform="translate(-71.218 -106.493)" fill="#ba4d20"/>
        <path id="Path_172" data-name="Path 172" d="M123.859,136.277a.321.321,0,0,0,0,.641A.321.321,0,0,0,123.859,136.277Z" transform="translate(-71.218 -106.493)" fill="#ba4d20"/>
        <path id="Path_173" data-name="Path 173" d="M116.714,139.158l-.1,0a.171.171,0,0,0-.167.166l-.005.106a.277.277,0,1,0,.277-.277Z" transform="translate(-71.218 -106.493)" fill="#ba4d20"/>
        <path id="Path_174" data-name="Path 174" d="M113.667,133.174a.272.272,0,0,0,0,.543A.272.272,0,0,0,113.667,133.174Z" transform="translate(-71.218 -106.493)" fill="#ba4d20"/>
      </g>
      <g id="Group_5" data-name="Group 5" transform="translate(5.988 50.604)">
        <path id="Path_175" data-name="Path 175" d="M143.212,147.678c-3.084,3-17.5,5.278-34.848,5.278s-31.763-2.274-34.848-5.278l-.06-.771-.009-.008.112,1.432c3.17,2.984,17.536,5.238,34.805,5.238s31.636-2.254,34.805-5.238l.113-1.432-.009.008Z" transform="translate(-73.447 -146.899)" fill="#fff"/>
      </g>
      <path id="Path_176" data-name="Path 176" d="M121.024,154.473a119.826,119.826,0,0,1-20.058.368c4.423,1.174,9.36,2.17,13.514,3.1.008,5.607-.212,12.077-.214,17.685a1.69,1.69,0,0,0,.382,1.315,1.656,1.656,0,0,0,1.259.233c1.239-.11,3.453.09,4.151-1.164a4.521,4.521,0,0,0,.409-2.006C120.742,168.3,121.052,155.432,121.024,154.473Z" transform="translate(-67.459 -96.295)" fill="url(#linear-gradient-9)"/>
      <path id="Path_177" data-name="Path 177" d="M115.714,179.168a1.221,1.221,0,0,0-1.151,1.208c-.034,2.924-.1,5.781-.077,8.513a1.693,1.693,0,0,0,.395,1.311,1.665,1.665,0,0,0,1.261.22c1.238-.123,3.454.054,4.14-1.207.255-.469.135-6.4.068-9.046a1.216,1.216,0,0,0-1.287-1.183Z" transform="translate(-67.459 -96.295)" fill="url(#linear-gradient-10)"/>
      <path id="Path_178" data-name="Path 178" d="M140.606,173.341l1.036-15.074c-1.185,1.11-4.6,2.072-9.352,2.724a5.587,5.587,0,0,0-1.949.65l7.488,1.126Z" transform="translate(-67.459 -96.295)" fill="url(#linear-gradient-11)"/>
      <path id="Path_179" data-name="Path 179" d="M76.167,173.361l-1.036-15.073c1.185,1.109,4.6,2.071,9.352,2.724a5.547,5.547,0,0,1,1.949.65l-7.488,1.126Z" transform="translate(-67.459 -96.295)" fill="url(#linear-gradient-12)"/>
      <g id="Group_6" data-name="Group 6" transform="translate(5.271 9.298)">
        <path id="Path_180" data-name="Path 180" d="M93.625,110.118l-20.9-4.525,7.88,107.955,13.735,5.519.644.259h.243Z" transform="translate(-72.73 -105.593)" fill="url(#linear-gradient-13)"/>
      </g>
      <g id="Group_7" data-name="Group 7" transform="translate(54.505 9.121)" opacity="0.6">
        <path id="Path_181" data-name="Path 181" d="M123.57,109.941l20.9-4.525-7.88,107.954-13.735,5.519-.644.259h-.243Z" transform="translate(-121.964 -105.416)" fill="url(#linear-gradient-14)"/>
      </g>
      <rect id="Rectangle_2" data-name="Rectangle 2" width="9.264" height="119.379" transform="translate(31.415 7.555)" fill="url(#linear-gradient-15)"/>
      <rect id="Rectangle_3" data-name="Rectangle 3" width="5.919" height="119.379" transform="translate(43.509 7.555)" fill="url(#linear-gradient-16)"/>
      <path id="Path_182" data-name="Path 182" d="M108.364,114.9c20.909,0,38.142-2.879,40.6-6.594l.306-4.457h-81.8l.307,4.457C70.222,112.022,87.455,114.9,108.364,114.9Z" transform="translate(-67.459 -96.295)" fill="url(#linear-gradient-17)"/>
      <ellipse id="Ellipse_2" data-name="Ellipse 2" cx="40.905" cy="7.506" rx="40.905" ry="7.506" fill="#fff"/>
      <line id="Line_1" data-name="Line 1" x1="1.81" y2="24.108" transform="translate(77.81 12.664)" fill="none" stroke="#fff" stroke-miterlimit="10" stroke-width="0.997"/>
      <path id="Path_183" data-name="Path 183" d="M123.943,202.418l.013,13.4,13.435-4.582-11.548,1.641Z" transform="translate(-67.459 -96.295)" fill="url(#linear-gradient-18)"/>
      <path id="Path_184" data-name="Path 184" d="M77.75,198.057l.983,13.724,14.361,5.239.086-18.7-2.4,15.949L80.21,210.361Z" transform="translate(-67.459 -96.295)" fill="url(#linear-gradient-19)"/>
      <path id="Path_185" data-name="Path 185" d="M96.588,198.616l-.138,18.4h23.108v-7.9l-20.52.2Z" transform="translate(-67.459 -96.295)" fill="url(#linear-gradient-20)"/>
      <path id="Path_186" data-name="Path 186" d="M95.784,118.163s-12.9-.691-22.11-3.224l2.534,29.71,5.757-23.722Z" transform="translate(-67.459 -96.295)" fill="url(#linear-gradient-21)"/>
      <path id="Path_187" data-name="Path 187" d="M144.5,139.849l-.459,10.265" transform="translate(-67.459 -96.295)" fill="none" stroke="#fff" stroke-miterlimit="10" stroke-width="0.997"/>
      <path id="Path_188" data-name="Path 188" d="M120.183,155.853v18.611" transform="translate(-67.459 -96.295)" fill="none" stroke="#fff" stroke-miterlimit="10" stroke-width="0.997"/>
      <path id="Path_189" data-name="Path 189" d="M78.672,215.582l6.557,2.8" transform="translate(-67.459 -96.295)" fill="none" stroke="#fff" stroke-miterlimit="10" stroke-width="0.997"/>
      <line id="Line_2" data-name="Line 2" x2="2.973" y2="42.391" transform="translate(1.493 15.707)" fill="none" stroke="#fff" stroke-miterlimit="10" stroke-width="0.997"/>
    </g>
    <g id="Group_11" data-name="Group 11" transform="translate(2.077)">
      <path id="Path_190" data-name="Path 190" d="M146.75,103.614c-3.819,7.6-33.248,7.005-38.387,7.005-9.8,0-20.166-.25-29.712-2.723-2.193-.568-6.591-1.413-8.049-3.305-2.486-3.224-.275-8.752,3.031-10.44,3.007-1.535,7.017-1.063,9.391-3.465,2.444-2.472,2.587-7.456,6.006-8.084,1.255-.23,2.509.3,3.768.5,4.673.763,9.373-3.926,8.62-8.6l16.7,12.825A7.481,7.481,0,0,0,121,88.925c1.928.408,3.8-.732,5.713-1.221,6.351-1.625,12.089,3.91,16.3,8.938C145.347,99.433,147.649,101.824,146.75,103.614Z" transform="translate(-69.536 -74.506)" fill="#fbfbfb"/>
      <path id="Path_191" data-name="Path 191" d="M96.323,89.49A16.41,16.41,0,0,1,93.5,87.707c-.858-.6-2.818-2.4-3.949-2.166a.5.5,0,0,1-.589-.353A9.669,9.669,0,0,0,86.1,88.664c-1.195,2.492.729,3.653,2.77,4.578,2.679,1.215,5.882,2.9,8.808,3.193,2.175.219,3.677-2.1,3.349-4.236C100.673,89.886,97.979,90.19,96.323,89.49Z" transform="translate(-69.536 -74.506)" fill="#f2f2f2"/>
      <path id="Path_192" data-name="Path 192" d="M127.292,89.855a.53.53,0,0,1-.75-.086,21.72,21.72,0,0,0-4.351,1.507c-2.173,1.083-2.234,3.218-3.5,4.983-.634.882-2.349,2.276-1.8,3.522.322.73,1.648,1.134,2.315,1.346a23.764,23.764,0,0,0,4.889.881c2.847.279,8.419,1.74,9.345-1.841.6-2.314-.7-5.36-2.047-7.19C130.849,92.238,128.281,89.05,127.292,89.855Z" transform="translate(-69.536 -74.506)" fill="#f2f2f2"/>
      <path id="Path_193" data-name="Path 193" d="M105.55,107.7q.454-.049.908-.1c-4.267.5-9.644-1.1-13.683-2.338-2.331-.715-9.551-2.447-8.961-5.925.227-1.34,1.995-2.513,2-3.783.01-1.511-2.106-1.8-3.445-2.346-3.463.958-11.046,4.2-8.727,8.647,1.068,2.047,4.122,2.956,6.113,3.645C88.036,108.36,96.876,108.634,105.55,107.7Z" transform="translate(-69.536 -74.506)" fill="#f2f2f2"/>
      <path id="Path_194" data-name="Path 194" d="M102.689,78.276c-.151-.171-.3-.342-.454-.514a21.419,21.419,0,0,1-3.726,6.029c-.152.2-1.262,1.4-1.256,1.494.02.25,1.032.7,1.248.811a10.387,10.387,0,0,0,3.467,1.021c5.906.682,3.355-5.152,1.314-8.646A.459.459,0,0,1,102.689,78.276Z" transform="translate(-69.536 -74.506)" fill="#f2f2f2"/>
      <g id="Group_9" data-name="Group 9" transform="translate(5.091 11.06)">
        <path id="Path_195" data-name="Path 195" d="M79.922,100.926a.476.476,0,0,0,0,.951A.476.476,0,0,0,79.922,100.926Z" transform="translate(-74.627 -85.566)" fill="#f2f2f2"/>
        <path id="Path_196" data-name="Path 196" d="M83.665,104.788a.577.577,0,0,0,0,1.153A.577.577,0,0,0,83.665,104.788Z" transform="translate(-74.627 -85.566)" fill="#f2f2f2"/>
        <path id="Path_197" data-name="Path 197" d="M83.446,100.574c-.925-.08-.662,1.548.162,1.2q-.015-.072.09-.006a.482.482,0,0,0,.585-.585A.833.833,0,0,0,83.446,100.574Z" transform="translate(-74.627 -85.566)" fill="#f2f2f2"/>
        <path id="Path_198" data-name="Path 198" d="M76.147,97.031c-.507-.507-1.594-.167-1.516.628l.021.22a.67.67,0,0,0,.646.647l.221.021C76.317,98.624,76.653,97.537,76.147,97.031Z" transform="translate(-74.627 -85.566)" fill="#f2f2f2"/>
        <path id="Path_199" data-name="Path 199" d="M84.986,95.408a.05.05,0,0,0,0,.1A.05.05,0,0,0,84.986,95.408Z" transform="translate(-74.627 -85.566)" fill="#f2f2f2"/>
        <path id="Path_200" data-name="Path 200" d="M91.81,97.688a.631.631,0,0,0,0,1.262A.631.631,0,0,0,91.81,97.688Z" transform="translate(-74.627 -85.566)" fill="#f2f2f2"/>
        <path id="Path_201" data-name="Path 201" d="M102.119,102.664l-.083-.046a.637.637,0,0,0-.949.545.581.581,0,0,0,.044.161v0a.827.827,0,0,0-.513-.128.427.427,0,0,0-.409.409.827.827,0,0,0,.128.513c.339.672,1.141.094,1.086-.407a.638.638,0,0,0,.614,0l.083-.046A.583.583,0,0,0,102.119,102.664Z" transform="translate(-74.627 -85.566)" fill="#f2f2f2"/>
        <path id="Path_202" data-name="Path 202" d="M111.185,94.2a.6.6,0,0,0,0,1.192A.6.6,0,0,0,111.185,94.2Z" transform="translate(-74.627 -85.566)" fill="#f2f2f2"/>
        <path id="Path_203" data-name="Path 203" d="M124.174,99.079a.561.561,0,0,0,0,1.122A.561.561,0,0,0,124.174,99.079Z" transform="translate(-74.627 -85.566)" fill="#f2f2f2"/>
        <path id="Path_204" data-name="Path 204" d="M127.256,102.142a.581.581,0,0,0,0,1.161A.581.581,0,0,0,127.256,102.142Z" transform="translate(-74.627 -85.566)" fill="#f2f2f2"/>
        <path id="Path_205" data-name="Path 205" d="M130.559,98.263a.717.717,0,0,0,0,1.434A.717.717,0,0,0,130.559,98.263Z" transform="translate(-74.627 -85.566)" fill="#f2f2f2"/>
        <path id="Path_206" data-name="Path 206" d="M134.081,99.013a.627.627,0,0,0,0,1.254A.627.627,0,0,0,134.081,99.013Z" transform="translate(-74.627 -85.566)" fill="#f2f2f2"/>
        <path id="Path_207" data-name="Path 207" d="M138.705,100.771a.631.631,0,0,0,0,1.262A.631.631,0,0,0,138.705,100.771Z" transform="translate(-74.627 -85.566)" fill="#f2f2f2"/>
        <path id="Path_208" data-name="Path 208" d="M138.705,96.728a.491.491,0,0,0,0,.981A.491.491,0,0,0,138.705,96.728Z" transform="translate(-74.627 -85.566)" fill="#f2f2f2"/>
        <path id="Path_209" data-name="Path 209" d="M131.219,93.23a.246.246,0,0,0,0,.491A.246.246,0,0,0,131.219,93.23Z" transform="translate(-74.627 -85.566)" fill="#f2f2f2"/>
        <path id="Path_210" data-name="Path 210" d="M119.991,88.64a.433.433,0,0,0,0,.865A.433.433,0,0,0,119.991,88.64Z" transform="translate(-74.627 -85.566)" fill="#f2f2f2"/>
        <path id="Path_211" data-name="Path 211" d="M106.341,88.6a.472.472,0,0,0,0,.943A.472.472,0,0,0,106.341,88.6Z" transform="translate(-74.627 -85.566)" fill="#f2f2f2"/>
        <path id="Path_212" data-name="Path 212" d="M100.617,90a.394.394,0,0,0,0,.787A.394.394,0,0,0,100.617,90Z" transform="translate(-74.627 -85.566)" fill="#f2f2f2"/>
        <path id="Path_213" data-name="Path 213" d="M107.442,92.592a.444.444,0,0,0,0,.888A.444.444,0,0,0,107.442,92.592Z" transform="translate(-74.627 -85.566)" fill="#f2f2f2"/>
        <path id="Path_214" data-name="Path 214" d="M108.983,86.955a.577.577,0,0,0,0,1.153A.577.577,0,0,0,108.983,86.955Z" transform="translate(-74.627 -85.566)" fill="#f2f2f2"/>
        <path id="Path_215" data-name="Path 215" d="M108.983,85.566a.425.425,0,0,0,0,.849A.425.425,0,0,0,108.983,85.566Z" transform="translate(-74.627 -85.566)" fill="#f2f2f2"/>
        <path id="Path_216" data-name="Path 216" d="M93.893,85.872a.631.631,0,0,0-.112.107.335.335,0,0,0,0,.463.631.631,0,0,0,.112.107.479.479,0,1,0,0-.677Z" transform="translate(-74.627 -85.566)" fill="#f2f2f2"/>
        <path id="Path_217" data-name="Path 217" d="M87.187,89.377a.136.136,0,0,0,0,.272A.136.136,0,0,0,87.187,89.377Z" transform="translate(-74.627 -85.566)" fill="#f2f2f2"/>
        <path id="Path_218" data-name="Path 218" d="M91.483,96.369c-.391-.15-.708.415-.413.709C91.532,97.54,92.171,96.633,91.483,96.369Z" transform="translate(-74.627 -85.566)" fill="#f2f2f2"/>
        <path id="Path_219" data-name="Path 219" d="M97.315,98.69a.51.51,0,0,0,0,1.02A.51.51,0,0,0,97.315,98.69Z" transform="translate(-74.627 -85.566)" fill="#f2f2f2"/>
        <path id="Path_220" data-name="Path 220" d="M104.8,108.172a.5.5,0,0,0,0,.99A.5.5,0,0,0,104.8,108.172Z" transform="translate(-74.627 -85.566)" fill="#f2f2f2"/>
        <path id="Path_221" data-name="Path 221" d="M110.3,108.318a.569.569,0,0,0,0,1.138A.569.569,0,0,0,110.3,108.318Z" transform="translate(-74.627 -85.566)" fill="#f2f2f2"/>
        <path id="Path_222" data-name="Path 222" d="M110.524,104.924l-.02-.025a.487.487,0,1,0,0,.491l.02-.025A.32.32,0,0,0,110.524,104.924Z" transform="translate(-74.627 -85.566)" fill="#f2f2f2"/>
        <path id="Path_223" data-name="Path 223" d="M114.487,105.074a.511.511,0,0,0,0,1.021A.511.511,0,0,0,114.487,105.074Z" transform="translate(-74.627 -85.566)" fill="#f2f2f2"/>
        <path id="Path_224" data-name="Path 224" d="M114.047,108.913a.2.2,0,0,0,0,.389A.195.195,0,0,0,114.047,108.913Z" transform="translate(-74.627 -85.566)" fill="#f2f2f2"/>
      </g>
      <g id="Group_10" data-name="Group 10" transform="translate(7.746 0.986)">
        <path id="Path_225" data-name="Path 225" d="M103.885,78.4a.647.647,0,0,0-.555.967l.063.088a.578.578,0,0,0,.983,0l.064-.088A.648.648,0,0,0,103.885,78.4Z" transform="translate(-77.281 -75.492)" fill="#8c3215"/>
        <path id="Path_226" data-name="Path 226" d="M107.433,83.757a.923.923,0,0,0-.256-.2.573.573,0,1,0,0,.989.923.923,0,0,0,.256-.2A.428.428,0,0,0,107.433,83.757Z" transform="translate(-77.281 -75.492)" fill="#8c3215"/>
        <path id="Path_227" data-name="Path 227" d="M112.766,86.933a1.1,1.1,0,0,0-.872-.274.647.647,0,0,0,0,1.293,1.1,1.1,0,0,0,.872-.275A.532.532,0,0,0,112.766,86.933Z" transform="translate(-77.281 -75.492)" fill="#8c3215"/>
        <path id="Path_228" data-name="Path 228" d="M109.141,83a.05.05,0,0,0,0,.1A.05.05,0,0,0,109.141,83Z" transform="translate(-77.281 -75.492)" fill="#8c3215"/>
        <path id="Path_229" data-name="Path 229" d="M102.383,82.977a.324.324,0,0,0,0,.647A.324.324,0,0,0,102.383,82.977Z" transform="translate(-77.281 -75.492)" fill="#8c3215"/>
        <path id="Path_230" data-name="Path 230" d="M107.639,89.324a.234.234,0,0,0,0,.468A.234.234,0,0,0,107.639,89.324Z" transform="translate(-77.281 -75.492)" fill="#8c3215"/>
        <path id="Path_231" data-name="Path 231" d="M105.386,81.9a.4.4,0,0,0,0,.8A.4.4,0,0,0,105.386,81.9Z" transform="translate(-77.281 -75.492)" fill="#8c3215"/>
        <path id="Path_232" data-name="Path 232" d="M103.15,87.732l-.086-.226a.189.189,0,0,0-.361,0l-.086.226C102.448,88.175,103.32,88.178,103.15,87.732Z" transform="translate(-77.281 -75.492)" fill="#8c3215"/>
        <path id="Path_233" data-name="Path 233" d="M113.395,91.014a.3.3,0,0,0,0,.592A.3.3,0,0,0,113.395,91.014Z" transform="translate(-77.281 -75.492)" fill="#8c3215"/>
        <path id="Path_234" data-name="Path 234" d="M114.4,88.022a.48.48,0,1,0,.23.409A.272.272,0,0,0,114.4,88.022Z" transform="translate(-77.281 -75.492)" fill="#8c3215"/>
        <path id="Path_235" data-name="Path 235" d="M94.874,84.976a.327.327,0,0,0,0,.654A.327.327,0,0,0,94.874,84.976Z" transform="translate(-77.281 -75.492)" fill="#8c3215"/>
        <path id="Path_236" data-name="Path 236" d="M99.379,88.69a.117.117,0,0,0,0,.234A.117.117,0,0,0,99.379,88.69Z" transform="translate(-77.281 -75.492)" fill="#8c3215"/>
        <path id="Path_237" data-name="Path 237" d="M98.378,84a.05.05,0,0,0,0,.1A.05.05,0,0,0,98.378,84Z" transform="translate(-77.281 -75.492)" fill="#8c3215"/>
        <path id="Path_238" data-name="Path 238" d="M92.872,83.031a.02.02,0,0,0,0,.039A.02.02,0,0,0,92.872,83.031Z" transform="translate(-77.281 -75.492)" fill="#8c3215"/>
        <path id="Path_239" data-name="Path 239" d="M99.379,82.445a.355.355,0,0,0,0,.709A.355.355,0,0,0,99.379,82.445Z" transform="translate(-77.281 -75.492)" fill="#8c3215"/>
        <path id="Path_240" data-name="Path 240" d="M100.881,80.435a.113.113,0,0,0,0,.225A.113.113,0,0,0,100.881,80.435Z" transform="translate(-77.281 -75.492)" fill="#8c3215"/>
        <path id="Path_241" data-name="Path 241" d="M101.632,77.893a.152.152,0,0,0,0,.3A.152.152,0,0,0,101.632,77.893Z" transform="translate(-77.281 -75.492)" fill="#8c3215"/>
        <path id="Path_242" data-name="Path 242" d="M101.632,76.743a.05.05,0,0,0,0,.1A.05.05,0,0,0,101.632,76.743Z" transform="translate(-77.281 -75.492)" fill="#8c3215"/>
        <path id="Path_243" data-name="Path 243" d="M107.889,82.5a.05.05,0,0,0,0,.1A.05.05,0,0,0,107.889,82.5Z" transform="translate(-77.281 -75.492)" fill="#8c3215"/>
        <path id="Path_244" data-name="Path 244" d="M102.133,80.705a.343.343,0,0,0,0,.686A.343.343,0,0,0,102.133,80.705Z" transform="translate(-77.281 -75.492)" fill="#8c3215"/>
        <path id="Path_245" data-name="Path 245" d="M105.887,79.4a.394.394,0,0,0,0,.787A.394.394,0,0,0,105.887,79.4Z" transform="translate(-77.281 -75.492)" fill="#8c3215"/>
        <path id="Path_246" data-name="Path 246" d="M108.64,81.749a.05.05,0,0,0,0,.1A.05.05,0,0,0,108.64,81.749Z" transform="translate(-77.281 -75.492)" fill="#8c3215"/>
        <path id="Path_247" data-name="Path 247" d="M112.144,85a.308.308,0,0,0,0,.616A.308.308,0,0,0,112.144,85Z" transform="translate(-77.281 -75.492)" fill="#8c3215"/>
        <path id="Path_248" data-name="Path 248" d="M107.639,81.636a.413.413,0,0,0,0,.826A.413.413,0,0,0,107.639,81.636Z" transform="translate(-77.281 -75.492)" fill="#8c3215"/>
        <path id="Path_249" data-name="Path 249" d="M110.642,83.955a.347.347,0,0,0,0,.694A.347.347,0,0,0,110.642,83.955Z" transform="translate(-77.281 -75.492)" fill="#8c3215"/>
        <path id="Path_250" data-name="Path 250" d="M111.143,84.5a.05.05,0,0,0,0,.1A.05.05,0,0,0,111.143,84.5Z" transform="translate(-77.281 -75.492)" fill="#8c3215"/>
        <path id="Path_251" data-name="Path 251" d="M109.891,81.531a.516.516,0,0,0-.038,1.028c0,.02.012.041.038.041s.034-.021.039-.041A.516.516,0,0,0,109.891,81.531Z" transform="translate(-77.281 -75.492)" fill="#8c3215"/>
        <path id="Path_252" data-name="Path 252" d="M115.147,87.5a.308.308,0,0,0,0,.616A.308.308,0,0,0,115.147,87.5Z" transform="translate(-77.281 -75.492)" fill="#8c3215"/>
        <path id="Path_253" data-name="Path 253" d="M116.9,89.481a.327.327,0,0,0,0,.654A.327.327,0,0,0,116.9,89.481Z" transform="translate(-77.281 -75.492)" fill="#8c3215"/>
        <path id="Path_254" data-name="Path 254" d="M111.393,90.713a.321.321,0,0,0-.183.057.309.309,0,0,0-.317-.3.333.333,0,0,0-.274.511.065.065,0,0,0-.037.014,6.22,6.22,0,0,0-.5.5.086.086,0,0,0,.121.122,6.579,6.579,0,0,0,.5-.5c.009-.01.008-.021.012-.032a.309.309,0,0,0,.178.056.317.317,0,0,0,.171-.051.32.32,0,0,0,.329.313A.347.347,0,0,0,111.393,90.713Z" transform="translate(-77.281 -75.492)" fill="#8c3215"/>
        <path id="Path_255" data-name="Path 255" d="M107.889,86.951a.355.355,0,0,0,0,.709A.355.355,0,0,0,107.889,86.951Z" transform="translate(-77.281 -75.492)" fill="#8c3215"/>
        <path id="Path_256" data-name="Path 256" d="M120.4,89.919a.39.39,0,0,0,0,.779A.39.39,0,0,0,120.4,89.919Z" transform="translate(-77.281 -75.492)" fill="#8c3215"/>
        <path id="Path_257" data-name="Path 257" d="M124.658,90.259a.05.05,0,0,0,0,.1A.05.05,0,0,0,124.658,90.259Z" transform="translate(-77.281 -75.492)" fill="#8c3215"/>
        <path id="Path_258" data-name="Path 258" d="M99.129,85.558a.246.246,0,0,0,0,.491A.246.246,0,0,0,99.129,85.558Z" transform="translate(-77.281 -75.492)" fill="#8c3215"/>
        <path id="Path_259" data-name="Path 259" d="M103.475,85.212l-.264-.236a.109.109,0,0,0-.154.154l.236.264C103.4,85.517,103.6,85.323,103.475,85.212Z" transform="translate(-77.281 -75.492)" fill="#8c3215"/>
        <path id="Path_260" data-name="Path 260" d="M89.368,82.787a.514.514,0,0,0,0,1.028A.514.514,0,0,0,89.368,82.787Z" transform="translate(-77.281 -75.492)" fill="#8c3215"/>
        <path id="Path_261" data-name="Path 261" d="M91.12,84.737a.316.316,0,0,0,0,.631A.316.316,0,0,0,91.12,84.737Z" transform="translate(-77.281 -75.492)" fill="#8c3215"/>
        <path id="Path_262" data-name="Path 262" d="M91.52,83.276l-.069-.056a.467.467,0,1,0,0,.661l.069-.055A.39.39,0,0,0,91.52,83.276Z" transform="translate(-77.281 -75.492)" fill="#8c3215"/>
        <path id="Path_263" data-name="Path 263" d="M88.117,86.654a.4.4,0,0,0,0,.8A.4.4,0,0,0,88.117,86.654Z" transform="translate(-77.281 -75.492)" fill="#8c3215"/>
        <path id="Path_264" data-name="Path 264" d="M91.621,86.481a.324.324,0,0,0,0,.647A.324.324,0,0,0,91.621,86.481Z" transform="translate(-77.281 -75.492)" fill="#8c3215"/>
        <path id="Path_265" data-name="Path 265" d="M88.367,84.65a.152.152,0,0,0,0,.3A.152.152,0,0,0,88.367,84.65Z" transform="translate(-77.281 -75.492)" fill="#8c3215"/>
        <path id="Path_266" data-name="Path 266" d="M93.122,87.381a.425.425,0,0,0,0,.849A.425.425,0,0,0,93.122,87.381Z" transform="translate(-77.281 -75.492)" fill="#8c3215"/>
        <path id="Path_267" data-name="Path 267" d="M95.742,89.579l-.306.156c-.556.285.225,1.073.512.512l.156-.305A.267.267,0,0,0,95.742,89.579Z" transform="translate(-77.281 -75.492)" fill="#8c3215"/>
        <path id="Path_268" data-name="Path 268" d="M93.122,84.534a.269.269,0,0,0,0,.537A.269.269,0,0,0,93.122,84.534Z" transform="translate(-77.281 -75.492)" fill="#8c3215"/>
        <path id="Path_269" data-name="Path 269" d="M96.126,83.979a.323.323,0,0,0,0,.646A.323.323,0,0,0,96.126,83.979Z" transform="translate(-77.281 -75.492)" fill="#8c3215"/>
        <path id="Path_270" data-name="Path 270" d="M97.377,87.756a.05.05,0,0,0,0,.1A.05.05,0,0,0,97.377,87.756Z" transform="translate(-77.281 -75.492)" fill="#8c3215"/>
        <path id="Path_271" data-name="Path 271" d="M126.41,89.195a.363.363,0,0,0,0,.725A.363.363,0,0,0,126.41,89.195Z" transform="translate(-77.281 -75.492)" fill="#8c3215"/>
        <path id="Path_272" data-name="Path 272" d="M131.542,88.592l-.2-.088c-.662-.29-.662.9,0,.606l.2-.088A.25.25,0,0,0,131.542,88.592Z" transform="translate(-77.281 -75.492)" fill="#8c3215"/>
        <path id="Path_273" data-name="Path 273" d="M134.67,91.26a.05.05,0,0,0,0,.1A.05.05,0,0,0,134.67,91.26Z" transform="translate(-77.281 -75.492)" fill="#8c3215"/>
        <path id="Path_274" data-name="Path 274" d="M127.559,91.675a1.851,1.851,0,0,0-.513-.343.279.279,0,0,0-.232-.019.151.151,0,0,0-.154-.163.157.157,0,0,0-.015.313.253.253,0,0,0,.106.373,1.934,1.934,0,0,0,.588.217A.228.228,0,0,0,127.559,91.675Z" transform="translate(-77.281 -75.492)" fill="#8c3215"/>
        <path id="Path_275" data-name="Path 275" d="M101.131,85.77a.534.534,0,0,0,0,1.068A.534.534,0,0,0,101.131,85.77Z" transform="translate(-77.281 -75.492)" fill="#8c3215"/>
        <path id="Path_276" data-name="Path 276" d="M105.637,87.088a.468.468,0,0,0,0,.935A.468.468,0,0,0,105.637,87.088Z" transform="translate(-77.281 -75.492)" fill="#8c3215"/>
        <path id="Path_277" data-name="Path 277" d="M103.634,83.013a.538.538,0,0,0,0,1.075A.538.538,0,0,0,103.634,83.013Z" transform="translate(-77.281 -75.492)" fill="#8c3215"/>
        <path id="Path_278" data-name="Path 278" d="M100.13,84.752a.05.05,0,0,0,0,.1A.05.05,0,0,0,100.13,84.752Z" transform="translate(-77.281 -75.492)" fill="#8c3215"/>
        <path id="Path_279" data-name="Path 279" d="M107.639,80.5a.05.05,0,0,0,0,.1A.05.05,0,0,0,107.639,80.5Z" transform="translate(-77.281 -75.492)" fill="#8c3215"/>
        <path id="Path_280" data-name="Path 280" d="M103.634,77.744a.05.05,0,0,0,0,.1A.05.05,0,0,0,103.634,77.744Z" transform="translate(-77.281 -75.492)" fill="#8c3215"/>
        <path id="Path_281" data-name="Path 281" d="M102.133,75.492a.05.05,0,0,0,0,.1A.05.05,0,0,0,102.133,75.492Z" transform="translate(-77.281 -75.492)" fill="#8c3215"/>
        <path id="Path_282" data-name="Path 282" d="M87.616,89.763a.546.546,0,0,0,0,1.091A.546.546,0,0,0,87.616,89.763Z" transform="translate(-77.281 -75.492)" fill="#8c3215"/>
        <path id="Path_283" data-name="Path 283" d="M90.87,93.228a.585.585,0,0,0,0,1.169A.585.585,0,0,0,90.87,93.228Z" transform="translate(-77.281 -75.492)" fill="#8c3215"/>
        <path id="Path_284" data-name="Path 284" d="M90.465,89.856l-.072-.1a.607.607,0,1,0,0,.613l.072-.1A.388.388,0,0,0,90.465,89.856Z" transform="translate(-77.281 -75.492)" fill="#8c3215"/>
        <path id="Path_285" data-name="Path 285" d="M94.124,94.5a.312.312,0,0,0,0,.623A.312.312,0,0,0,94.124,94.5Z" transform="translate(-77.281 -75.492)" fill="#8c3215"/>
        <path id="Path_286" data-name="Path 286" d="M87.116,93.462a.351.351,0,0,0,0,.7A.351.351,0,0,0,87.116,93.462Z" transform="translate(-77.281 -75.492)" fill="#8c3215"/>
        <path id="Path_287" data-name="Path 287" d="M94.624,93.693a.37.37,0,0,0,0,.74A.37.37,0,0,0,94.624,93.693Z" transform="translate(-77.281 -75.492)" fill="#8c3215"/>
        <path id="Path_288" data-name="Path 288" d="M97.682,94.615l-.224-.094c-.485-.2-.488.79,0,.586l.224-.094A.209.209,0,0,0,97.682,94.615Z" transform="translate(-77.281 -75.492)" fill="#8c3215"/>
        <path id="Path_289" data-name="Path 289" d="M99.855,95a.236.236,0,0,0-.451,0c-.013.08-.027.159-.041.239a.274.274,0,1,0,.533,0Z" transform="translate(-77.281 -75.492)" fill="#8c3215"/>
        <path id="Path_290" data-name="Path 290" d="M99.379,92.511c-.016,0-.017.016-.025.027a.22.22,0,0,0-.225-.218.242.242,0,0,0,0,.483.221.221,0,0,0,.225-.218c.008.01.009.026.025.026A.05.05,0,0,0,99.379,92.511Z" transform="translate(-77.281 -75.492)" fill="#8c3215"/>
        <path id="Path_291" data-name="Path 291" d="M93.122,92.109a.452.452,0,0,0,0,.9A.452.452,0,0,0,93.122,92.109Z" transform="translate(-77.281 -75.492)" fill="#8c3215"/>
        <path id="Path_292" data-name="Path 292" d="M95.876,87.154a.4.4,0,0,0,0,.8A.4.4,0,0,0,95.876,87.154Z" transform="translate(-77.281 -75.492)" fill="#8c3215"/>
        <path id="Path_293" data-name="Path 293" d="M91.12,90.978l-.25-.016c-.126-.008-.126.2,0,.195l.25-.016A.082.082,0,0,0,91.12,90.978Z" transform="translate(-77.281 -75.492)" fill="#8c3215"/>
        <path id="Path_294" data-name="Path 294" d="M104.135,92.64a.172.172,0,0,0,0,.343A.172.172,0,0,0,104.135,92.64Z" transform="translate(-77.281 -75.492)" fill="#8c3215"/>
        <path id="Path_295" data-name="Path 295" d="M105.136,93.775a.288.288,0,0,0,0,.576A.288.288,0,0,0,105.136,93.775Z" transform="translate(-77.281 -75.492)" fill="#8c3215"/>
        <path id="Path_296" data-name="Path 296" d="M102.633,89.712a.347.347,0,0,0,0,.693A.347.347,0,0,0,102.633,89.712Z" transform="translate(-77.281 -75.492)" fill="#8c3215"/>
        <path id="Path_297" data-name="Path 297" d="M108.139,94.314a.25.25,0,0,0,0,.5A.25.25,0,0,0,108.139,94.314Z" transform="translate(-77.281 -75.492)" fill="#8c3215"/>
        <path id="Path_298" data-name="Path 298" d="M99.129,89.907a.4.4,0,0,0,0,.8A.4.4,0,0,0,99.129,89.907Z" transform="translate(-77.281 -75.492)" fill="#8c3215"/>
        <path id="Path_299" data-name="Path 299" d="M96.877,89.528a.28.28,0,0,0,0,.56A.28.28,0,0,0,96.877,89.528Z" transform="translate(-77.281 -75.492)" fill="#8c3215"/>
        <path id="Path_300" data-name="Path 300" d="M98.128,86.329a.476.476,0,0,0,0,.951A.476.476,0,0,0,98.128,86.329Z" transform="translate(-77.281 -75.492)" fill="#8c3215"/>
        <path id="Path_301" data-name="Path 301" d="M100.13,88.4a.152.152,0,0,0,0,.3A.152.152,0,0,0,100.13,88.4Z" transform="translate(-77.281 -75.492)" fill="#8c3215"/>
        <path id="Path_302" data-name="Path 302" d="M101.382,91.761a.05.05,0,0,0,0,.1A.05.05,0,0,0,101.382,91.761Z" transform="translate(-77.281 -75.492)" fill="#8c3215"/>
        <path id="Path_303" data-name="Path 303" d="M101.264,91.678a.966.966,0,0,0-.32-.226.126.126,0,0,0-.171.171.966.966,0,0,0,.226.32C101.162,92.12,101.441,91.841,101.264,91.678Z" transform="translate(-77.281 -75.492)" fill="#8c3215"/>
        <path id="Path_304" data-name="Path 304" d="M84.613,90.49a.32.32,0,0,0,0,.639A.32.32,0,0,0,84.613,90.49Z" transform="translate(-77.281 -75.492)" fill="#8c3215"/>
        <path id="Path_305" data-name="Path 305" d="M86.365,86.974a.331.331,0,0,0,0,.662A.331.331,0,0,0,86.365,86.974Z" transform="translate(-77.281 -75.492)" fill="#8c3215"/>
        <path id="Path_306" data-name="Path 306" d="M86.865,85.664a.39.39,0,0,0,0,.779A.39.39,0,0,0,86.865,85.664Z" transform="translate(-77.281 -75.492)" fill="#8c3215"/>
        <path id="Path_307" data-name="Path 307" d="M89.618,86.885a.421.421,0,0,0,0,.841A.421.421,0,0,0,89.618,86.885Z" transform="translate(-77.281 -75.492)" fill="#8c3215"/>
        <path id="Path_308" data-name="Path 308" d="M87.811,84.767a.2.2,0,0,0-.39,0,.348.348,0,1,0,.39,0Z" transform="translate(-77.281 -75.492)" fill="#8c3215"/>
        <path id="Path_309" data-name="Path 309" d="M86.114,88.969a.339.339,0,0,0,0,.677A.339.339,0,0,0,86.114,88.969Z" transform="translate(-77.281 -75.492)" fill="#8c3215"/>
        <path id="Path_310" data-name="Path 310" d="M87.616,89.258a.05.05,0,0,0,0,.1A.05.05,0,0,0,87.616,89.258Z" transform="translate(-77.281 -75.492)" fill="#8c3215"/>
        <path id="Path_311" data-name="Path 311" d="M97.377,85.319a.234.234,0,0,0,0,.468A.234.234,0,0,0,97.377,85.319Z" transform="translate(-77.281 -75.492)" fill="#8c3215"/>
        <path id="Path_312" data-name="Path 312" d="M98.345,85c-.169.079-.338.16-.507.24-.089.042-.01.181.079.134l.5-.26C98.488,85.07,98.421,84.959,98.345,85Z" transform="translate(-77.281 -75.492)" fill="#8c3215"/>
        <path id="Path_313" data-name="Path 313" d="M99.88,83.681a.371.371,0,0,0,0,.741A.371.371,0,0,0,99.88,83.681Z" transform="translate(-77.281 -75.492)" fill="#8c3215"/>
        <path id="Path_314" data-name="Path 314" d="M96.626,82.907a.394.394,0,0,0,0,.787A.394.394,0,0,0,96.626,82.907Z" transform="translate(-77.281 -75.492)" fill="#8c3215"/>
        <path id="Path_315" data-name="Path 315" d="M112.394,93.841a.222.222,0,0,0,0,.444A.222.222,0,0,0,112.394,93.841Z" transform="translate(-77.281 -75.492)" fill="#8c3215"/>
        <path id="Path_316" data-name="Path 316" d="M109.391,91.542a.269.269,0,0,0,0,.537A.269.269,0,0,0,109.391,91.542Z" transform="translate(-77.281 -75.492)" fill="#8c3215"/>
        <path id="Path_317" data-name="Path 317" d="M109,91.612a3.708,3.708,0,0,0-.487-.275c-.264-.117-.5.248-.232.4a4.264,4.264,0,0,0,.562.248C109.07,92.067,109.191,91.729,109,91.612Z" transform="translate(-77.281 -75.492)" fill="#8c3215"/>
        <path id="Path_318" data-name="Path 318" d="M115.4,91.976a.335.335,0,0,0,0,.67A.335.335,0,0,0,115.4,91.976Z" transform="translate(-77.281 -75.492)" fill="#8c3215"/>
        <path id="Path_319" data-name="Path 319" d="M116.9,92.062a.249.249,0,0,0,0,.5A.249.249,0,0,0,116.9,92.062Z" transform="translate(-77.281 -75.492)" fill="#8c3215"/>
        <path id="Path_320" data-name="Path 320" d="M115.648,86.091a.464.464,0,0,0,0,.927A.464.464,0,0,0,115.648,86.091Z" transform="translate(-77.281 -75.492)" fill="#8c3215"/>
        <path id="Path_321" data-name="Path 321" d="M109.641,87.967a.339.339,0,0,0,0,.678A.339.339,0,0,0,109.641,87.967Z" transform="translate(-77.281 -75.492)" fill="#8c3215"/>
        <path id="Path_322" data-name="Path 322" d="M108.64,85.733a.07.07,0,0,0,0,.14A.07.07,0,0,0,108.64,85.733Z" transform="translate(-77.281 -75.492)" fill="#8c3215"/>
        <path id="Path_323" data-name="Path 323" d="M103.885,89.594a.214.214,0,0,0,0,.428A.214.214,0,0,0,103.885,89.594Z" transform="translate(-77.281 -75.492)" fill="#8c3215"/>
        <path id="Path_324" data-name="Path 324" d="M106.638,93.321a.242.242,0,0,0,0,.483A.242.242,0,0,0,106.638,93.321Z" transform="translate(-77.281 -75.492)" fill="#8c3215"/>
        <path id="Path_325" data-name="Path 325" d="M100.881,93.907a.156.156,0,0,0,0,.312A.156.156,0,0,0,100.881,93.907Z" transform="translate(-77.281 -75.492)" fill="#8c3215"/>
        <path id="Path_326" data-name="Path 326" d="M104.385,91.51a.05.05,0,0,0,0,.1A.05.05,0,0,0,104.385,91.51Z" transform="translate(-77.281 -75.492)" fill="#8c3215"/>
        <path id="Path_327" data-name="Path 327" d="M113.395,93.532a.281.281,0,0,0,0,.561A.281.281,0,0,0,113.395,93.532Z" transform="translate(-77.281 -75.492)" fill="#8c3215"/>
        <path id="Path_328" data-name="Path 328" d="M121.9,93.523a.039.039,0,0,0,0,.078A.039.039,0,0,0,121.9,93.523Z" transform="translate(-77.281 -75.492)" fill="#8c3215"/>
        <path id="Path_329" data-name="Path 329" d="M125.409,93.512a.05.05,0,0,0,0,.1A.05.05,0,0,0,125.409,93.512Z" transform="translate(-77.281 -75.492)" fill="#8c3215"/>
        <path id="Path_330" data-name="Path 330" d="M117.9,92.528a.534.534,0,0,0,0,1.067A.534.534,0,0,0,117.9,92.528Z" transform="translate(-77.281 -75.492)" fill="#8c3215"/>
        <path id="Path_331" data-name="Path 331" d="M122.406,93.861a.452.452,0,0,0,0,.9A.452.452,0,0,0,122.406,93.861Z" transform="translate(-77.281 -75.492)" fill="#8c3215"/>
        <path id="Path_332" data-name="Path 332" d="M121.4,91.87a.191.191,0,0,0,0,.381A.191.191,0,0,0,121.4,91.87Z" transform="translate(-77.281 -75.492)" fill="#8c3215"/>
        <path id="Path_333" data-name="Path 333" d="M119.793,92.152l-.087.148a.521.521,0,0,0,.709.708l.147-.086C121.359,92.45,120.267,91.35,119.793,92.152Z" transform="translate(-77.281 -75.492)" fill="#8c3215"/>
        <path id="Path_334" data-name="Path 334" d="M124.909,93.693a.37.37,0,0,0,0,.74A.37.37,0,0,0,124.909,93.693Z" transform="translate(-77.281 -75.492)" fill="#8c3215"/>
        <path id="Path_335" data-name="Path 335" d="M122.906,89.849a.46.46,0,0,0,0,.919A.46.46,0,0,0,122.906,89.849Z" transform="translate(-77.281 -75.492)" fill="#8c3215"/>
        <path id="Path_336" data-name="Path 336" d="M130.915,92.626a.436.436,0,0,0,0,.872A.436.436,0,0,0,130.915,92.626Z" transform="translate(-77.281 -75.492)" fill="#8c3215"/>
        <path id="Path_337" data-name="Path 337" d="M127.284,94.345l-.048-.1a.379.379,0,0,0-.651,0l-.047.1C126.138,95.159,127.683,95.159,127.284,94.345Z" transform="translate(-77.281 -75.492)" fill="#8c3215"/>
        <path id="Path_338" data-name="Path 338" d="M130.089,90.76a1.213,1.213,0,0,0-.3-.151c-.747-.3-.752,1.2,0,.9a1.214,1.214,0,0,0,.3-.151A.353.353,0,0,0,130.089,90.76Z" transform="translate(-77.281 -75.492)" fill="#8c3215"/>
        <path id="Path_339" data-name="Path 339" d="M123.907,91.932a.129.129,0,0,0,0,.257A.129.129,0,0,0,123.907,91.932Z" transform="translate(-77.281 -75.492)" fill="#8c3215"/>
        <path id="Path_340" data-name="Path 340" d="M135.421,92.61a.452.452,0,0,0,0,.9A.452.452,0,0,0,135.421,92.61Z" transform="translate(-77.281 -75.492)" fill="#8c3215"/>
        <path id="Path_341" data-name="Path 341" d="M112.895,83.161a.394.394,0,0,0-.276.665l.074.093a.237.237,0,0,0,.4,0l.073-.093A.393.393,0,0,0,112.895,83.161Z" transform="translate(-77.281 -75.492)" fill="#8c3215"/>
        <path id="Path_342" data-name="Path 342" d="M96.376,92.187a.374.374,0,0,0,0,.748A.374.374,0,0,0,96.376,92.187Z" transform="translate(-77.281 -75.492)" fill="#8c3215"/>
        <path id="Path_343" data-name="Path 343" d="M92.872,89.805a.253.253,0,0,0,0,.506A.253.253,0,0,0,92.872,89.805Z" transform="translate(-77.281 -75.492)" fill="#8c3215"/>
        <path id="Path_344" data-name="Path 344" d="M102.383,76a.292.292,0,0,0,0,.584A.292.292,0,0,0,102.383,76Z" transform="translate(-77.281 -75.492)" fill="#8c3215"/>
        <path id="Path_345" data-name="Path 345" d="M103.384,76.837a.207.207,0,0,0,0,.413A.207.207,0,0,0,103.384,76.837Z" transform="translate(-77.281 -75.492)" fill="#8c3215"/>
        <path id="Path_346" data-name="Path 346" d="M99.129,81.476l-.147.013a.246.246,0,0,0-.252.137s0,.011-.007.017a.36.36,0,0,0-.033.092.272.272,0,0,0,0,.057.364.364,0,0,0,0,.074.385.385,0,0,0,.027.074.322.322,0,0,0,.012.033.247.247,0,0,0,.255.136l.146.013C99.545,82.161,99.546,81.437,99.129,81.476Z" transform="translate(-77.281 -75.492)" fill="#8c3215"/>
        <path id="Path_347" data-name="Path 347" d="M133.669,90.514a.546.546,0,0,0,0,1.091A.546.546,0,0,0,133.669,90.514Z" transform="translate(-77.281 -75.492)" fill="#8c3215"/>
        <path id="Path_348" data-name="Path 348" d="M128.494,88.768a.928.928,0,0,0-.219.151.2.2,0,0,0,0,.276.9.9,0,0,0,.219.151C129.123,89.67,129.123,88.445,128.494,88.768Z" transform="translate(-77.281 -75.492)" fill="#8c3215"/>
        <path id="Path_349" data-name="Path 349" d="M139.175,92.387a.425.425,0,0,0,0,.849A.425.425,0,0,0,139.175,92.387Z" transform="translate(-77.281 -75.492)" fill="#8c3215"/>
        <path id="Path_350" data-name="Path 350" d="M80.608,94.135a.429.429,0,0,0,0,.857A.429.429,0,0,0,80.608,94.135Z" transform="translate(-77.281 -75.492)" fill="#8c3215"/>
        <path id="Path_351" data-name="Path 351" d="M90.619,99a.569.569,0,0,0,0,1.137A.569.569,0,0,0,90.619,99Z" transform="translate(-77.281 -75.492)" fill="#8c3215"/>
        <path id="Path_352" data-name="Path 352" d="M103.384,101.93a.643.643,0,0,0,0,1.285A.643.643,0,0,0,103.384,101.93Z" transform="translate(-77.281 -75.492)" fill="#8c3215"/>
        <path id="Path_353" data-name="Path 353" d="M103.634,98.05a.518.518,0,0,0,0,1.036A.518.518,0,0,0,103.634,98.05Z" transform="translate(-77.281 -75.492)" fill="#8c3215"/>
        <path id="Path_354" data-name="Path 354" d="M96.376,100.52a.05.05,0,0,0,0,.1A.05.05,0,0,0,96.376,100.52Z" transform="translate(-77.281 -75.492)" fill="#8c3215"/>
        <path id="Path_355" data-name="Path 355" d="M83.361,100.571a.25.25,0,0,0,0,.5A.25.25,0,0,0,83.361,100.571Z" transform="translate(-77.281 -75.492)" fill="#8c3215"/>
        <path id="Path_356" data-name="Path 356" d="M83.862,94.6a.46.46,0,0,0,0,.92A.46.46,0,0,0,83.862,94.6Z" transform="translate(-77.281 -75.492)" fill="#8c3215"/>
        <path id="Path_357" data-name="Path 357" d="M83.111,91.7a.363.363,0,0,0,0,.725A.363.363,0,0,0,83.111,91.7Z" transform="translate(-77.281 -75.492)" fill="#8c3215"/>
        <path id="Path_358" data-name="Path 358" d="M84.44,97.99c-.038-.045-.076-.091-.113-.137a.3.3,0,0,0-.43,0c-.037.046-.075.092-.113.137a.464.464,0,1,0,.656,0Z" transform="translate(-77.281 -75.492)" fill="#8c3215"/>
        <path id="Path_359" data-name="Path 359" d="M77.605,95.98a.335.335,0,0,0,0,.67A.335.335,0,0,0,77.605,95.98Z" transform="translate(-77.281 -75.492)" fill="#8c3215"/>
        <path id="Path_360" data-name="Path 360" d="M98.378,99.684a.386.386,0,0,0,0,.771A.386.386,0,0,0,98.378,99.684Z" transform="translate(-77.281 -75.492)" fill="#8c3215"/>
        <path id="Path_361" data-name="Path 361" d="M93.623,98.041a.277.277,0,0,0,0,.553A.277.277,0,0,0,93.623,98.041Z" transform="translate(-77.281 -75.492)" fill="#8c3215"/>
        <path id="Path_362" data-name="Path 362" d="M87.366,96.516a.05.05,0,0,0,0,.1A.05.05,0,0,0,87.366,96.516Z" transform="translate(-77.281 -75.492)" fill="#8c3215"/>
        <path id="Path_363" data-name="Path 363" d="M96.626,103.023a.05.05,0,0,0,0,.1A.05.05,0,0,0,96.626,103.023Z" transform="translate(-77.281 -75.492)" fill="#8c3215"/>
        <path id="Path_364" data-name="Path 364" d="M98.879,96.939a.378.378,0,0,0,0,.755A.378.378,0,0,0,98.879,96.939Z" transform="translate(-77.281 -75.492)" fill="#8c3215"/>
        <path id="Path_365" data-name="Path 365" d="M114.894,98.125l-.119-.023a.478.478,0,1,0,0,.932l.119-.023A.463.463,0,0,0,114.894,98.125Z" transform="translate(-77.281 -75.492)" fill="#8c3215"/>
        <path id="Path_366" data-name="Path 366" d="M108.64,96.442a.374.374,0,0,0,0,.748A.374.374,0,0,0,108.64,96.442Z" transform="translate(-77.281 -75.492)" fill="#8c3215"/>
        <path id="Path_367" data-name="Path 367" d="M112.895,102.61a.464.464,0,0,0,0,.927A.464.464,0,0,0,112.895,102.61Z" transform="translate(-77.281 -75.492)" fill="#8c3215"/>
        <path id="Path_368" data-name="Path 368" d="M122.656,100.435a.386.386,0,0,0,0,.771A.386.386,0,0,0,122.656,100.435Z" transform="translate(-77.281 -75.492)" fill="#8c3215"/>
        <path id="Path_369" data-name="Path 369" d="M125.159,95.458a.608.608,0,0,0,0,1.215A.608.608,0,0,0,125.159,95.458Z" transform="translate(-77.281 -75.492)" fill="#8c3215"/>
        <path id="Path_370" data-name="Path 370" d="M132.167,100.349a.472.472,0,0,0,0,.943A.472.472,0,0,0,132.167,100.349Z" transform="translate(-77.281 -75.492)" fill="#8c3215"/>
        <path id="Path_371" data-name="Path 371" d="M118.651,97.393a.425.425,0,0,0,0,.849A.425.425,0,0,0,118.651,97.393Z" transform="translate(-77.281 -75.492)" fill="#8c3215"/>
        <path id="Path_372" data-name="Path 372" d="M120.153,104.525a.05.05,0,0,0,0,.1A.05.05,0,0,0,120.153,104.525Z" transform="translate(-77.281 -75.492)" fill="#8c3215"/>
        <path id="Path_373" data-name="Path 373" d="M108.89,100.1a.222.222,0,0,0,0,.444A.222.222,0,0,0,108.89,100.1Z" transform="translate(-77.281 -75.492)" fill="#8c3215"/>
        <path id="Path_374" data-name="Path 374" d="M104.635,95.925a.14.14,0,0,0,0,.28A.14.14,0,0,0,104.635,95.925Z" transform="translate(-77.281 -75.492)" fill="#8c3215"/>
        <path id="Path_375" data-name="Path 375" d="M107.639,100.6a.475.475,0,0,0,0,.95A.475.475,0,0,0,107.639,100.6Z" transform="translate(-77.281 -75.492)" fill="#8c3215"/>
        <path id="Path_376" data-name="Path 376" d="M112.895,95.726a.339.339,0,0,0,0,.678A.339.339,0,0,0,112.895,95.726Z" transform="translate(-77.281 -75.492)" fill="#8c3215"/>
        <path id="Path_377" data-name="Path 377" d="M117.4,95.023a.542.542,0,0,0,0,1.083A.542.542,0,0,0,117.4,95.023Z" transform="translate(-77.281 -75.492)" fill="#8c3215"/>
        <path id="Path_378" data-name="Path 378" d="M133.669,98.237a.331.331,0,0,0,0,.662A.331.331,0,0,0,133.669,98.237Z" transform="translate(-77.281 -75.492)" fill="#8c3215"/>
        <path id="Path_379" data-name="Path 379" d="M141.177,100.834a.487.487,0,0,0,0,.974A.487.487,0,0,0,141.177,100.834Z" transform="translate(-77.281 -75.492)" fill="#8c3215"/>
        <path id="Path_380" data-name="Path 380" d="M130.2,96.061a.465.465,0,0,0-.58-.127c-.567.245-.309.928.139,1.11C130.354,97.284,130.672,96.318,130.2,96.061Z" transform="translate(-77.281 -75.492)" fill="#8c3215"/>
        <path id="Path_381" data-name="Path 381" d="M136.171,95.563a.5.5,0,0,0,0,1A.5.5,0,0,0,136.171,95.563Z" transform="translate(-77.281 -75.492)" fill="#8c3215"/>
        <path id="Path_382" data-name="Path 382" d="M142.027,98.458l-.231-.068c-.714-.208-.719,1.066,0,.857l.231-.068A.377.377,0,0,0,142.027,98.458Z" transform="translate(-77.281 -75.492)" fill="#8c3215"/>
        <path id="Path_383" data-name="Path 383" d="M138.674,94.894a.421.421,0,0,0,0,.841A.421.421,0,0,0,138.674,94.894Z" transform="translate(-77.281 -75.492)" fill="#8c3215"/>
        <path id="Path_384" data-name="Path 384" d="M137.423,100.02a.05.05,0,0,0,0,.1A.05.05,0,0,0,137.423,100.02Z" transform="translate(-77.281 -75.492)" fill="#8c3215"/>
        <path id="Path_385" data-name="Path 385" d="M132.417,95.175a.39.39,0,0,0,0,.779A.39.39,0,0,0,132.417,95.175Z" transform="translate(-77.281 -75.492)" fill="#8c3215"/>
        <path id="Path_386" data-name="Path 386" d="M111.643,99.414a.406.406,0,0,0,0,.811A.406.406,0,0,0,111.643,99.414Z" transform="translate(-77.281 -75.492)" fill="#8c3215"/>
        <path id="Path_387" data-name="Path 387" d="M102.548,95.019a.172.172,0,0,0-.33,0,.924.924,0,0,0-.061.3c-.027.291.479.291.452,0A.924.924,0,0,0,102.548,95.019Z" transform="translate(-77.281 -75.492)" fill="#8c3215"/>
        <path id="Path_388" data-name="Path 388" d="M103.885,85.578a.226.226,0,0,0,0,.451A.226.226,0,0,0,103.885,85.578Z" transform="translate(-77.281 -75.492)" fill="#8c3215"/>
        <path id="Path_389" data-name="Path 389" d="M87.616,95.707a.358.358,0,0,0,0,.716A.358.358,0,0,0,87.616,95.707Z" transform="translate(-77.281 -75.492)" fill="#8c3215"/>
        <path id="Path_390" data-name="Path 390" d="M77.605,94.982a.082.082,0,0,0,0,.164A.082.082,0,0,0,77.605,94.982Z" transform="translate(-77.281 -75.492)" fill="#8c3215"/>
      </g>
    </g>
  </g>
  <text id="FRAPPE-2" data-name="FRAPPE" transform="translate(16.214 175.508)" fill="#fff" font-size="14" font-family="MyriadPro-Regular, Myriad Pro"><tspan x="0" y="0">FRAPPE</tspan></text>
</svg>
