<svg xmlns="http://www.w3.org/2000/svg" xmlns:xlink="http://www.w3.org/1999/xlink" width="108.444" height="201.979" viewBox="0 0 108.444 201.979">
  <defs>
    <linearGradient id="linear-gradient" x1="1.108" y1="-0.868" x2="-0.084" y2="1.674" gradientUnits="objectBoundingBox">
      <stop offset="0" stop-color="#fff"/>
      <stop offset="1" stop-color="#fff" stop-opacity="0"/>
    </linearGradient>
    <linearGradient id="linear-gradient-2" y1="0.5" x2="1" y2="0.5" gradientUnits="objectBoundingBox">
      <stop offset="0" stop-color="#b3b3b3"/>
      <stop offset="1" stop-color="#b3b3b3" stop-opacity="0"/>
    </linearGradient>
    <linearGradient id="linear-gradient-3" x1="1.093" y1="-0.926" x2="-0.129" y2="1.704" xlink:href="#linear-gradient"/>
    <linearGradient id="linear-gradient-4" x1="-68.651" y1="-0.926" x2="-69.874" y2="1.704" xlink:href="#linear-gradient-2"/>
    <linearGradient id="linear-gradient-5" x1="1.149" y1="1.887" x2="0.521" y2="0.545" xlink:href="#linear-gradient-2"/>
    <linearGradient id="linear-gradient-6" x1="0.64" y1="1.895" x2="0.507" y2="0.551" xlink:href="#linear-gradient-2"/>
    <linearGradient id="linear-gradient-7" x1="0.468" y1="1.634" x2="0.517" y2="-0.177" xlink:href="#linear-gradient-2"/>
    <linearGradient id="linear-gradient-8" x1="0.292" y1="0.535" x2="3.523" y2="-0.394" xlink:href="#linear-gradient-2"/>
    <linearGradient id="linear-gradient-9" x1="0.679" y1="0.432" x2="1.44" y2="-0.591" xlink:href="#linear-gradient-2"/>
    <linearGradient id="linear-gradient-10" x1="4.214" y1="-0.962" x2="7.788" y2="-2.466" xlink:href="#linear-gradient-2"/>
    <linearGradient id="linear-gradient-11" x1="0.25" y1="1.695" x2="1.615" y2="-3.375" xlink:href="#linear-gradient-2"/>
    <linearGradient id="linear-gradient-12" x1="-0.181" y1="0.5" x2="1.324" y2="0.5" xlink:href="#linear-gradient"/>
    <linearGradient id="linear-gradient-13" x1="-2.363" y1="0.5" x2="1" y2="0.5" xlink:href="#linear-gradient"/>
    <linearGradient id="linear-gradient-14" x1="0.573" y1="-0.732" x2="0.33" y2="1.691" xlink:href="#linear-gradient"/>
    <linearGradient id="linear-gradient-15" x1="0.832" y1="0.627" x2="0.832" y2="1.807" xlink:href="#linear-gradient"/>
    <linearGradient id="linear-gradient-16" x1="1.306" y1="-2.055" x2="1.276" y2="-0.172" xlink:href="#linear-gradient"/>
    <linearGradient id="linear-gradient-17" x1="-0.192" y1="-0.164" x2="1.225" y2="0.959" xlink:href="#linear-gradient-2"/>
    <linearGradient id="linear-gradient-18" x1="-0.05" y1="-0.213" x2="1.543" y2="0.93" xlink:href="#linear-gradient"/>
    <linearGradient id="linear-gradient-19" x1="-0.879" y1="0.031" x2="1.816" y2="1.045" xlink:href="#linear-gradient-2"/>
    <linearGradient id="linear-gradient-20" x1="0.473" y1="1.675" x2="0.511" y2="-0.029" xlink:href="#linear-gradient-2"/>
    <linearGradient id="linear-gradient-21" x1="3.435" y1="-3.282" x2="4.25" y2="-1.278" xlink:href="#linear-gradient"/>
    <linearGradient id="linear-gradient-22" x1="0.838" y1="-0.722" x2="0.04" y2="1.91" xlink:href="#linear-gradient"/>
    <linearGradient id="linear-gradient-23" x1="0.865" y1="-1.023" x2="0.085" y2="2.159" xlink:href="#linear-gradient"/>
    <linearGradient id="linear-gradient-24" x1="1.814" y1="-1.685" x2="-0.433" y2="2.001" xlink:href="#linear-gradient"/>
    <linearGradient id="linear-gradient-25" x1="10.789" y1="-12.485" x2="10.831" y2="-9.311" xlink:href="#linear-gradient"/>
    <linearGradient id="linear-gradient-26" x1="-10.275" y1="6.433" x2="-6.317" y2="7.47" xlink:href="#linear-gradient-2"/>
    <linearGradient id="linear-gradient-27" x1="-0.029" y1="-2.243" x2="0.65" y2="1.351" xlink:href="#linear-gradient-2"/>
    <linearGradient id="linear-gradient-28" x1="0.17" y1="0.679" x2="1.783" y2="-0.767" xlink:href="#linear-gradient"/>
    <linearGradient id="linear-gradient-29" x1="0.714" y1="-1.681" x2="0.449" y2="0.985" xlink:href="#linear-gradient-2"/>
  </defs>
  <g id="mocha" transform="translate(0)">
    <g id="Group_23" data-name="Group 23" transform="translate(0 0)">
      <g id="Group_13" data-name="Group 13" transform="translate(9.813 126.336)">
        <ellipse id="Ellipse_3" data-name="Ellipse 3" cx="33.421" cy="9.513" rx="33.421" ry="9.513" transform="translate(0 25.832)" fill="#999"/>
        <ellipse id="Ellipse_4" data-name="Ellipse 4" cx="29.332" cy="7.698" rx="29.332" ry="7.698" transform="translate(4.089 25.982)" fill="#ccc"/>
        <path id="Path_391" data-name="Path 391" d="M269.455,204.934c-.126,2.226,3.256,4.705,3.256,4.705s13.056,2.72,22.881,4.792c1.234-.785,1.92-1.638,1.92-2.532,0-3.847-12.557-6.965-28.047-6.965Z" transform="translate(-236.044 -178.37)" fill="url(#linear-gradient)"/>
        <path id="Path_392" data-name="Path 392" d="M269.33,204.934c.126,2.226-3.255,4.705-3.255,4.705s-13.056,2.72-22.882,4.792c-1.234-.785-1.92-1.638-1.92-2.532,0-3.847,12.557-6.965,28.047-6.965Z" transform="translate(-236.044 -178.37)" fill="url(#linear-gradient-2)"/>
        <path id="Path_393" data-name="Path 393" d="M271.282,218.843a79.918,79.918,0,0,0,19.088-2.307c-3.426-.8-14.974-3.923-18.34-4.925a1.4,1.4,0,0,1-.748-.494Z" transform="translate(-236.044 -178.37)" fill="url(#linear-gradient-3)"/>
        <path id="Path_394" data-name="Path 394" d="M266.816,218.843a79.932,79.932,0,0,1-19.088-2.307c3.426-.8,14.975-3.923,18.34-4.925a1.4,1.4,0,0,0,.748-.494Z" transform="translate(-236.044 -178.37)" fill="url(#linear-gradient-4)"/>
        <path id="Path_395" data-name="Path 395" d="M283.717,179.112H255.365v30.211c0,1.423,6.322,2.576,14.119,2.576s14.229-1.152,14.233-2.575c.07,0,0,0,0,0Z" transform="translate(-236.044 -178.37)" fill="#999"/>
        <path id="Path_396" data-name="Path 396" d="M269.6,178.37h-1.928v32.761c.594.015,1.192.027,1.808.027l.12,0Z" transform="translate(-236.044 -178.37)" fill="url(#linear-gradient-5)"/>
        <path id="Path_397" data-name="Path 397" d="M266.762,178.379h-9.12V209.99a42.606,42.606,0,0,0,9.12,1.123Z" transform="translate(-236.044 -178.37)" fill="url(#linear-gradient-6)"/>
        <path id="Path_398" data-name="Path 398" d="M255.365,205.764c0,1.422,6.322,2.576,14.119,2.576s14.114-1.153,14.118-2.575h.115V179.112H255.365Z" transform="translate(-236.044 -178.37)" fill="url(#linear-gradient-7)"/>
        <path id="Path_399" data-name="Path 399" d="M283.071,204.618v4.388" transform="translate(-236.044 -178.37)" fill="none" stroke="#fff" stroke-miterlimit="10" stroke-width="0.748"/>
        <path id="Path_400" data-name="Path 400" d="M299.126,209.888a8.845,8.845,0,0,1,2.831,2.462" transform="translate(-236.044 -178.37)" fill="none" stroke="#fff" stroke-miterlimit="10" stroke-width="0.748"/>
        <path id="Path_401" data-name="Path 401" d="M291.271,208.181a10.518,10.518,0,0,1,5.035,2.519" transform="translate(-236.044 -178.37)" fill="none" stroke="#fff" stroke-miterlimit="10" stroke-width="0.748"/>
        <path id="Path_402" data-name="Path 402" d="M276.851,213.879l7.306,2.3" transform="translate(-236.044 -178.37)" fill="none" stroke="#fff" stroke-miterlimit="10" stroke-width="0.748"/>
        <path id="Path_403" data-name="Path 403" d="M266.031,212.539q.045,2.449.088,4.9" transform="translate(-236.044 -178.37)" fill="none" stroke="#fff" stroke-miterlimit="10" stroke-width="0.748"/>
        <path id="Path_404" data-name="Path 404" d="M290.081,218.413a19.869,19.869,0,0,0,8.669-3.853" transform="translate(-236.044 -178.37)" fill="none" stroke="#fff" stroke-miterlimit="10" stroke-width="0.748"/>
        <path id="Path_405" data-name="Path 405" d="M240.069,214.891c3.916,3.04,9.626,4.387,14.6,5.177" transform="translate(-236.044 -178.37)" fill="none" stroke="#fff" stroke-miterlimit="10" stroke-width="0.748"/>
      </g>
      <g id="Group_15" data-name="Group 15" transform="translate(74.407 58.196)">
        <path id="Path_406" data-name="Path 406" d="M313.255,110.341a4.888,4.888,0,0,0-1.158.141,4.645,4.645,0,0,0-1.051.286,21.872,21.872,0,0,0-6.453,3c.269,4.118.7,8.226.959,12.342a12.55,12.55,0,0,1,8.931-6.975c10.036-1.5,12.911,9.49,10.05,17.054-2.675,7.072-10.468,15.343-17.394,18.414a8.329,8.329,0,0,1-3.254.918,68.141,68.141,0,0,1-3.247,8.419,15.108,15.108,0,0,0,9.463-.82c6.037-2.469,11.786-7.909,16-12.8,4.339-5.039,7.706-10.984,8.434-17.688C335.979,119.288,326.325,109.046,313.255,110.341Z" transform="translate(-300.638 -110.23)" fill="#ccc"/>
        <path id="Path_407" data-name="Path 407" d="M309.175,121.592c.593-3.6,1.275-7.19,1.8-10.8a21.871,21.871,0,0,0-6.385,2.978c.269,4.118.7,8.226.959,12.342A12.373,12.373,0,0,1,309.175,121.592Z" transform="translate(-300.638 -110.23)" fill="url(#linear-gradient-8)"/>
        <g id="Group_14" data-name="Group 14" transform="translate(0 7.275)">
          <path id="Path_408" data-name="Path 408" d="M333.063,121.753a22.362,22.362,0,0,1,.909,9.39c-.728,6.705-4.1,12.65-8.435,17.688-4.209,4.889-9.958,10.328-15.995,12.8a15.789,15.789,0,0,1-8.359,1.07c-.181.414-.359.829-.545,1.241a15.108,15.108,0,0,0,9.463-.82c6.037-2.469,11.786-7.909,16-12.8,4.339-5.039,7.706-10.984,8.434-17.688A21.955,21.955,0,0,0,333.063,121.753Z" transform="translate(-300.638 -117.506)" fill="url(#linear-gradient-9)"/>
          <path id="Path_409" data-name="Path 409" d="M305.568,162.082c.443-2.366.613-4.769.842-7.165a6.515,6.515,0,0,1-2.525.6,68.141,68.141,0,0,1-3.247,8.419,12.446,12.446,0,0,0,4.474.384C305.26,163.584,305.427,162.83,305.568,162.082Z" transform="translate(-300.638 -117.506)" fill="url(#linear-gradient-10)"/>
          <path id="Path_410" data-name="Path 410" d="M313.924,117.644a12.547,12.547,0,0,0-8.533,6.24c.056.742.113,1.484.161,2.226a12.55,12.55,0,0,1,8.931-6.975c5.049-.753,8.285,1.655,9.89,5.2C323.047,120.007,319.655,116.789,313.924,117.644Z" transform="translate(-300.638 -117.506)" fill="url(#linear-gradient-11)"/>
        </g>
        <path id="Path_411" data-name="Path 411" d="M326.821,118.257l2.373-2.373a19.121,19.121,0,0,0-15.939-5.543l-.029,0v2.836a.833.833,0,0,0,.854.829,22.948,22.948,0,0,1,2.7.1,12.4,12.4,0,0,1,5.957,2.049,10.563,10.563,0,0,1,2.11,2.023A1.332,1.332,0,0,0,326.821,118.257Z" transform="translate(-300.638 -110.23)" fill="url(#linear-gradient-12)"/>
        <path id="Path_412" data-name="Path 412" d="M328,121.748a1.644,1.644,0,0,0-.406,1.781,7.36,7.36,0,0,0,2.31,3.563,2.921,2.921,0,0,0,2.4.578c.369-.086,2.138-.9,2.055-1.392a19.986,19.986,0,0,0-2.816-7.424A39.039,39.039,0,0,0,328,121.748Z" transform="translate(-300.638 -110.23)" fill="url(#linear-gradient-13)"/>
        <path id="Path_413" data-name="Path 413" d="M321.63,112.87a7.531,7.531,0,0,1,3.7,2.162" transform="translate(-300.638 -110.23)" fill="none" stroke="#fff" stroke-miterlimit="10" stroke-width="1.994"/>
        <path id="Path_414" data-name="Path 414" d="M329.136,119.07a14.649,14.649,0,0,1,1.619,2.974" transform="translate(-300.638 -110.23)" fill="none" stroke="#fff" stroke-miterlimit="10" stroke-width="1.994"/>
      </g>
      <g id="Group_18" data-name="Group 18" transform="translate(4.055 39.58)">
        <path id="Path_415" data-name="Path 415" d="M303.407,167.922l5.237-68.41H230.286l5.237,68.41a62.474,62.474,0,0,0,8.329,26.71h0a19.169,19.169,0,0,0,16.558,9.51h18.11a19.169,19.169,0,0,0,16.558-9.51h0A62.474,62.474,0,0,0,303.407,167.922Z" transform="translate(-230.286 -91.614)" fill="#ccc"/>
        <path id="Path_416" data-name="Path 416" d="M307.478,99.512l-5.237,68.41a62.474,62.474,0,0,1-8.329,26.71,19.169,19.169,0,0,1-16.558,9.51h1.166a19.169,19.169,0,0,0,16.558-9.51,62.474,62.474,0,0,0,8.329-26.71l5.237-68.41Z" transform="translate(-230.286 -91.614)" fill="#fff"/>
        <path id="Path_417" data-name="Path 417" d="M300.372,169.092l5.61-68.439H232.948l5.611,68.439a56.874,56.874,0,0,0,7.583,24.321h0a17.454,17.454,0,0,0,15.078,8.66h16.49a17.454,17.454,0,0,0,15.078-8.66h0A56.89,56.89,0,0,0,300.372,169.092Z" transform="translate(-230.286 -91.614)" fill="#e6e6e6"/>
        <path id="Path_418" data-name="Path 418" d="M299.194,168.416l5.4-65.831H234.34l5.4,65.831a54.725,54.725,0,0,0,7.3,23.4h0a16.79,16.79,0,0,0,14.5,8.33H277.4a16.79,16.79,0,0,0,14.5-8.33h0A54.725,54.725,0,0,0,299.194,168.416Z" transform="translate(-230.286 -91.614)" fill="#b3b3b3"/>
        <path id="Path_419" data-name="Path 419" d="M297.45,168.235l5.456-70.966H236.025l5.455,70.966a51.524,51.524,0,0,0,6.867,22.023h0A15.807,15.807,0,0,0,262,198.1h14.932a15.806,15.806,0,0,0,13.652-7.841h0A51.525,51.525,0,0,0,297.45,168.235Z" transform="translate(-230.286 -91.614)" fill="#ffb177"/>
        <ellipse id="Ellipse_5" data-name="Ellipse 5" cx="39.16" cy="7.862" rx="39.16" ry="7.862" transform="translate(0.02)" fill="#fff"/>
        <ellipse id="Ellipse_6" data-name="Ellipse 6" cx="34.384" cy="5.829" rx="34.384" ry="5.829" transform="translate(4.795 2.034)" fill="#ccc"/>
        <path id="Path_420" data-name="Path 420" d="M238.528,129.828l2.952,38.407a51.524,51.524,0,0,0,6.867,22.023A15.807,15.807,0,0,0,262,198.1h14.932a15.806,15.806,0,0,0,13.652-7.841h0a51.511,51.511,0,0,0,6.867-22.023l2.952-38.407c-7.361,1.787-18.486,2.925-30.937,2.925S245.889,131.615,238.528,129.828Z" transform="translate(-230.286 -91.614)" fill="#bc5f38"/>
        <path id="Path_421" data-name="Path 421" d="M276.395,97.269V198.1h.536a15.806,15.806,0,0,0,13.652-7.841,51.511,51.511,0,0,0,6.867-22.023l5.456-70.966Z" transform="translate(-230.286 -91.614)" opacity="0.5" fill="url(#linear-gradient-14)"/>
        <path id="Path_422" data-name="Path 422" d="M269.465,133.96c12.4,0,23.481-1.13,30.843-2.9l.094-1.228c-7.361,1.787-18.486,2.925-30.937,2.925s-23.576-1.138-30.937-2.925l.094,1.228C245.984,132.83,257.066,133.96,269.465,133.96Z" transform="translate(-230.286 -91.614)" fill="#994d2e"/>
        <g id="Group_16" data-name="Group 16" transform="translate(9.74 41.915)">
          <path id="Path_423" data-name="Path 423" d="M240.342,133.529a.327.327,0,0,0,0,.654A.327.327,0,0,0,240.342,133.529Z" transform="translate(-240.026 -133.529)" fill="#ffb177"/>
          <path id="Path_424" data-name="Path 424" d="M241.535,136.259a.339.339,0,0,0,0,.678A.339.339,0,0,0,241.535,136.259Z" transform="translate(-240.026 -133.529)" fill="#ffb177"/>
          <path id="Path_425" data-name="Path 425" d="M244.157,134.843a.444.444,0,0,0,0,.888A.444.444,0,0,0,244.157,134.843Z" transform="translate(-240.026 -133.529)" fill="#ffb177"/>
          <path id="Path_426" data-name="Path 426" d="M253.7,138.432a.725.725,0,0,0,0,1.449A.725.725,0,0,0,253.7,138.432Z" transform="translate(-240.026 -133.529)" fill="#ffb177"/>
          <path id="Path_427" data-name="Path 427" d="M254.41,140.7a.25.25,0,0,0,0,.5A.25.25,0,0,0,254.41,140.7Z" transform="translate(-240.026 -133.529)" fill="#ffb177"/>
          <path id="Path_428" data-name="Path 428" d="M255.006,139.57a.421.421,0,0,0,0,.841A.421.421,0,0,0,255.006,139.57Z" transform="translate(-240.026 -133.529)" fill="#ffb177"/>
          <path id="Path_429" data-name="Path 429" d="M270.148,136.12a.659.659,0,0,0-.6-.224.464.464,0,0,0,0,.927.667.667,0,0,0,.6-.224A.345.345,0,0,0,270.148,136.12Z" transform="translate(-240.026 -133.529)" fill="#ffb177"/>
          <path id="Path_430" data-name="Path 430" d="M271.25,138.131l-.091-.047c-.659-.338-.659.943,0,.6l.091-.047A.3.3,0,0,0,271.25,138.131Z" transform="translate(-240.026 -133.529)" fill="#ffb177"/>
          <path id="Path_431" data-name="Path 431" d="M273.485,137.106l-.119-.007a.572.572,0,1,0,.494.861l.061-.094A.51.51,0,0,0,273.485,137.106Z" transform="translate(-240.026 -133.529)" fill="#ffb177"/>
          <path id="Path_432" data-name="Path 432" d="M275.035,136.553a.522.522,0,0,0,0,1.044A.522.522,0,0,0,275.035,136.553Z" transform="translate(-240.026 -133.529)" fill="#ffb177"/>
          <path id="Path_433" data-name="Path 433" d="M285.37,135.361a.848.848,0,0,0-.594.586c-.241.626.663,1.084,1.093.637l.011-.013C286.5,136.19,286.106,135.116,285.37,135.361Z" transform="translate(-240.026 -133.529)" fill="#ffb177"/>
          <path id="Path_434" data-name="Path 434" d="M288.626,135.011a.514.514,0,0,0,0,1.028A.514.514,0,0,0,288.626,135.011Z" transform="translate(-240.026 -133.529)" fill="#ffb177"/>
          <path id="Path_435" data-name="Path 435" d="M291.01,138.825a.277.277,0,0,0,0,.553A.277.277,0,0,0,291.01,138.825Z" transform="translate(-240.026 -133.529)" fill="#ffb177"/>
          <path id="Path_436" data-name="Path 436" d="M294.706,135.685a.437.437,0,0,0,0,.873A.437.437,0,0,0,294.706,135.685Z" transform="translate(-240.026 -133.529)" fill="#ffb177"/>
          <path id="Path_437" data-name="Path 437" d="M295.9,139.41a.05.05,0,0,0,0,.1A.05.05,0,0,0,295.9,139.41Z" transform="translate(-240.026 -133.529)" fill="#ffb177"/>
          <path id="Path_438" data-name="Path 438" d="M241.851,152.62l-.14.044a.682.682,0,1,0,.839.838l.044-.139A.609.609,0,0,0,241.851,152.62Z" transform="translate(-240.026 -133.529)" fill="#ffb177"/>
          <path id="Path_439" data-name="Path 439" d="M245.111,162.973a.363.363,0,0,0,0,.725A.363.363,0,0,0,245.111,162.973Z" transform="translate(-240.026 -133.529)" fill="#ffb177"/>
          <path id="Path_440" data-name="Path 440" d="M250.834,160.178a.3.3,0,0,0,0,.592A.3.3,0,0,0,250.834,160.178Z" transform="translate(-240.026 -133.529)" fill="#ffb177"/>
          <path id="Path_441" data-name="Path 441" d="M254.172,151.55a.46.46,0,0,0,0,.919A.46.46,0,0,0,254.172,151.55Z" transform="translate(-240.026 -133.529)" fill="#ffb177"/>
          <path id="Path_442" data-name="Path 442" d="M278.373,160.288a.783.783,0,0,0,0,1.565A.783.783,0,0,0,278.373,160.288Z" transform="translate(-240.026 -133.529)" fill="#ffb177"/>
          <path id="Path_443" data-name="Path 443" d="M281.115,155.654a.409.409,0,0,0,0,.818A.409.409,0,0,0,281.115,155.654Z" transform="translate(-240.026 -133.529)" fill="#ffb177"/>
          <path id="Path_444" data-name="Path 444" d="M282.9,158.825a.577.577,0,0,0,0,1.153A.577.577,0,0,0,282.9,158.825Z" transform="translate(-240.026 -133.529)" fill="#ffb177"/>
          <path id="Path_445" data-name="Path 445" d="M287.315,163.432a.619.619,0,0,0,0,1.238A.619.619,0,0,0,287.315,163.432Z" transform="translate(-240.026 -133.529)" fill="#ffb177"/>
          <path id="Path_446" data-name="Path 446" d="M291.01,158.794a.608.608,0,0,0,0,1.215A.608.608,0,0,0,291.01,158.794Z" transform="translate(-240.026 -133.529)" fill="#ffb177"/>
          <path id="Path_447" data-name="Path 447" d="M251.43,183.655a.425.425,0,0,0,0,.849A.425.425,0,0,0,251.43,183.655Z" transform="translate(-240.026 -133.529)" fill="#ffb177"/>
          <path id="Path_448" data-name="Path 448" d="M256.914,191.213a.616.616,0,0,0,0,1.231A.616.616,0,0,0,256.914,191.213Z" transform="translate(-240.026 -133.529)" fill="#ffb177"/>
          <path id="Path_449" data-name="Path 449" d="M258.941,185.231a.518.518,0,0,0,0,1.036A.518.518,0,0,0,258.941,185.231Z" transform="translate(-240.026 -133.529)" fill="#ffb177"/>
          <path id="Path_450" data-name="Path 450" d="M252.98,188.936a.39.39,0,0,0,0,.779A.39.39,0,0,0,252.98,188.936Z" transform="translate(-240.026 -133.529)" fill="#ffb177"/>
          <path id="Path_451" data-name="Path 451" d="M281.115,189.378a.425.425,0,0,0,0,.849A.425.425,0,0,0,281.115,189.378Z" transform="translate(-240.026 -133.529)" fill="#ffb177"/>
          <path id="Path_452" data-name="Path 452" d="M282.169,192.116l-.066.115c-.551.961,1.021,1.826,1.458.852l.054-.122C284.047,192,282.718,191.16,282.169,192.116Z" transform="translate(-240.026 -133.529)" fill="#ffb177"/>
          <path id="Path_453" data-name="Path 453" d="M283.857,188.95a.5.5,0,0,0,0,.989A.495.495,0,0,0,283.857,188.95Z" transform="translate(-240.026 -133.529)" fill="#ffb177"/>
          <path id="Path_454" data-name="Path 454" d="M286.123,186.612a.448.448,0,0,0,0,.9A.448.448,0,0,0,286.123,186.612Z" transform="translate(-240.026 -133.529)" fill="#ffb177"/>
          <path id="Path_455" data-name="Path 455" d="M263.6,166.912l0,.119a.581.581,0,0,0,1.161,0l0-.119A.585.585,0,0,0,263.6,166.912Z" transform="translate(-240.026 -133.529)" fill="#ffb177"/>
          <path id="Path_456" data-name="Path 456" d="M266.451,168.246a.693.693,0,0,0,0,1.386A.693.693,0,0,0,266.451,168.246Z" transform="translate(-240.026 -133.529)" fill="#ffb177"/>
        </g>
        <path id="Path_457" data-name="Path 457" d="M297.839,121.795c-.544-1.557-1.984-1.538-3.549-1.375-5.605.587-11.21,1.271-16.825,1.761-1.622.142-3.4.113-4.213,2-.563,1.308-.177,15.752-.176,18.076,0,2.039-.1,3.825,2.42,4.213,1.522.234,12.133-1.018,17.9-1.73a4.509,4.509,0,0,0,3.953-4.2C297.718,134.618,298.328,123.563,297.839,121.795Z" transform="translate(-230.286 -91.614)" fill="url(#linear-gradient-15)"/>
        <path id="Path_458" data-name="Path 458" d="M268.312,122.854a3.485,3.485,0,0,1,1.484.3c1.532.75,1.033,3.184,1.021,4.551q-.025,3.192-.053,6.385c-.009,1.075-.088,2.3-.932,2.969a3.647,3.647,0,0,1-2.278.527c-2.2.018-10.611-.24-12.478-.553a3.014,3.014,0,0,1-2.1-1.275,4.5,4.5,0,0,1-.387-2.625c.173-3.147.15-6.383.438-9.506.2-2.1,3.615-1.256,5.18-1.227C261.635,122.462,268.071,122.85,268.312,122.854Z" transform="translate(-230.286 -91.614)" fill="url(#linear-gradient-16)"/>
        <path id="Path_459" data-name="Path 459" d="M282.715,112.365c6.569-.31,19.282-1.942,25.586-8.367l.343-4.486H246.035l-.172-2.243h-9.838l.172,2.243h-5.911l.409,5.343a10.4,10.4,0,0,0,2.445,1.342c1.194.453,2.424.867,3.668,1.262l4.672,60.776a51.524,51.524,0,0,0,6.867,22.023A15.807,15.807,0,0,0,262,198.1h14.932a15.8,15.8,0,0,0,11.39-4.858,15.821,15.821,0,0,1-1.916.121H271.473a15.807,15.807,0,0,1-13.652-7.841,51.509,51.509,0,0,1-6.866-22.023L246.842,110A155.679,155.679,0,0,0,282.715,112.365Z" transform="translate(-230.286 -91.614)" fill="url(#linear-gradient-17)"/>
        <path id="Path_460" data-name="Path 460" d="M263.7,113.723s26.953,4.124,43.277-5.616l-4.922,61.536-2.493-51.9S277.052,117.727,263.7,113.723Z" transform="translate(-230.286 -91.614)" fill="url(#linear-gradient-18)"/>
        <g id="Group_17" data-name="Group 17" transform="translate(8.576 22.046)" opacity="0.8">
          <path id="Path_461" data-name="Path 461" d="M269.429,196.6a15.8,15.8,0,0,1-13.652-7.842,51.516,51.516,0,0,1-6.867-22.022L245,115.821a1.942,1.942,0,0,0-1.647-1.767q-1.113-.172-2.225-.365a1.936,1.936,0,0,0-2.256,2.061l3.92,50.985a51.516,51.516,0,0,0,6.8,21.906,15.879,15.879,0,0,0,13.72,7.958Z" transform="translate(-238.862 -113.66)" fill="url(#linear-gradient-19)"/>
        </g>
      </g>
      <g id="Group_22" data-name="Group 22">
        <g id="Group_20" data-name="Group 20">
          <path id="Path_462" data-name="Path 462" d="M308.974,99.774c-6.034,7.018-17.322,8.675-25.733,9.224-16.445,1.072-34.462-.4-50.1-6.329A10.914,10.914,0,0,1,226.487,95,13.112,13.112,0,0,1,231.5,82.207c3.555-2.733,7.316-2.962,11.581-3.209,2.515-.146,3.82-2.7,5-4.585a19.817,19.817,0,0,1,5.336-5.657c2.3-1.614,5.061-2.388,7.356-4.009,1.783-1.259,3.325-3.807,4.522-5.6.88-1.321,3.87-5.459,3.438-7.11.987,3.78,2.02,7.658,4.316,10.818,2.911,4.005,7.483,6.378,11.591,9.139s8.14,6.48,8.829,11.382c6.176.632,13.4,1.96,16.094,7.553C311.359,94.657,310.893,97.542,308.974,99.774Z" transform="translate(-226.231 -52.034)" fill="#e6e6e6"/>
          <path id="Path_463" data-name="Path 463" d="M304.6,101.977a89.877,89.877,0,0,1-14.646,2.882,127.405,127.405,0,0,1-31.7.333c-8.393-.955-17.842-2.121-24.793-7.365-2.732-2.062-4.965-4.731-5.087-8.291a12.486,12.486,0,0,1,1.2-5.51A12.825,12.825,0,0,0,226.487,95a10.913,10.913,0,0,0,6.653,7.667c15.639,5.925,33.625,7.4,50.07,6.329,8.411-.549,19.73-2.206,25.764-9.224.062-.072.11-.152.169-.225A12.922,12.922,0,0,1,304.6,101.977Z" transform="translate(-226.231 -52.034)" fill="url(#linear-gradient-20)"/>
          <path id="Path_464" data-name="Path 464" d="M273.944,66.7c3.345,3.562,8.109,4.9,11.813,7.936,2.347,1.924,5.77,5.842,4.72,9.209a3.273,3.273,0,0,1-.6,1.1c6.45-.709,13.585.853,17.406,5.884a11.367,11.367,0,0,1,2.556,7.679c1.132-2.03,1.2-4.518-.276-7.586-2.7-5.593-9.918-6.921-16.094-7.553-.689-4.9-4.72-8.621-8.829-11.382s-8.68-5.134-11.591-9.139a26.2,26.2,0,0,1-3.7-8.527C269.678,58.836,270.738,63.289,273.944,66.7Z" transform="translate(-226.231 -52.034)" fill="#fff"/>
          <path id="Path_465" data-name="Path 465" d="M266,66.617a2.129,2.129,0,0,0,1.065,1.155,3.586,3.586,0,0,0,1.98.181c1.19-.148,3.885-.323,3.074-2.105-1.189-2.614-2.749-4.265-3.587-8.438.085.424-.6,1.561-.752,1.985-.3.837-.593,1.679-.86,2.528-.362,1.155-1.277,3.2-1.005,4.414A2.1,2.1,0,0,0,266,66.617Z" transform="translate(-226.231 -52.034)" fill="url(#linear-gradient-21)"/>
          <path id="Path_466" data-name="Path 466" d="M272.48,71.5a13.264,13.264,0,0,0,2.842-.712c1.594-.607,2.955.623,4.329,1.348a32.337,32.337,0,0,1,4.828,3.01c1.624,1.265,4.738,3.963,4.84,6.234.11,2.439-2.926,3.358-4.8,3.7a25.3,25.3,0,0,1-5.918.87c-2.4-.134-3.02-1.964-3.357-4.127q-.389-2.488-.776-4.976a3.17,3.17,0,0,0-2.535-3.252l-6.383-2.373A21.041,21.041,0,0,0,272.48,71.5Z" transform="translate(-226.231 -52.034)" fill="url(#linear-gradient-22)"/>
          <path id="Path_467" data-name="Path 467" d="M293.422,86.618c4.81-.769,10.724,1.435,12.972,5.941a3.805,3.805,0,0,1,.234,3.581,4.323,4.323,0,0,1-2.006,1.5,32.242,32.242,0,0,1-10.793,2.851c-.352-1.164-1.569-8.753-3.11-8.7-15.244.527-16.7-1.306-18.122-1.371C284.163,91.066,290.885,87.024,293.422,86.618Z" transform="translate(-226.231 -52.034)" fill="url(#linear-gradient-23)"/>
          <path id="Path_468" data-name="Path 468" d="M265.081,83.469a4.418,4.418,0,0,0,.429,1.515c.977,1.764,3.553,1.509,5.244,1.223a2.883,2.883,0,0,0,2.177-1.48,7.379,7.379,0,0,0,.171-3.163,32.156,32.156,0,0,0-.688-4.057,2.592,2.592,0,0,0-.778-1.709c-.814-.6-3.041-.228-4.081-.22-1.077.008-2.553.06-2.706,1.425A26.608,26.608,0,0,0,265.081,83.469Z" transform="translate(-226.231 -52.034)" fill="url(#linear-gradient-24)"/>
          <path id="Path_469" data-name="Path 469" d="M265.334,62.517c-.28-.508-3.709,3.224-3.232,4.432a.406.406,0,0,0,.217.226,3,3,0,0,0,1.067.313,1.344,1.344,0,0,0,1.029-.346c.361-.36.253-.984.336-1.449.129-.717.362-1.43.535-2.138A1.892,1.892,0,0,0,265.334,62.517Z" transform="translate(-226.231 -52.034)" fill="url(#linear-gradient-25)"/>
          <path id="Path_470" data-name="Path 470" d="M248.148,77.354a5.978,5.978,0,0,0-.341,4.38c.595,1.6,2.387,2.574,3.857,3.244a14.187,14.187,0,0,0,6.048,1.274,6.214,6.214,0,0,1-2.961-3.781c-1.008-3.676,1.343-7.038,3.349-9.885a1.054,1.054,0,0,0,.278-.8c-.072-.306-.391-.476-.677-.607a6.755,6.755,0,0,0-3.139-.861c-1.754.1-3.017,2.1-4.05,3.305A14.765,14.765,0,0,0,248.148,77.354Z" transform="translate(-226.231 -52.034)" fill="url(#linear-gradient-26)"/>
          <path id="Path_471" data-name="Path 471" d="M265.644,93a4.768,4.768,0,0,1,1.985.405c1.641.814,1.992,2.808,2.155,4.523.151,1.6.177,4.107-1.476,5.141a4.773,4.773,0,0,1-1.749.562,23.793,23.793,0,0,1-7.41.091,5.387,5.387,0,0,1-3.572-1.6,4.343,4.343,0,0,1-.594-3.217c.191-1.621-.256-5.385,2.118-5.884,2.335-.489,5.394-.021,7.8-.029C265.144,93,265.394,93,265.644,93Z" transform="translate(-226.231 -52.034)" fill="url(#linear-gradient-27)"/>
          <path id="Path_472" data-name="Path 472" d="M247.507,85.744s-4.778-3.451-4.115-5.707c0,0-13.141-1.195-15.8,10.088a12.446,12.446,0,0,0,.4,5.575s-3.322-9.8,10.221-12.212Z" transform="translate(-226.231 -52.034)" fill="url(#linear-gradient-28)"/>
          <path id="Path_473" data-name="Path 473" d="M241.166,88.471a2.919,2.919,0,0,0-1.332.237c-1.271.576-1.787,2.075-2.173,3.416-.528,1.837-1.029,3.925-.046,5.565.938,1.566,2.9,2.147,4.7,2.454,1.9.325,4.772.994,6.669.487,1.647-.44,1.934-2.187,2.154-3.749.163-1.161,1.131-4.042.207-5.035a3.336,3.336,0,0,0-1.471-.771l-6.555-2.128A8.222,8.222,0,0,0,241.166,88.471Z" transform="translate(-226.231 -52.034)" fill="url(#linear-gradient-29)"/>
          <g id="Group_19" data-name="Group 19" transform="translate(5.171 9.679)">
            <path id="Path_474" data-name="Path 474" d="M261.6,70.98a.733.733,0,0,0-.779,0,.78.78,0,0,0-.156,1.211l.069.074a.68.68,0,0,0,.953,0l.069-.074A.78.78,0,0,0,261.6,70.98Z" transform="translate(-231.402 -61.713)" fill="#fff"/>
            <path id="Path_475" data-name="Path 475" d="M261.348,73.163a.768.768,0,0,0,0,1.535A.768.768,0,0,0,261.348,73.163Z" transform="translate(-231.402 -61.713)" fill="#fff"/>
            <path id="Path_476" data-name="Path 476" d="M263.2,72.853a.506.506,0,0,0,0,1.012A.506.506,0,0,0,263.2,72.853Z" transform="translate(-231.402 -61.713)" fill="#fff"/>
            <path id="Path_477" data-name="Path 477" d="M267.772,78.631a.725.725,0,0,0,0,1.449A.725.725,0,0,0,267.772,78.631Z" transform="translate(-231.402 -61.713)" fill="#fff"/>
            <path id="Path_478" data-name="Path 478" d="M269.757,78.461a.486.486,0,0,0-.373.883A.486.486,0,1,0,269.757,78.461Z" transform="translate(-231.402 -61.713)" fill="#fff"/>
            <path id="Path_479" data-name="Path 479" d="M270.2,80.916a.581.581,0,0,0,0,1.161A.581.581,0,0,0,270.2,80.916Z" transform="translate(-231.402 -61.713)" fill="#fff"/>
            <path id="Path_480" data-name="Path 480" d="M280.14,77.356a.542.542,0,0,0-1.037,0l-.022.137a.555.555,0,1,0,1.081,0Z" transform="translate(-231.402 -61.713)" fill="#fff"/>
            <path id="Path_481" data-name="Path 481" d="M283.038,80.159a.774.774,0,0,0-.694.205c-.6.476.361,1.44.837.837a.778.778,0,0,0,.2-.694A.48.48,0,0,0,283.038,80.159Z" transform="translate(-231.402 -61.713)" fill="#fff"/>
            <path id="Path_482" data-name="Path 482" d="M284.32,76.936a.67.67,0,0,0-.512.4.613.613,0,0,0,.831.832.674.674,0,0,0,.4-.512A.594.594,0,0,0,284.32,76.936Z" transform="translate(-231.402 -61.713)" fill="#fff"/>
            <path id="Path_483" data-name="Path 483" d="M280.05,74.253a.534.534,0,0,0,0,1.067A.534.534,0,0,0,280.05,74.253Z" transform="translate(-231.402 -61.713)" fill="#fff"/>
            <path id="Path_484" data-name="Path 484" d="M282.334,76.946a.553.553,0,0,0,0,1.106A.553.553,0,0,0,282.334,76.946Z" transform="translate(-231.402 -61.713)" fill="#fff"/>
            <path id="Path_485" data-name="Path 485" d="M252.64,89.866a.768.768,0,0,0,0,1.535A.768.768,0,0,0,252.64,89.866Z" transform="translate(-231.402 -61.713)" fill="#fff"/>
            <path id="Path_486" data-name="Path 486" d="M254.3,93.3l-.13-.045c-.625-.216-.629.968,0,.751l.13-.045A.346.346,0,0,0,254.3,93.3Z" transform="translate(-231.402 -61.713)" fill="#fff"/>
            <path id="Path_487" data-name="Path 487" d="M256.78,91.036a.312.312,0,0,0,0,.623A.312.312,0,0,0,256.78,91.036Z" transform="translate(-231.402 -61.713)" fill="#fff"/>
            <path id="Path_488" data-name="Path 488" d="M260.206,96.819a.382.382,0,0,0,0,.763A.382.382,0,0,0,260.206,96.819Z" transform="translate(-231.402 -61.713)" fill="#fff"/>
            <path id="Path_489" data-name="Path 489" d="M294.612,95.373a.686.686,0,0,0,0,1.371A.686.686,0,0,0,294.612,95.373Z" transform="translate(-231.402 -61.713)" fill="#fff"/>
            <path id="Path_490" data-name="Path 490" d="M301.321,91.512a.549.549,0,0,0,0,1.1A.549.549,0,0,0,301.321,91.512Z" transform="translate(-231.402 -61.713)" fill="#fff"/>
            <path id="Path_491" data-name="Path 491" d="M297.038,88.152a.483.483,0,0,0,0,.966A.483.483,0,0,0,297.038,88.152Z" transform="translate(-231.402 -61.713)" fill="#fff"/>
            <path id="Path_492" data-name="Path 492" d="M305.638,92.177a.657.657,0,0,0-.079,1.163l.12.06a.565.565,0,0,0,.821-.334l.021-.117A.658.658,0,0,0,305.638,92.177Z" transform="translate(-231.402 -61.713)" fill="#fff"/>
            <path id="Path_493" data-name="Path 493" d="M306.889,94.38a.394.394,0,0,0,0,.787A.394.394,0,0,0,306.889,94.38Z" transform="translate(-231.402 -61.713)" fill="#fff"/>
            <path id="Path_494" data-name="Path 494" d="M305.341,89.656l-.071-.1a.447.447,0,0,0-.76,0l-.07.1a.522.522,0,1,0,.9,0Z" transform="translate(-231.402 -61.713)" fill="#fff"/>
            <path id="Path_495" data-name="Path 495" d="M234.831,88.741l-.074-.069a.359.359,0,0,0-.5,0l-.074.069a.456.456,0,1,0,.644,0Z" transform="translate(-231.402 -61.713)" fill="#fff"/>
            <path id="Path_496" data-name="Path 496" d="M234.969,92.19l-.109-.057c-.775-.406-.775,1.118,0,.713l.109-.057A.349.349,0,0,0,234.969,92.19Z" transform="translate(-231.402 -61.713)" fill="#fff"/>
            <path id="Path_497" data-name="Path 497" d="M237.792,88.645a.561.561,0,0,0,0,1.122A.561.561,0,0,0,237.792,88.645Z" transform="translate(-231.402 -61.713)" fill="#fff"/>
            <path id="Path_498" data-name="Path 498" d="M238.221,86.747a.46.46,0,0,0,0,.92A.46.46,0,0,0,238.221,86.747Z" transform="translate(-231.402 -61.713)" fill="#fff"/>
            <path id="Path_499" data-name="Path 499" d="M232.52,88.911l-.075-.069a.615.615,0,0,0-.869.87l.068.074C232.184,90.376,233.109,89.45,232.52,88.911Z" transform="translate(-231.402 -61.713)" fill="#fff"/>
            <path id="Path_500" data-name="Path 500" d="M231.939,91.583a.05.05,0,0,0,0,.1A.05.05,0,0,0,231.939,91.583Z" transform="translate(-231.402 -61.713)" fill="#fff"/>
            <path id="Path_501" data-name="Path 501" d="M251.73,78.927a.541.541,0,0,0-1.036,0l-.027.135a.559.559,0,1,0,1.09,0Z" transform="translate(-231.402 -61.713)" fill="#fff"/>
            <path id="Path_502" data-name="Path 502" d="M252.354,75.051a.592.592,0,0,0,0,1.184A.592.592,0,0,0,252.354,75.051Z" transform="translate(-231.402 -61.713)" fill="#fff"/>
            <path id="Path_503" data-name="Path 503" d="M254.21,73.021a.624.624,0,0,0,0,1.247A.624.624,0,0,0,254.21,73.021Z" transform="translate(-231.402 -61.713)" fill="#fff"/>
            <path id="Path_504" data-name="Path 504" d="M248.785,78.061a.152.152,0,0,0,0,.3A.152.152,0,0,0,248.785,78.061Z" transform="translate(-231.402 -61.713)" fill="#fff"/>
            <path id="Path_505" data-name="Path 505" d="M250.675,75.324l-.069-.074a.357.357,0,0,0-.5,0l-.069.074a.452.452,0,1,0,.639,0Z" transform="translate(-231.402 -61.713)" fill="#fff"/>
            <path id="Path_506" data-name="Path 506" d="M259.635,82.535a.39.39,0,0,0,0,.779A.39.39,0,0,0,259.635,82.535Z" transform="translate(-231.402 -61.713)" fill="#fff"/>
            <path id="Path_507" data-name="Path 507" d="M269.885,66.25l-.072-.071a.565.565,0,0,0-.8.8l.071.072A.565.565,0,0,0,269.885,66.25Z" transform="translate(-231.402 -61.713)" fill="#fff"/>
            <path id="Path_508" data-name="Path 508" d="M268.638,63.642a.43.43,0,0,0-.589,0,.678.678,0,0,0-.235.58.53.53,0,0,0,1.059,0A.686.686,0,0,0,268.638,63.642Z" transform="translate(-231.402 -61.713)" fill="#fff"/>
            <path id="Path_509" data-name="Path 509" d="M268.772,61.713a.511.511,0,0,0,0,1.021A.511.511,0,0,0,268.772,61.713Z" transform="translate(-231.402 -61.713)" fill="#fff"/>
            <path id="Path_510" data-name="Path 510" d="M271.253,65.036l-.049-.022.013.016a.585.585,0,0,0-.912.176l-.024.05a.692.692,0,0,0,.1.817l.041.034C271.231,66.776,272.1,65.429,271.253,65.036Z" transform="translate(-231.402 -61.713)" fill="#fff"/>
            <path id="Path_511" data-name="Path 511" d="M257.672,68.261a.738.738,0,0,0-.276.119c-.64.434.214,1.3.651.651a.738.738,0,0,0,.119-.276A.407.407,0,0,0,257.672,68.261Z" transform="translate(-231.402 -61.713)" fill="#fff"/>
            <path id="Path_512" data-name="Path 512" d="M261.919,95.324a.592.592,0,0,0,0,1.184A.592.592,0,0,0,261.919,95.324Z" transform="translate(-231.402 -61.713)" fill="#fff"/>
            <path id="Path_513" data-name="Path 513" d="M262.49,98.233a.538.538,0,0,0,0,1.075A.538.538,0,0,0,262.49,98.233Z" transform="translate(-231.402 -61.713)" fill="#fff"/>
            <path id="Path_514" data-name="Path 514" d="M264.2,99.435a.05.05,0,0,0,0,.1A.05.05,0,0,0,264.2,99.435Z" transform="translate(-231.402 -61.713)" fill="#fff"/>
            <path id="Path_515" data-name="Path 515" d="M240.648,93.821a.382.382,0,0,0,0,.763A.382.382,0,0,0,240.648,93.821Z" transform="translate(-231.402 -61.713)" fill="#fff"/>
            <path id="Path_516" data-name="Path 516" d="M241.932,96.717a.483.483,0,0,0,0,.966A.483.483,0,0,0,241.932,96.717Z" transform="translate(-231.402 -61.713)" fill="#fff"/>
            <path id="Path_517" data-name="Path 517" d="M242.5,94.106a.382.382,0,0,0,0,.764A.382.382,0,0,0,242.5,94.106Z" transform="translate(-231.402 -61.713)" fill="#fff"/>
            <path id="Path_518" data-name="Path 518" d="M254.21,90.441a.05.05,0,0,0,0,.1A.05.05,0,0,0,254.21,90.441Z" transform="translate(-231.402 -61.713)" fill="#fff"/>
            <path id="Path_519" data-name="Path 519" d="M246.5,94.4a.658.658,0,0,0,0,1.316A.658.658,0,0,0,246.5,94.4Z" transform="translate(-231.402 -61.713)" fill="#fff"/>
            <path id="Path_520" data-name="Path 520" d="M270.77,90.082a.409.409,0,0,0,0,.818A.409.409,0,0,0,270.77,90.082Z" transform="translate(-231.402 -61.713)" fill="#fff"/>
            <path id="Path_521" data-name="Path 521" d="M271.664,91.535l-.163.068c-.892.369.215,1.476.584.584l.068-.163A.4.4,0,0,0,271.664,91.535Z" transform="translate(-231.402 -61.713)" fill="#fff"/>
            <path id="Path_522" data-name="Path 522" d="M273.054,90.934a.413.413,0,0,0,0,.826A.413.413,0,0,0,273.054,90.934Z" transform="translate(-231.402 -61.713)" fill="#fff"/>
            <path id="Path_523" data-name="Path 523" d="M277.686,96.923c-.02-.064-.042-.127-.063-.19-.283-.831-1.534-.272-1.089.459l.06.1a.574.574,0,0,0,.5.289l.1-.011A.517.517,0,0,0,277.686,96.923Z" transform="translate(-231.402 -61.713)" fill="#fff"/>
            <path id="Path_524" data-name="Path 524" d="M278.622,100.267a.5.5,0,0,0,0,1.005A.5.5,0,0,0,278.622,100.267Z" transform="translate(-231.402 -61.713)" fill="#fff"/>
            <path id="Path_525" data-name="Path 525" d="M281.049,97.207a.565.565,0,0,0,0,1.129A.565.565,0,0,0,281.049,97.207Z" transform="translate(-231.402 -61.713)" fill="#fff"/>
            <path id="Path_526" data-name="Path 526" d="M283.048,100.815a.526.526,0,0,0,0,1.051A.526.526,0,0,0,283.048,100.815Z" transform="translate(-231.402 -61.713)" fill="#fff"/>
            <path id="Path_527" data-name="Path 527" d="M275.339,98.605a.452.452,0,1,0,.452.451A.4.4,0,0,0,275.339,98.605Z" transform="translate(-231.402 -61.713)" fill="#fff"/>
            <path id="Path_528" data-name="Path 528" d="M284.475,98.157a.471.471,0,0,0,0,.942A.471.471,0,0,0,284.475,98.157Z" transform="translate(-231.402 -61.713)" fill="#fff"/>
          </g>
        </g>
        <g id="Group_21" data-name="Group 21" transform="translate(17.12 12.315)">
          <path id="Path_529" data-name="Path 529" d="M260.572,64.349a2.238,2.238,0,0,0-1.648,2.718,5.407,5.407,0,0,0,2.045,2.857,21.471,21.471,0,0,0,16.663,4.749c1.7-.246,3.608-.9,4.206-2.514.936-2.52-1.875-4.61-3.959-5.288" transform="translate(-243.351 -64.349)" fill="none" stroke="#8c3215" stroke-miterlimit="10" stroke-width="0.997"/>
          <path id="Path_530" data-name="Path 530" d="M251.44,69.392a5.685,5.685,0,0,0,.943,6.052,13.106,13.106,0,0,0,5.363,3.532A40.323,40.323,0,0,0,274.5,81.93a34.919,34.919,0,0,0,8.958-1.071c2.651-.812,7.036-3.31,5.034-6.641a3.736,3.736,0,0,0-2.367-1.7" transform="translate(-243.351 -64.349)" fill="none" stroke="#8c3215" stroke-miterlimit="10" stroke-width="0.997"/>
          <path id="Path_531" data-name="Path 531" d="M243.351,79.79a50.213,50.213,0,0,0,46.341,12.548c3.218-.8,7.235-2.273,7.448-6.187a2.965,2.965,0,0,0-1.628-2.927" transform="translate(-243.351 -64.349)" fill="none" stroke="#8c3215" stroke-miterlimit="10" stroke-width="0.997"/>
        </g>
      </g>
    </g>
    <text id="MOCHA-2" data-name="MOCHA" transform="translate(20.344 197.979)" fill="#fff" font-size="14" font-family="MyriadPro-Regular, Myriad Pro"><tspan x="0" y="0">MOCHA</tspan></text>
  </g>
</svg>
