<svg id="Logo" xmlns="http://www.w3.org/2000/svg" width="251" height="258.634" viewBox="0 0 251 258.634">
  <g id="Object">
    <path id="Path_16" data-name="Path 16" d="M8.35,107.64A18.25,18.25,0,0,1,2,99.72,26.92,26.92,0,0,1,0,89.2,51.26,51.26,0,0,1,5.52,66.63,56.8,56.8,0,0,1,19.66,47.94q8.6-7.35,17.3-7.35a10.51,10.51,0,0,1,6.57,1.91Q46,44.42,46,48.5a24.33,24.33,0,0,1-1.61,8,27.49,27.49,0,0,1-4.09,7.7c-1.65,2.12-3.32,3.17-5,3.17q-2.18,0-3.57-2.69A57.671,57.671,0,0,0,38.13,56q3.09-5,3.09-8.18,0-3.39-3.91-3.39-6.09,0-12.92,7.4A62.27,62.27,0,0,0,13,70Q8.44,80.77,8.44,90a20.93,20.93,0,0,0,3.13,11.74q3.12,4.78,9.48,4.79a19.14,19.14,0,0,0,9.21-2.57,33,33,0,0,0,8.61-6.83,37,37,0,0,0,6.27-9.21L47.4,89.4a48.69,48.69,0,0,1-12.31,15.34,25.07,25.07,0,0,1-16.13,6,17.79,17.79,0,0,1-10.61-3.1Z" transform="translate(0.002 44.282)" fill="#ff8318"/>
    <path id="Path_17" data-name="Path 17" d="M43.61,103.55A10.1,10.1,0,0,1,42,97.72a20.7,20.7,0,0,1,1.52-7.56,20.12,20.12,0,0,1,3.95-6.53,7.033,7.033,0,0,1,5-2.6,7.45,7.45,0,0,1,2.7.69A12.16,12.16,0,0,1,58,75.11a8.2,8.2,0,0,1,6.48-2.61,6.36,6.36,0,0,1,5.13,2,7.62,7.62,0,0,1,1.66,5.09,18.61,18.61,0,0,1-1.61,7,49.29,49.29,0,0,1-4.13,7.83,5.31,5.31,0,0,0,2.43.52,10.55,10.55,0,0,0,5.22-1.6,10.41,10.41,0,0,0,4.26-4.92L79,89.46a14.79,14.79,0,0,1-4.92,6.35A11,11,0,0,1,67.66,98a13.91,13.91,0,0,1-4.35-.78,30.74,30.74,0,0,1-7,6.26,13.91,13.91,0,0,1-7.48,2.44,5.83,5.83,0,0,1-5.22-2.37Zm12.14-3.83a29.2,29.2,0,0,0,4.52-4.43q-5-4.35-5.22-12.78c-.7.34-1.54,1.42-2.52,3.21a32.77,32.77,0,0,0-2.52,6,19.44,19.44,0,0,0-1,5.74q0,4,3,4A6.84,6.84,0,0,0,55.75,99.72ZM66.14,85.81a16.78,16.78,0,0,0,1.43-6.26q0-3.83-2.43-3.83a3.55,3.55,0,0,0-2.35,1.13,8.61,8.61,0,0,0-2,3A10.66,10.66,0,0,0,60,84a17.81,17.81,0,0,0,.69,4.57,10.91,10.91,0,0,0,1.83,4,37.8,37.8,0,0,0,3.62-6.76Z" transform="translate(14.547 56.203)" fill="#ff8318"/>
    <path id="Path_18" data-name="Path 18" d="M71.44,125.64c-1.18-1.22-1.78-3.39-1.78-6.52q0-9,6.48-28.53a189.131,189.131,0,0,1,15.3-34.78q8.84-15.31,16.14-15.31,3.65,0,3.65,4.44,0,4.77-3.43,10.87a61.74,61.74,0,0,1-8.92,11.87,66,66,0,0,1-11.39,9.69L86.1,80.85a3,3,0,0,1,1.43,1.22,5,5,0,0,1,.74,1.83q.87,4.69,1.57,7.21A9.64,9.64,0,0,0,92,95.2a5.06,5.06,0,0,0,4,1.57,7.53,7.53,0,0,0,5.18-2.09,30.26,30.26,0,0,0,5-6.52L108,89.55a22.66,22.66,0,0,1-6,8,10.71,10.71,0,0,1-6.48,2.7,10.65,10.65,0,0,1-6.18-2.35,50.72,50.72,0,0,1-2.13,14,36,36,0,0,1-5.26,11.26c-2.14,2.9-4.35,4.35-6.61,4.35A5.35,5.35,0,0,1,71.44,125.64Zm9.74-7.74a54.76,54.76,0,0,0,3.22-10,45.419,45.419,0,0,0,1.35-10,15.67,15.67,0,0,0-.57-4.39,22.22,22.22,0,0,0-2-4.48q-3.14,9.39-5,17.13a55.15,55.15,0,0,0-1.87,12.18c0,2.49.46,3.73,1.39,3.73S79.94,120.68,81.18,117.9Zm17.61-56a58.219,58.219,0,0,0,5.87-8.39c1.36-2.46,2-4.22,2-5.26a.62.62,0,0,0-.7-.7q-3,0-7.3,6.57A110.281,110.281,0,0,0,90,71.29a100.54,100.54,0,0,0,8.79-9.4Z" transform="translate(24.841 54.353)" fill="#ff8318"/>
    <path id="Path_19" data-name="Path 19" d="M100.14,125.64q-1.78-1.83-1.78-6.52,0-9,6.48-28.53a188.459,188.459,0,0,1,15.3-34.78Q129,40.5,136.27,40.5q3.66,0,3.66,4.44,0,4.77-3.44,10.87a61.26,61.26,0,0,1-8.91,11.87,66.36,66.36,0,0,1-11.39,9.69l-1.4,3.48a3.07,3.07,0,0,1,1.44,1.22A5,5,0,0,1,117,83.9q.87,4.69,1.56,7.21a9.87,9.87,0,0,0,2.13,4.09,5.09,5.09,0,0,0,4,1.57,7.51,7.51,0,0,0,5.17-2.09,29.93,29.93,0,0,0,5-6.52l1.91,1.39a22.78,22.78,0,0,1-6,8,10.76,10.76,0,0,1-6.48,2.7A10.62,10.62,0,0,1,118,97.9a51.48,51.48,0,0,1-2.13,14,36.18,36.18,0,0,1-5.26,11.26q-3.23,4.35-6.61,4.35a5.35,5.35,0,0,1-3.86-1.87Zm9.74-7.74a54.76,54.76,0,0,0,3.22-10,45.42,45.42,0,0,0,1.35-10,15.67,15.67,0,0,0-.57-4.39,22.32,22.32,0,0,0-2-4.48q-3.12,9.39-5,17.13a55.76,55.76,0,0,0-1.87,12.18c0,2.49.47,3.73,1.39,3.73S108.63,120.68,109.88,117.9Zm17.61-56a58.221,58.221,0,0,0,5.87-8.39c1.36-2.46,2-4.22,2-5.26a.62.62,0,0,0-.69-.7q-3,0-7.31,6.57a109.468,109.468,0,0,0-8.69,17.18,101.9,101.9,0,0,0,8.82-9.41Z" transform="translate(35.075 54.353)" fill="#ff8318"/>
    <path id="Path_20" data-name="Path 20" d="M164.63,104.64a10.9,10.9,0,0,1-3.48-6.92,29.37,29.37,0,0,1-8.57,6.79,20.85,20.85,0,0,1-9.61,2.43q-5.47,0-8.57-2.91a9.9,9.9,0,0,1-3.08-7.52,21.8,21.8,0,0,1,3.39-10.87,32.94,32.94,0,0,1,8.69-9.83q5.31-4,10.61-4,6.18,0,6.18,5.74A11.34,11.34,0,0,1,157,85.29a24.05,24.05,0,0,1-8.3,5.82A35.24,35.24,0,0,1,138.27,94a14.05,14.05,0,0,0-.17,2.18q0,7,6.78,7a16,16,0,0,0,8.79-2.91,31.25,31.25,0,0,0,7.91-7.61,26.47,26.47,0,0,1,4.26-9.31,27.94,27.94,0,0,1,7.74-7.52,16.62,16.62,0,0,1,9-2.91q6.26,0,6.26,5.82A11.06,11.06,0,0,1,186,86.2a21.49,21.49,0,0,1-7.7,5.44,35,35,0,0,1-10.18,2.69,16,16,0,0,0-.17,2.09,9.09,9.09,0,0,0,1.39,5.09q1.4,2.13,5.13,2.13,5.4,0,11-4.52a33.85,33.85,0,0,0,8.92-11l1.56,1.22a34.69,34.69,0,0,1-10,13q-6.39,5-13.26,5A11.32,11.32,0,0,1,164.63,104.64ZM150.19,85.16q5-3.87,5-8a1.25,1.25,0,0,0-1.56-1.48A8.88,8.88,0,0,0,148.36,78,27.529,27.529,0,0,0,143,83.85a28.06,28.06,0,0,0-3.74,7.35,41.35,41.35,0,0,0,10.93-6.04Zm29.26.78q4.49-3.18,4.48-7.26a2.22,2.22,0,0,0-.35-1.44,1.7,1.7,0,0,0-1.3-.39,8.32,8.32,0,0,0-5,2.05,22.42,22.42,0,0,0-4.87,5.34,26.54,26.54,0,0,0-3.35,7,41.82,41.82,0,0,0,10.39-5.3Z" transform="translate(55.05 56.616)" fill="#ff8318"/>
    <path id="Path_21" data-name="Path 21" d="M55.33,27.41,51.22,18.8c-.83-1.74-3.42-.22-2.59,1.51l4.11,8.62C53.57,30.67,56.16,29.15,55.33,27.41Z" transform="translate(14.125 0.001)" fill="#ff8318"/>
    <path id="Path_22" data-name="Path 22" d="M79.4,25.81a142.58,142.58,0,0,0-8.15-25C70.48-1,67.9.54,68.65,2.3a137.358,137.358,0,0,1,7.86,24.31C76.93,28.49,79.83,27.69,79.4,25.81Z" transform="translate(20.387 0.001)" fill="#ff8318"/>
    <path id="Path_23" data-name="Path 23" d="M96.45,6.21v18a1.5,1.5,0,0,0,3,0v-18a1.5,1.5,0,1,0-3,0Z" transform="translate(27.519 0.001)" fill="#ff8318"/>
    <path id="Path_24" data-name="Path 24" d="M136.66,5.45l-11.9,18.07c-1.07,1.61,1.53,3.12,2.59,1.51L139.26,7C140.32,5.35,137.72,3.85,136.66,5.45Z" transform="translate(37.88 0.001)" fill="#ff8318"/>
    <path id="Path_25" data-name="Path 25" d="M157,22.62l-8.81,8.51c-1.39,1.34.73,3.46,2.12,2.12l8.82-8.51C160.54,23.39,158.41,21.27,157,22.62Z" transform="translate(44.179 0.001)" fill="#ff8318"/>
    <path id="Path_26" data-name="Path 26" d="M49.19,135.39,39.14,158c-.77,1.74,1.81,3.27,2.59,1.51L51.78,136.9C52.56,135.16,50,133.63,49.19,135.39Z" transform="translate(11.732 98.344)" fill="#ff8318"/>
    <path id="Path_27" data-name="Path 27" d="M70.38,139.53q-.7,7-1.42,14c-.2,1.92,2.8,1.91,3,0l1.42-14C73.58,137.61,70.58,137.63,70.38,139.53Z" transform="translate(19.822 98.344)" fill="#ff8318"/>
    <path id="Path_28" data-name="Path 28" d="M91.05,138.87l-.66,18c-.07,1.93,2.93,1.93,3,0l.66-18C94.12,136.94,91.12,136.94,91.05,138.87Z" transform="translate(25.879 98.344)" fill="#ff8318"/>
    <path id="Path_29" data-name="Path 29" d="M129.9,148.13a124.889,124.889,0,0,0-9.41-12.44c-1.26-1.47-3.37.66-2.12,2.12a119.478,119.478,0,0,1,8.94,11.83C128.37,151.25,131,149.75,129.9,148.13Z" transform="translate(35.345 98.344)" fill="#ff8318"/>
    <path id="Path_30" data-name="Path 30" d="M153.6,155.65l-14.29-22.9c-1-1.64-3.62-.13-2.59,1.51q7.14,11.46,14.29,22.9C152,158.8,154.63,157.29,153.6,155.65Z" transform="translate(42.069 98.344)" fill="#ff8318"/>
  </g>
</svg>
